<svg width="193" height="210" fill="none" xmlns="http://www.w3.org/2000/svg"><path d="M61.378 131.556a9.503 9.503 0 0 0-6.753-2.805 9.512 9.512 0 0 0-6.638 16.317 56.964 56.964 0 0 0 87.59-9.058 56.962 56.962 0 0 0-58.862-87.25 56.962 56.962 0 0 0-29.097 15.708 9.502 9.502 0 0 0-2.755 6.74 9.513 9.513 0 0 0 16.271 6.651 37.97 37.97 0 0 1 41.338-8.416 37.965 37.965 0 0 1 23.597 34.969 37.97 37.97 0 0 1-64.689 27.147l-.002-.003Z" fill="url(#a)"/><path d="M.001 64.63a47.25 47.25 0 0 0 14.083 33.567 9.52 9.52 0 0 1 .061 13.452 47.615 47.615 0 0 0 .308 67.259 104.585 104.585 0 1 0-.676-147.97A47.243 47.243 0 0 0 .001 64.63Zm27.29-20.3a85.604 85.604 0 0 1 93.21-18.985A85.61 85.61 0 1 1 27.844 165.4a28.573 28.573 0 0 1-.185-40.358 28.565 28.565 0 0 0-.184-40.353 28.539 28.539 0 0 1-.185-40.356" fill="url(#b)"/><path d="M104.939 104.585c0-8.536-6.92-15.455-15.455-15.455S74.03 96.05 74.03 104.585c0 8.536 6.92 15.455 15.455 15.455 8.536 0 15.455-6.919 15.455-15.455Z" fill="url(#c)"/><defs><linearGradient id="a" x1="202.726" y1="104.584" x2=".589" y2="104.584" gradientUnits="userSpaceOnUse"><stop stop-color="#00CD9E"/><stop offset="1" stop-color="#38A3DC"/></linearGradient><linearGradient id="b" x1="202.635" y1="104.585" x2=".578" y2="104.585" gradientUnits="userSpaceOnUse"><stop stop-color="#00CD9E"/><stop offset="1" stop-color="#38A3DC"/></linearGradient><linearGradient id="c" x1="202.8" y1="104.585" x2=".587" y2="104.585" gradientUnits="userSpaceOnUse"><stop stop-color="#00AB9E"/><stop offset="1" stop-color="#38A3DC"/></linearGradient></defs></svg>