<svg width="400" height="223" viewBox="0 0 400 223" fill="none" xmlns="http://www.w3.org/2000/svg">
<mask id="mask0_516_14170" style="mask-type:alpha" maskUnits="userSpaceOnUse" x="0" y="0" width="400" height="223">
<rect width="400" height="223" fill="#C4C4C4"/>
</mask>
<g mask="url(#mask0_516_14170)">
<rect width="400" height="223" fill="#F5BB34"/>
<path fill-rule="evenodd" clip-rule="evenodd" d="M-137.95 73.1733C-133.135 56.399 -137.573 35.8132 -126.141 22.6251C-114.509 9.20629 -90.2054 14.9592 -77.0999 2.97436C-60.7013 -12.022 -62.885 -43.9383 -42.8455 -53.5478C-24.8431 -62.1806 -3.63856 -47.7169 15.2794 -41.3246C32.7105 -35.4346 47.4199 -24.2624 64.4483 -17.2934C83.9555 -9.30992 111.387 -14.0041 123.745 3.06591C136.289 20.392 123.094 45.3802 125.23 66.6593C127.009 84.3778 136.26 100.869 135.35 118.653C134.433 136.558 123.617 152.159 119.954 169.709C115.353 191.748 125.203 218.714 110.841 236.056C97.1095 252.638 71.0777 255.699 49.5646 254.706C28.5247 253.735 12.6092 227.613 -8.24494 230.56C-33.2142 234.089 -45.997 275.545 -70.9263 271.734C-92.8878 268.377 -90.4893 231.7 -105.839 215.642C-119.757 201.084 -146.505 200.585 -155.945 182.796C-165.362 165.053 -158.224 142.885 -154.97 123.067C-152.099 105.578 -142.839 90.2086 -137.95 73.1733Z" fill="#EC323F"/>
<path d="M12.4849 88.4V76.016H35.6209V146H21.7969V88.4H12.4849ZM46.4982 110.096C46.4982 99.024 48.4822 90.352 52.4502 84.08C56.4822 77.808 63.1382 74.672 72.4182 74.672C81.6982 74.672 88.3222 77.808 92.2902 84.08C96.3222 90.352 98.3382 99.024 98.3382 110.096C98.3382 121.232 96.3222 129.968 92.2902 136.304C88.3222 142.64 81.6982 145.808 72.4182 145.808C63.1382 145.808 56.4822 142.64 52.4502 136.304C48.4822 129.968 46.4982 121.232 46.4982 110.096ZM85.0902 110.096C85.0902 105.36 84.7702 101.392 84.1302 98.192C83.5542 94.928 82.3382 92.272 80.4822 90.224C78.6902 88.176 76.0022 87.152 72.4182 87.152C68.8342 87.152 66.1142 88.176 64.2582 90.224C62.4662 92.272 61.2502 94.928 60.6102 98.192C60.0342 101.392 59.7462 105.36 59.7462 110.096C59.7462 114.96 60.0342 119.056 60.6102 122.384C61.1862 125.648 62.4022 128.304 64.2582 130.352C66.1142 132.336 68.8342 133.328 72.4182 133.328C76.0022 133.328 78.7222 132.336 80.5782 130.352C82.4342 128.304 83.6502 125.648 84.2262 122.384C84.8022 119.056 85.0902 114.96 85.0902 110.096ZM101.961 132.8C101.961 131.584 102.313 130.632 103.017 129.944C103.737 129.256 104.657 128.912 105.777 128.912C106.897 128.912 107.809 129.256 108.513 129.944C109.233 130.632 109.593 131.584 109.593 132.8C109.593 134.032 109.233 134.992 108.513 135.68C107.809 136.368 106.897 136.712 105.777 136.712C104.657 136.712 103.737 136.368 103.017 135.68C102.313 134.992 101.961 134.032 101.961 132.8ZM117.369 129.2L107.937 146H104.673L114.081 129.2H117.369ZM105.753 130.928C104.873 130.928 104.433 131.552 104.433 132.8C104.433 134.064 104.873 134.696 105.753 134.696C106.185 134.696 106.521 134.544 106.761 134.24C107.001 133.92 107.121 133.44 107.121 132.8C107.121 131.552 106.665 130.928 105.753 130.928ZM112.497 142.376C112.497 141.144 112.849 140.192 113.553 139.52C114.273 138.832 115.193 138.488 116.313 138.488C117.433 138.488 118.337 138.832 119.025 139.52C119.729 140.192 120.081 141.144 120.081 142.376C120.081 143.608 119.729 144.568 119.025 145.256C118.337 145.944 117.433 146.288 116.313 146.288C115.177 146.288 114.257 145.944 113.553 145.256C112.849 144.568 112.497 143.608 112.497 142.376ZM116.289 140.504C115.377 140.504 114.921 141.128 114.921 142.376C114.921 143.64 115.377 144.272 116.289 144.272C117.185 144.272 117.633 143.64 117.633 142.376C117.633 141.128 117.185 140.504 116.289 140.504Z" fill="white"/>
<path d="M151.268 42.248V52.616C151.268 53.752 151.564 54.624 152.156 55.232C152.748 55.824 153.58 56.12 154.652 56.12C155.74 56.12 156.58 55.824 157.172 55.232C157.764 54.624 158.06 53.752 158.06 52.616V42.248H161.444V52.592C161.444 54.016 161.132 55.224 160.508 56.216C159.9 57.192 159.076 57.928 158.036 58.424C157.012 58.92 155.868 59.168 154.604 59.168C153.356 59.168 152.22 58.92 151.196 58.424C150.188 57.928 149.388 57.192 148.796 56.216C148.204 55.224 147.908 54.016 147.908 52.592V42.248H151.268ZM171.458 45.512C173.042 45.512 174.322 46.016 175.298 47.024C176.274 48.016 176.762 49.408 176.762 51.2V59H173.402V51.656C173.402 50.6 173.138 49.792 172.61 49.232C172.082 48.656 171.362 48.368 170.45 48.368C169.522 48.368 168.786 48.656 168.242 49.232C167.714 49.792 167.45 50.6 167.45 51.656V59H164.09V45.704H167.45V47.36C167.898 46.784 168.466 46.336 169.154 46.016C169.858 45.68 170.626 45.512 171.458 45.512ZM183.27 48.464V54.896C183.27 55.344 183.374 55.672 183.582 55.88C183.806 56.072 184.174 56.168 184.686 56.168H186.246V59H184.134C181.302 59 179.886 57.624 179.886 54.872V48.464H178.302V45.704H179.886V42.416H183.27V45.704H186.246V48.464H183.27ZM200.614 45.704V59H197.23V57.32C196.798 57.896 196.23 58.352 195.526 58.688C194.838 59.008 194.086 59.168 193.27 59.168C192.23 59.168 191.31 58.952 190.51 58.52C189.71 58.072 189.078 57.424 188.614 56.576C188.166 55.712 187.942 54.688 187.942 53.504V45.704H191.302V53.024C191.302 54.08 191.566 54.896 192.094 55.472C192.622 56.032 193.342 56.312 194.254 56.312C195.182 56.312 195.91 56.032 196.438 55.472C196.966 54.896 197.23 54.08 197.23 53.024V45.704H200.614ZM211.201 59L206.689 53.336V59H203.329V41.24H206.689V51.344L211.153 45.704H215.521L209.665 52.376L215.569 59H211.201ZM234.08 47.432C234.08 48.328 233.864 49.168 233.432 49.952C233.016 50.736 232.352 51.368 231.44 51.848C230.544 52.328 229.408 52.568 228.032 52.568H225.224V59H221.864V42.248H228.032C229.328 42.248 230.432 42.472 231.344 42.92C232.256 43.368 232.936 43.984 233.384 44.768C233.848 45.552 234.08 46.44 234.08 47.432ZM227.888 49.856C228.816 49.856 229.504 49.648 229.952 49.232C230.4 48.8 230.624 48.2 230.624 47.432C230.624 45.8 229.712 44.984 227.888 44.984H225.224V49.856H227.888ZM248.225 52.064C248.225 52.544 248.193 52.976 248.129 53.36H238.409C238.489 54.32 238.825 55.072 239.417 55.616C240.009 56.16 240.737 56.432 241.601 56.432C242.849 56.432 243.737 55.896 244.265 54.824H247.889C247.505 56.104 246.769 57.16 245.681 57.992C244.593 58.808 243.257 59.216 241.673 59.216C240.393 59.216 239.241 58.936 238.217 58.376C237.209 57.8 236.417 56.992 235.841 55.952C235.281 54.912 235.001 53.712 235.001 52.352C235.001 50.976 235.281 49.768 235.841 48.728C236.401 47.688 237.185 46.888 238.193 46.328C239.201 45.768 240.361 45.488 241.673 45.488C242.937 45.488 244.065 45.76 245.057 46.304C246.065 46.848 246.841 47.624 247.385 48.632C247.945 49.624 248.225 50.768 248.225 52.064ZM244.745 51.104C244.729 50.24 244.417 49.552 243.809 49.04C243.201 48.512 242.457 48.248 241.577 48.248C240.745 48.248 240.041 48.504 239.465 49.016C238.905 49.512 238.561 50.208 238.433 51.104H244.745ZM266.59 45.512C268.222 45.512 269.534 46.016 270.526 47.024C271.534 48.016 272.038 49.408 272.038 51.2V59H268.678V51.656C268.678 50.616 268.414 49.824 267.886 49.28C267.358 48.72 266.638 48.44 265.726 48.44C264.814 48.44 264.086 48.72 263.542 49.28C263.014 49.824 262.75 50.616 262.75 51.656V59H259.39V51.656C259.39 50.616 259.126 49.824 258.598 49.28C258.07 48.72 257.35 48.44 256.438 48.44C255.51 48.44 254.774 48.72 254.23 49.28C253.702 49.824 253.438 50.616 253.438 51.656V59H250.078V45.704H253.438V47.312C253.87 46.752 254.422 46.312 255.094 45.992C255.782 45.672 256.534 45.512 257.35 45.512C258.39 45.512 259.318 45.736 260.134 46.184C260.95 46.616 261.582 47.24 262.03 48.056C262.462 47.288 263.086 46.672 263.902 46.208C264.734 45.744 265.63 45.512 266.59 45.512ZM277.986 47.648C278.418 47.008 279.01 46.488 279.762 46.088C280.53 45.688 281.402 45.488 282.378 45.488C283.514 45.488 284.538 45.768 285.45 46.328C286.378 46.888 287.106 47.688 287.634 48.728C288.178 49.752 288.45 50.944 288.45 52.304C288.45 53.664 288.178 54.872 287.634 55.928C287.106 56.968 286.378 57.776 285.45 58.352C284.538 58.928 283.514 59.216 282.378 59.216C281.386 59.216 280.514 59.024 279.762 58.64C279.026 58.24 278.434 57.728 277.986 57.104V59H274.626V41.24H277.986V47.648ZM285.018 52.304C285.018 51.504 284.85 50.816 284.514 50.24C284.194 49.648 283.762 49.2 283.218 48.896C282.69 48.592 282.114 48.44 281.49 48.44C280.882 48.44 280.306 48.6 279.762 48.92C279.234 49.224 278.802 49.672 278.466 50.264C278.146 50.856 277.986 51.552 277.986 52.352C277.986 53.152 278.146 53.848 278.466 54.44C278.802 55.032 279.234 55.488 279.762 55.808C280.306 56.112 280.882 56.264 281.49 56.264C282.114 56.264 282.69 56.104 283.218 55.784C283.762 55.464 284.194 55.008 284.514 54.416C284.85 53.824 285.018 53.12 285.018 52.304ZM289.428 52.304C289.428 50.96 289.692 49.768 290.22 48.728C290.764 47.688 291.492 46.888 292.404 46.328C293.332 45.768 294.364 45.488 295.5 45.488C296.492 45.488 297.356 45.688 298.092 46.088C298.844 46.488 299.444 46.992 299.892 47.6V45.704H303.276V59H299.892V57.056C299.46 57.68 298.86 58.2 298.092 58.616C297.34 59.016 296.468 59.216 295.476 59.216C294.356 59.216 293.332 58.928 292.404 58.352C291.492 57.776 290.764 56.968 290.22 55.928C289.692 54.872 289.428 53.664 289.428 52.304ZM299.892 52.352C299.892 51.536 299.732 50.84 299.412 50.264C299.092 49.672 298.66 49.224 298.116 48.92C297.572 48.6 296.988 48.44 296.364 48.44C295.74 48.44 295.164 48.592 294.636 48.896C294.108 49.2 293.676 49.648 293.34 50.24C293.02 50.816 292.86 51.504 292.86 52.304C292.86 53.104 293.02 53.808 293.34 54.416C293.676 55.008 294.108 55.464 294.636 55.784C295.18 56.104 295.756 56.264 296.364 56.264C296.988 56.264 297.572 56.112 298.116 55.808C298.66 55.488 299.092 55.04 299.412 54.464C299.732 53.872 299.892 53.168 299.892 52.352ZM318.678 45.704L310.446 65.288H306.87L309.75 58.664L304.422 45.704H308.19L311.622 54.992L315.102 45.704H318.678ZM319.025 52.304C319.025 50.96 319.289 49.768 319.817 48.728C320.361 47.688 321.089 46.888 322.001 46.328C322.929 45.768 323.961 45.488 325.097 45.488C326.089 45.488 326.953 45.688 327.689 46.088C328.441 46.488 329.041 46.992 329.489 47.6V45.704H332.873V59H329.489V57.056C329.057 57.68 328.457 58.2 327.689 58.616C326.937 59.016 326.065 59.216 325.073 59.216C323.953 59.216 322.929 58.928 322.001 58.352C321.089 57.776 320.361 56.968 319.817 55.928C319.289 54.872 319.025 53.664 319.025 52.304ZM329.489 52.352C329.489 51.536 329.329 50.84 329.009 50.264C328.689 49.672 328.257 49.224 327.713 48.92C327.169 48.6 326.585 48.44 325.961 48.44C325.337 48.44 324.761 48.592 324.233 48.896C323.705 49.2 323.273 49.648 322.937 50.24C322.617 50.816 322.457 51.504 322.457 52.304C322.457 53.104 322.617 53.808 322.937 54.416C323.273 55.008 323.705 55.464 324.233 55.784C324.777 56.104 325.353 56.264 325.961 56.264C326.585 56.264 327.169 56.112 327.713 55.808C328.257 55.488 328.689 55.04 329.009 54.464C329.329 53.872 329.489 53.168 329.489 52.352ZM338.914 47.768C339.346 47.064 339.906 46.512 340.594 46.112C341.298 45.712 342.098 45.512 342.994 45.512V49.04H342.106C341.05 49.04 340.25 49.288 339.706 49.784C339.178 50.28 338.914 51.144 338.914 52.376V59H335.554V45.704H338.914V47.768ZM343.794 52.304C343.794 50.96 344.058 49.768 344.586 48.728C345.13 47.688 345.858 46.888 346.77 46.328C347.698 45.768 348.73 45.488 349.866 45.488C350.858 45.488 351.722 45.688 352.458 46.088C353.21 46.488 353.81 46.992 354.258 47.6V45.704H357.642V59H354.258V57.056C353.826 57.68 353.226 58.2 352.458 58.616C351.706 59.016 350.834 59.216 349.842 59.216C348.722 59.216 347.698 58.928 346.77 58.352C345.858 57.776 345.13 56.968 344.586 55.928C344.058 54.872 343.794 53.664 343.794 52.304ZM354.258 52.352C354.258 51.536 354.098 50.84 353.778 50.264C353.458 49.672 353.026 49.224 352.482 48.92C351.938 48.6 351.354 48.44 350.73 48.44C350.106 48.44 349.53 48.592 349.002 48.896C348.474 49.2 348.042 49.648 347.706 50.24C347.386 50.816 347.226 51.504 347.226 52.304C347.226 53.104 347.386 53.808 347.706 54.416C348.042 55.008 348.474 55.464 349.002 55.784C349.546 56.104 350.122 56.264 350.73 56.264C351.354 56.264 351.938 56.112 352.482 55.808C353.026 55.488 353.458 55.04 353.778 54.464C354.098 53.872 354.258 53.168 354.258 52.352ZM367.691 45.512C369.275 45.512 370.555 46.016 371.531 47.024C372.507 48.016 372.995 49.408 372.995 51.2V59H369.635V51.656C369.635 50.6 369.371 49.792 368.843 49.232C368.315 48.656 367.595 48.368 366.683 48.368C365.755 48.368 365.019 48.656 364.475 49.232C363.947 49.792 363.683 50.6 363.683 51.656V59H360.323V45.704H363.683V47.36C364.131 46.784 364.699 46.336 365.387 46.016C366.091 45.68 366.859 45.512 367.691 45.512ZM182.951 103.896H197.671V111H173.991V66.328H182.951V103.896ZM235.238 75.544V111H226.214V106.52C225.062 108.056 223.547 109.272 221.67 110.168C219.835 111.021 217.83 111.448 215.654 111.448C212.881 111.448 210.427 110.872 208.294 109.72C206.161 108.525 204.475 106.797 203.238 104.536C202.043 102.232 201.446 99.5013 201.446 96.344V75.544H210.406V95.064C210.406 97.88 211.11 100.056 212.518 101.592C213.926 103.085 215.846 103.832 218.278 103.832C220.753 103.832 222.694 103.085 224.102 101.592C225.51 100.056 226.214 97.88 226.214 95.064V75.544H235.238ZM262.127 75.032C266.351 75.032 269.764 76.376 272.367 79.064C274.969 81.7093 276.271 85.4213 276.271 90.2V111H267.311V91.416C267.311 88.6 266.607 86.4453 265.199 84.952C263.791 83.416 261.871 82.648 259.439 82.648C256.964 82.648 255.001 83.416 253.551 84.952C252.143 86.4453 251.439 88.6 251.439 91.416V111H242.479V75.544H251.439V79.96C252.633 78.424 254.148 77.2293 255.983 76.376C257.86 75.48 259.908 75.032 262.127 75.032ZM280.887 93.144C280.887 89.56 281.591 86.3813 282.999 83.608C284.45 80.8347 286.391 78.7013 288.823 77.208C291.298 75.7147 294.05 74.968 297.079 74.968C299.724 74.968 302.028 75.5013 303.991 76.568C305.996 77.6347 307.596 78.9787 308.791 80.6V75.544H317.815V111H308.791V105.816C307.639 107.48 306.039 108.867 303.991 109.976C301.986 111.043 299.66 111.576 297.015 111.576C294.028 111.576 291.298 110.808 288.823 109.272C286.391 107.736 284.45 105.581 282.999 102.808C281.591 99.992 280.887 96.7707 280.887 93.144ZM308.791 93.272C308.791 91.096 308.364 89.24 307.511 87.704C306.658 86.1253 305.506 84.9307 304.055 84.12C302.604 83.2667 301.047 82.84 299.383 82.84C297.719 82.84 296.183 83.2453 294.775 84.056C293.367 84.8667 292.215 86.0613 291.319 87.64C290.466 89.176 290.039 91.0107 290.039 93.144C290.039 95.2773 290.466 97.1547 291.319 98.776C292.215 100.355 293.367 101.571 294.775 102.424C296.226 103.277 297.762 103.704 299.383 103.704C301.047 103.704 302.604 103.299 304.055 102.488C305.506 101.635 306.658 100.44 307.511 98.904C308.364 97.3253 308.791 95.448 308.791 93.272ZM338.534 111.576C335.633 111.576 333.03 111.064 330.726 110.04C328.422 108.973 326.587 107.544 325.222 105.752C323.899 103.96 323.174 101.976 323.046 99.8H332.07C332.241 101.165 332.902 102.296 334.054 103.192C335.249 104.088 336.721 104.536 338.47 104.536C340.177 104.536 341.499 104.195 342.438 103.512C343.419 102.829 343.91 101.955 343.91 100.888C343.91 99.736 343.313 98.8827 342.118 98.328C340.966 97.7307 339.11 97.0907 336.55 96.408C333.905 95.768 331.729 95.1067 330.022 94.424C328.358 93.7413 326.907 92.696 325.67 91.288C324.475 89.88 323.878 87.9813 323.878 85.592C323.878 83.6293 324.433 81.8373 325.542 80.216C326.694 78.5947 328.315 77.3147 330.406 76.376C332.539 75.4373 335.035 74.968 337.894 74.968C342.118 74.968 345.489 76.0347 348.006 78.168C350.523 80.2587 351.91 83.096 352.166 86.68H343.59C343.462 85.272 342.865 84.1627 341.798 83.352C340.774 82.4987 339.387 82.072 337.638 82.072C336.017 82.072 334.758 82.3707 333.862 82.968C333.009 83.5653 332.582 84.3973 332.582 85.464C332.582 86.6587 333.179 87.576 334.374 88.216C335.569 88.8133 337.425 89.432 339.942 90.072C342.502 90.712 344.614 91.3733 346.278 92.056C347.942 92.7387 349.371 93.8053 350.566 95.256C351.803 96.664 352.443 98.5413 352.486 100.888C352.486 102.936 351.91 104.771 350.758 106.392C349.649 108.013 348.027 109.293 345.894 110.232C343.803 111.128 341.35 111.576 338.534 111.576Z" fill="#333333"/>
<path d="M147.296 127.242V133.416C147.296 134.284 147.506 134.928 147.926 135.348C148.355 135.768 148.948 135.978 149.704 135.978C150.45 135.978 151.034 135.768 151.454 135.348C151.883 134.928 152.098 134.284 152.098 133.416V127.242H153.372V133.402C153.372 134.214 153.208 134.9 152.882 135.46C152.555 136.011 152.112 136.421 151.552 136.692C151.001 136.963 150.38 137.098 149.69 137.098C148.999 137.098 148.374 136.963 147.814 136.692C147.263 136.421 146.824 136.011 146.498 135.46C146.18 134.9 146.022 134.214 146.022 133.402V127.242H147.296ZM158.885 129.188C159.818 129.188 160.574 129.473 161.153 130.042C161.732 130.602 162.021 131.414 162.021 132.478V137H160.761V132.66C160.761 131.895 160.57 131.311 160.187 130.91C159.804 130.499 159.282 130.294 158.619 130.294C157.947 130.294 157.41 130.504 157.009 130.924C156.617 131.344 156.421 131.955 156.421 132.758V137H155.147V129.328H156.421V130.42C156.673 130.028 157.014 129.725 157.443 129.51C157.882 129.295 158.362 129.188 158.885 129.188ZM165.306 130.378V134.9C165.306 135.273 165.385 135.539 165.544 135.698C165.703 135.847 165.978 135.922 166.37 135.922H167.308V137H166.16C165.451 137 164.919 136.837 164.564 136.51C164.209 136.183 164.032 135.647 164.032 134.9V130.378H163.038V129.328H164.032V127.396H165.306V129.328H167.308V130.378H165.306ZM175.306 129.328V137H174.032V135.866C173.789 136.258 173.448 136.566 173.01 136.79C172.58 137.005 172.104 137.112 171.582 137.112C170.984 137.112 170.448 136.991 169.972 136.748C169.496 136.496 169.118 136.123 168.838 135.628C168.567 135.133 168.432 134.531 168.432 133.822V129.328H169.692V133.654C169.692 134.41 169.883 134.993 170.266 135.404C170.648 135.805 171.171 136.006 171.834 136.006C172.515 136.006 173.052 135.796 173.444 135.376C173.836 134.956 174.032 134.345 174.032 133.542V129.328H175.306ZM181.391 137L178.381 133.612V137H177.107V126.64H178.381V132.73L181.335 129.328H183.113L179.501 133.15L183.127 137H181.391ZM191.628 137L188.618 133.612V137H187.344V126.64H188.618V132.73L191.572 129.328H193.35L189.738 133.15L193.364 137H191.628ZM193.723 133.136C193.723 132.352 193.882 131.666 194.199 131.078C194.517 130.481 194.951 130.019 195.501 129.692C196.061 129.365 196.682 129.202 197.363 129.202C198.035 129.202 198.619 129.347 199.113 129.636C199.608 129.925 199.977 130.289 200.219 130.728V129.328H201.507V137H200.219V135.572C199.967 136.02 199.589 136.393 199.085 136.692C198.591 136.981 198.012 137.126 197.349 137.126C196.668 137.126 196.052 136.958 195.501 136.622C194.951 136.286 194.517 135.815 194.199 135.208C193.882 134.601 193.723 133.911 193.723 133.136ZM200.219 133.15C200.219 132.571 200.103 132.067 199.869 131.638C199.636 131.209 199.319 130.882 198.917 130.658C198.525 130.425 198.091 130.308 197.615 130.308C197.139 130.308 196.705 130.42 196.313 130.644C195.921 130.868 195.609 131.195 195.375 131.624C195.142 132.053 195.025 132.557 195.025 133.136C195.025 133.724 195.142 134.237 195.375 134.676C195.609 135.105 195.921 135.437 196.313 135.67C196.705 135.894 197.139 136.006 197.615 136.006C198.091 136.006 198.525 135.894 198.917 135.67C199.319 135.437 199.636 135.105 199.869 134.676C200.103 134.237 200.219 133.729 200.219 133.15ZM212.536 129.188C213.134 129.188 213.666 129.314 214.132 129.566C214.599 129.809 214.968 130.177 215.238 130.672C215.509 131.167 215.644 131.769 215.644 132.478V137H214.384V132.66C214.384 131.895 214.193 131.311 213.81 130.91C213.437 130.499 212.928 130.294 212.284 130.294C211.622 130.294 211.094 130.509 210.702 130.938C210.31 131.358 210.114 131.969 210.114 132.772V137H208.854V132.66C208.854 131.895 208.663 131.311 208.28 130.91C207.907 130.499 207.398 130.294 206.754 130.294C206.092 130.294 205.564 130.509 205.172 130.938C204.78 131.358 204.584 131.969 204.584 132.772V137H203.31V129.328H204.584V130.434C204.836 130.033 205.172 129.725 205.592 129.51C206.022 129.295 206.493 129.188 207.006 129.188C207.65 129.188 208.22 129.333 208.714 129.622C209.209 129.911 209.578 130.336 209.82 130.896C210.035 130.355 210.39 129.935 210.884 129.636C211.379 129.337 211.93 129.188 212.536 129.188ZM224.188 129.328V137H222.914V135.866C222.671 136.258 222.331 136.566 221.892 136.79C221.463 137.005 220.987 137.112 220.464 137.112C219.867 137.112 219.33 136.991 218.854 136.748C218.378 136.496 218 136.123 217.72 135.628C217.449 135.133 217.314 134.531 217.314 133.822V129.328H218.574V133.654C218.574 134.41 218.765 134.993 219.148 135.404C219.531 135.805 220.053 136.006 220.716 136.006C221.397 136.006 221.934 135.796 222.326 135.376C222.718 134.956 222.914 134.345 222.914 133.542V129.328H224.188ZM235.98 129.328L231.36 140.612H230.044L231.556 136.916L228.462 129.328H229.876L232.284 135.544L234.664 129.328H235.98ZM236.434 133.136C236.434 132.352 236.593 131.666 236.91 131.078C237.228 130.481 237.662 130.019 238.212 129.692C238.772 129.365 239.393 129.202 240.074 129.202C240.746 129.202 241.33 129.347 241.824 129.636C242.319 129.925 242.688 130.289 242.93 130.728V129.328H244.218V137H242.93V135.572C242.678 136.02 242.3 136.393 241.796 136.692C241.302 136.981 240.723 137.126 240.06 137.126C239.379 137.126 238.763 136.958 238.212 136.622C237.662 136.286 237.228 135.815 236.91 135.208C236.593 134.601 236.434 133.911 236.434 133.136ZM242.93 133.15C242.93 132.571 242.814 132.067 242.58 131.638C242.347 131.209 242.03 130.882 241.628 130.658C241.236 130.425 240.802 130.308 240.326 130.308C239.85 130.308 239.416 130.42 239.024 130.644C238.632 130.868 238.32 131.195 238.086 131.624C237.853 132.053 237.736 132.557 237.736 133.136C237.736 133.724 237.853 134.237 238.086 134.676C238.32 135.105 238.632 135.437 239.024 135.67C239.416 135.894 239.85 136.006 240.326 136.006C240.802 136.006 241.236 135.894 241.628 135.67C242.03 135.437 242.347 135.105 242.58 134.676C242.814 134.237 242.93 133.729 242.93 133.15ZM249.759 129.188C250.692 129.188 251.448 129.473 252.027 130.042C252.606 130.602 252.895 131.414 252.895 132.478V137H251.635V132.66C251.635 131.895 251.444 131.311 251.061 130.91C250.678 130.499 250.156 130.294 249.493 130.294C248.821 130.294 248.284 130.504 247.883 130.924C247.491 131.344 247.295 131.955 247.295 132.758V137H246.021V129.328H247.295V130.42C247.547 130.028 247.888 129.725 248.317 129.51C248.756 129.295 249.236 129.188 249.759 129.188ZM257.79 129.202C258.453 129.202 259.032 129.347 259.526 129.636C260.03 129.925 260.404 130.289 260.646 130.728V129.328H261.934V137.168C261.934 137.868 261.785 138.489 261.486 139.03C261.188 139.581 260.758 140.01 260.198 140.318C259.648 140.626 259.004 140.78 258.266 140.78C257.258 140.78 256.418 140.542 255.746 140.066C255.074 139.59 254.678 138.941 254.556 138.12H255.816C255.956 138.587 256.246 138.96 256.684 139.24C257.123 139.529 257.65 139.674 258.266 139.674C258.966 139.674 259.536 139.455 259.974 139.016C260.422 138.577 260.646 137.961 260.646 137.168V135.558C260.394 136.006 260.021 136.379 259.526 136.678C259.032 136.977 258.453 137.126 257.79 137.126C257.109 137.126 256.488 136.958 255.928 136.622C255.378 136.286 254.944 135.815 254.626 135.208C254.309 134.601 254.15 133.911 254.15 133.136C254.15 132.352 254.309 131.666 254.626 131.078C254.944 130.481 255.378 130.019 255.928 129.692C256.488 129.365 257.109 129.202 257.79 129.202ZM260.646 133.15C260.646 132.571 260.53 132.067 260.296 131.638C260.063 131.209 259.746 130.882 259.344 130.658C258.952 130.425 258.518 130.308 258.042 130.308C257.566 130.308 257.132 130.42 256.74 130.644C256.348 130.868 256.036 131.195 255.802 131.624C255.569 132.053 255.452 132.557 255.452 133.136C255.452 133.724 255.569 134.237 255.802 134.676C256.036 135.105 256.348 135.437 256.74 135.67C257.132 135.894 257.566 136.006 258.042 136.006C258.518 136.006 258.952 135.894 259.344 135.67C259.746 135.437 260.063 135.105 260.296 134.676C260.53 134.237 260.646 133.729 260.646 133.15ZM276.346 129.188C276.943 129.188 277.475 129.314 277.942 129.566C278.408 129.809 278.777 130.177 279.048 130.672C279.318 131.167 279.454 131.769 279.454 132.478V137H278.194V132.66C278.194 131.895 278.002 131.311 277.62 130.91C277.246 130.499 276.738 130.294 276.094 130.294C275.431 130.294 274.904 130.509 274.512 130.938C274.12 131.358 273.924 131.969 273.924 132.772V137H272.664V132.66C272.664 131.895 272.472 131.311 272.09 130.91C271.716 130.499 271.208 130.294 270.564 130.294C269.901 130.294 269.374 130.509 268.982 130.938C268.59 131.358 268.394 131.969 268.394 132.772V137H267.12V129.328H268.394V130.434C268.646 130.033 268.982 129.725 269.402 129.51C269.831 129.295 270.302 129.188 270.816 129.188C271.46 129.188 272.029 129.333 272.524 129.622C273.018 129.911 273.387 130.336 273.63 130.896C273.844 130.355 274.199 129.935 274.694 129.636C275.188 129.337 275.739 129.188 276.346 129.188ZM288.193 132.87C288.193 133.113 288.179 133.369 288.151 133.64H282.019C282.066 134.396 282.323 134.989 282.789 135.418C283.265 135.838 283.839 136.048 284.511 136.048C285.062 136.048 285.519 135.922 285.883 135.67C286.257 135.409 286.518 135.063 286.667 134.634H288.039C287.834 135.371 287.423 135.973 286.807 136.44C286.191 136.897 285.426 137.126 284.511 137.126C283.783 137.126 283.13 136.963 282.551 136.636C281.982 136.309 281.534 135.847 281.207 135.25C280.881 134.643 280.717 133.943 280.717 133.15C280.717 132.357 280.876 131.661 281.193 131.064C281.511 130.467 281.954 130.009 282.523 129.692C283.102 129.365 283.765 129.202 284.511 129.202C285.239 129.202 285.883 129.361 286.443 129.678C287.003 129.995 287.433 130.434 287.731 130.994C288.039 131.545 288.193 132.17 288.193 132.87ZM286.877 132.604C286.877 132.119 286.77 131.703 286.555 131.358C286.341 131.003 286.047 130.737 285.673 130.56C285.309 130.373 284.903 130.28 284.455 130.28C283.811 130.28 283.261 130.485 282.803 130.896C282.355 131.307 282.099 131.876 282.033 132.604H286.877ZM298.751 129.188C299.348 129.188 299.88 129.314 300.347 129.566C300.814 129.809 301.182 130.177 301.453 130.672C301.724 131.167 301.859 131.769 301.859 132.478V137H300.599V132.66C300.599 131.895 300.408 131.311 300.025 130.91C299.652 130.499 299.143 130.294 298.499 130.294C297.836 130.294 297.309 130.509 296.917 130.938C296.525 131.358 296.329 131.969 296.329 132.772V137H295.069V132.66C295.069 131.895 294.878 131.311 294.495 130.91C294.122 130.499 293.613 130.294 292.969 130.294C292.306 130.294 291.779 130.509 291.387 130.938C290.995 131.358 290.799 131.969 290.799 132.772V137H289.525V129.328H290.799V130.434C291.051 130.033 291.387 129.725 291.807 129.51C292.236 129.295 292.708 129.188 293.221 129.188C293.865 129.188 294.434 129.333 294.929 129.622C295.424 129.911 295.792 130.336 296.035 130.896C296.25 130.355 296.604 129.935 297.099 129.636C297.594 129.337 298.144 129.188 298.751 129.188ZM304.873 130.756C305.134 130.299 305.517 129.925 306.021 129.636C306.525 129.347 307.099 129.202 307.743 129.202C308.434 129.202 309.054 129.365 309.605 129.692C310.156 130.019 310.59 130.481 310.907 131.078C311.224 131.666 311.383 132.352 311.383 133.136C311.383 133.911 311.224 134.601 310.907 135.208C310.59 135.815 310.151 136.286 309.591 136.622C309.04 136.958 308.424 137.126 307.743 137.126C307.08 137.126 306.497 136.981 305.993 136.692C305.498 136.403 305.125 136.034 304.873 135.586V137H303.599V126.64H304.873V130.756ZM310.081 133.136C310.081 132.557 309.964 132.053 309.731 131.624C309.498 131.195 309.18 130.868 308.779 130.644C308.387 130.42 307.953 130.308 307.477 130.308C307.01 130.308 306.576 130.425 306.175 130.658C305.783 130.882 305.466 131.213 305.223 131.652C304.99 132.081 304.873 132.581 304.873 133.15C304.873 133.729 304.99 134.237 305.223 134.676C305.466 135.105 305.783 135.437 306.175 135.67C306.576 135.894 307.01 136.006 307.477 136.006C307.953 136.006 308.387 135.894 308.779 135.67C309.18 135.437 309.498 135.105 309.731 134.676C309.964 134.237 310.081 133.724 310.081 133.136ZM312.234 133.136C312.234 132.352 312.393 131.666 312.71 131.078C313.027 130.481 313.461 130.019 314.012 129.692C314.572 129.365 315.193 129.202 315.874 129.202C316.546 129.202 317.129 129.347 317.624 129.636C318.119 129.925 318.487 130.289 318.73 130.728V129.328H320.018V137H318.73V135.572C318.478 136.02 318.1 136.393 317.596 136.692C317.101 136.981 316.523 137.126 315.86 137.126C315.179 137.126 314.563 136.958 314.012 136.622C313.461 136.286 313.027 135.815 312.71 135.208C312.393 134.601 312.234 133.911 312.234 133.136ZM318.73 133.15C318.73 132.571 318.613 132.067 318.38 131.638C318.147 131.209 317.829 130.882 317.428 130.658C317.036 130.425 316.602 130.308 316.126 130.308C315.65 130.308 315.216 130.42 314.824 130.644C314.432 130.868 314.119 131.195 313.886 131.624C313.653 132.053 313.536 132.557 313.536 133.136C313.536 133.724 313.653 134.237 313.886 134.676C314.119 135.105 314.432 135.437 314.824 135.67C315.216 135.894 315.65 136.006 316.126 136.006C316.602 136.006 317.036 135.894 317.428 135.67C317.829 135.437 318.147 135.105 318.38 134.676C318.613 134.237 318.73 133.729 318.73 133.15ZM328.429 129.328L323.809 140.612H322.493L324.005 136.916L320.911 129.328H322.325L324.733 135.544L327.113 129.328H328.429ZM328.883 133.136C328.883 132.352 329.042 131.666 329.359 131.078C329.677 130.481 330.111 130.019 330.661 129.692C331.221 129.365 331.842 129.202 332.523 129.202C333.195 129.202 333.779 129.347 334.273 129.636C334.768 129.925 335.137 130.289 335.379 130.728V129.328H336.667V137H335.379V135.572C335.127 136.02 334.749 136.393 334.245 136.692C333.751 136.981 333.172 137.126 332.509 137.126C331.828 137.126 331.212 136.958 330.661 136.622C330.111 136.286 329.677 135.815 329.359 135.208C329.042 134.601 328.883 133.911 328.883 133.136ZM335.379 133.15C335.379 132.571 335.263 132.067 335.029 131.638C334.796 131.209 334.479 130.882 334.077 130.658C333.685 130.425 333.251 130.308 332.775 130.308C332.299 130.308 331.865 130.42 331.473 130.644C331.081 130.868 330.769 131.195 330.535 131.624C330.302 132.053 330.185 132.557 330.185 133.136C330.185 133.724 330.302 134.237 330.535 134.676C330.769 135.105 331.081 135.437 331.473 135.67C331.865 135.894 332.299 136.006 332.775 136.006C333.251 136.006 333.685 135.894 334.077 135.67C334.479 135.437 334.796 135.105 335.029 134.676C335.263 134.237 335.379 133.729 335.379 133.15ZM339.744 130.574C339.968 130.135 340.286 129.795 340.696 129.552C341.116 129.309 341.625 129.188 342.222 129.188V130.504H341.886C340.458 130.504 339.744 131.279 339.744 132.828V137H338.47V129.328H339.744V130.574ZM347.999 126.64V137H346.725V126.64H347.999ZM356.625 129.328V137H355.351V135.866C355.108 136.258 354.767 136.566 354.329 136.79C353.899 137.005 353.423 137.112 352.901 137.112C352.303 137.112 351.767 136.991 351.291 136.748C350.815 136.496 350.437 136.123 350.157 135.628C349.886 135.133 349.751 134.531 349.751 133.822V129.328H351.011V133.654C351.011 134.41 351.202 134.993 351.585 135.404C351.967 135.805 352.49 136.006 353.153 136.006C353.834 136.006 354.371 135.796 354.763 135.376C355.155 134.956 355.351 134.345 355.351 133.542V129.328H356.625ZM362.164 129.188C363.097 129.188 363.853 129.473 364.432 130.042C365.011 130.602 365.3 131.414 365.3 132.478V137H364.04V132.66C364.04 131.895 363.849 131.311 363.466 130.91C363.083 130.499 362.561 130.294 361.898 130.294C361.226 130.294 360.689 130.504 360.288 130.924C359.896 131.344 359.7 131.955 359.7 132.758V137H358.426V129.328H359.7V130.42C359.952 130.028 360.293 129.725 360.722 129.51C361.161 129.295 361.641 129.188 362.164 129.188ZM366.555 133.136C366.555 132.352 366.714 131.666 367.031 131.078C367.348 130.481 367.782 130.019 368.333 129.692C368.893 129.365 369.514 129.202 370.195 129.202C370.867 129.202 371.45 129.347 371.945 129.636C372.44 129.925 372.808 130.289 373.051 130.728V129.328H374.339V137H373.051V135.572C372.799 136.02 372.421 136.393 371.917 136.692C371.422 136.981 370.844 137.126 370.181 137.126C369.5 137.126 368.884 136.958 368.333 136.622C367.782 136.286 367.348 135.815 367.031 135.208C366.714 134.601 366.555 133.911 366.555 133.136ZM373.051 133.15C373.051 132.571 372.934 132.067 372.701 131.638C372.468 131.209 372.15 130.882 371.749 130.658C371.357 130.425 370.923 130.308 370.447 130.308C369.971 130.308 369.537 130.42 369.145 130.644C368.753 130.868 368.44 131.195 368.207 131.624C367.974 132.053 367.857 132.557 367.857 133.136C367.857 133.724 367.974 134.237 368.207 134.676C368.44 135.105 368.753 135.437 369.145 135.67C369.537 135.894 369.971 136.006 370.447 136.006C370.923 136.006 371.357 135.894 371.749 135.67C372.15 135.437 372.468 135.105 372.701 134.676C372.934 134.237 373.051 133.729 373.051 133.15ZM378.858 137.126C378.27 137.126 377.743 137.028 377.276 136.832C376.809 136.627 376.441 136.347 376.17 135.992C375.899 135.628 375.75 135.213 375.722 134.746H377.038C377.075 135.129 377.253 135.441 377.57 135.684C377.897 135.927 378.321 136.048 378.844 136.048C379.329 136.048 379.712 135.941 379.992 135.726C380.272 135.511 380.412 135.241 380.412 134.914C380.412 134.578 380.263 134.331 379.964 134.172C379.665 134.004 379.203 133.841 378.578 133.682C378.009 133.533 377.542 133.383 377.178 133.234C376.823 133.075 376.515 132.847 376.254 132.548C376.002 132.24 375.876 131.839 375.876 131.344C375.876 130.952 375.993 130.593 376.226 130.266C376.459 129.939 376.791 129.683 377.22 129.496C377.649 129.3 378.139 129.202 378.69 129.202C379.539 129.202 380.225 129.417 380.748 129.846C381.271 130.275 381.551 130.863 381.588 131.61H380.314C380.286 131.209 380.123 130.887 379.824 130.644C379.535 130.401 379.143 130.28 378.648 130.28C378.191 130.28 377.827 130.378 377.556 130.574C377.285 130.77 377.15 131.027 377.15 131.344C377.15 131.596 377.229 131.806 377.388 131.974C377.556 132.133 377.761 132.263 378.004 132.366C378.256 132.459 378.601 132.567 379.04 132.688C379.591 132.837 380.039 132.987 380.384 133.136C380.729 133.276 381.023 133.491 381.266 133.78C381.518 134.069 381.649 134.447 381.658 134.914C381.658 135.334 381.541 135.712 381.308 136.048C381.075 136.384 380.743 136.65 380.314 136.846C379.894 137.033 379.409 137.126 378.858 137.126ZM164.424 141.64V152H163.15V141.64H164.424ZM165.77 148.136C165.77 147.352 165.928 146.666 166.246 146.078C166.563 145.481 166.997 145.019 167.548 144.692C168.108 144.365 168.728 144.202 169.41 144.202C170.082 144.202 170.665 144.347 171.16 144.636C171.654 144.925 172.023 145.289 172.266 145.728V144.328H173.554V152H172.266V150.572C172.014 151.02 171.636 151.393 171.132 151.692C170.637 151.981 170.058 152.126 169.396 152.126C168.714 152.126 168.098 151.958 167.548 151.622C166.997 151.286 166.563 150.815 166.246 150.208C165.928 149.601 165.77 148.911 165.77 148.136ZM172.266 148.15C172.266 147.571 172.149 147.067 171.916 146.638C171.682 146.209 171.365 145.882 170.964 145.658C170.572 145.425 170.138 145.308 169.662 145.308C169.186 145.308 168.752 145.42 168.36 145.644C167.968 145.868 167.655 146.195 167.422 146.624C167.188 147.053 167.072 147.557 167.072 148.136C167.072 148.724 167.188 149.237 167.422 149.676C167.655 150.105 167.968 150.437 168.36 150.67C168.752 150.894 169.186 151.006 169.662 151.006C170.138 151.006 170.572 150.894 170.964 150.67C171.365 150.437 171.682 150.105 171.916 149.676C172.149 149.237 172.266 148.729 172.266 148.15ZM179.095 144.188C180.028 144.188 180.784 144.473 181.363 145.042C181.941 145.602 182.231 146.414 182.231 147.478V152H180.971V147.66C180.971 146.895 180.779 146.311 180.397 145.91C180.014 145.499 179.491 145.294 178.829 145.294C178.157 145.294 177.62 145.504 177.219 145.924C176.827 146.344 176.631 146.955 176.631 147.758V152H175.357V144.328H176.631V145.42C176.883 145.028 177.223 144.725 177.653 144.51C178.091 144.295 178.572 144.188 179.095 144.188ZM187.126 144.202C187.788 144.202 188.367 144.347 188.862 144.636C189.366 144.925 189.739 145.289 189.982 145.728V144.328H191.27V152.168C191.27 152.868 191.12 153.489 190.822 154.03C190.523 154.581 190.094 155.01 189.534 155.318C188.983 155.626 188.339 155.78 187.602 155.78C186.594 155.78 185.754 155.542 185.082 155.066C184.41 154.59 184.013 153.941 183.892 153.12H185.152C185.292 153.587 185.581 153.96 186.02 154.24C186.458 154.529 186.986 154.674 187.602 154.674C188.302 154.674 188.871 154.455 189.31 154.016C189.758 153.577 189.982 152.961 189.982 152.168V150.558C189.73 151.006 189.356 151.379 188.862 151.678C188.367 151.977 187.788 152.126 187.126 152.126C186.444 152.126 185.824 151.958 185.264 151.622C184.713 151.286 184.279 150.815 183.962 150.208C183.644 149.601 183.486 148.911 183.486 148.136C183.486 147.352 183.644 146.666 183.962 146.078C184.279 145.481 184.713 145.019 185.264 144.692C185.824 144.365 186.444 144.202 187.126 144.202ZM189.982 148.15C189.982 147.571 189.865 147.067 189.632 146.638C189.398 146.209 189.081 145.882 188.68 145.658C188.288 145.425 187.854 145.308 187.378 145.308C186.902 145.308 186.468 145.42 186.076 145.644C185.684 145.868 185.371 146.195 185.138 146.624C184.904 147.053 184.788 147.557 184.788 148.136C184.788 148.724 184.904 149.237 185.138 149.676C185.371 150.105 185.684 150.437 186.076 150.67C186.468 150.894 186.902 151.006 187.378 151.006C187.854 151.006 188.288 150.894 188.68 150.67C189.081 150.437 189.398 150.105 189.632 149.676C189.865 149.237 189.982 148.729 189.982 148.15ZM195.789 152.126C195.201 152.126 194.673 152.028 194.207 151.832C193.74 151.627 193.371 151.347 193.101 150.992C192.83 150.628 192.681 150.213 192.653 149.746H193.969C194.006 150.129 194.183 150.441 194.501 150.684C194.827 150.927 195.252 151.048 195.775 151.048C196.26 151.048 196.643 150.941 196.923 150.726C197.203 150.511 197.343 150.241 197.343 149.914C197.343 149.578 197.193 149.331 196.895 149.172C196.596 149.004 196.134 148.841 195.509 148.682C194.939 148.533 194.473 148.383 194.109 148.234C193.754 148.075 193.446 147.847 193.185 147.548C192.933 147.24 192.807 146.839 192.807 146.344C192.807 145.952 192.923 145.593 193.157 145.266C193.39 144.939 193.721 144.683 194.151 144.496C194.58 144.3 195.07 144.202 195.621 144.202C196.47 144.202 197.156 144.417 197.679 144.846C198.201 145.275 198.481 145.863 198.519 146.61H197.245C197.217 146.209 197.053 145.887 196.755 145.644C196.465 145.401 196.073 145.28 195.579 145.28C195.121 145.28 194.757 145.378 194.487 145.574C194.216 145.77 194.081 146.027 194.081 146.344C194.081 146.596 194.16 146.806 194.319 146.974C194.487 147.133 194.692 147.263 194.935 147.366C195.187 147.459 195.532 147.567 195.971 147.688C196.521 147.837 196.969 147.987 197.315 148.136C197.66 148.276 197.954 148.491 198.197 148.78C198.449 149.069 198.579 149.447 198.589 149.914C198.589 150.334 198.472 150.712 198.239 151.048C198.005 151.384 197.674 151.65 197.245 151.846C196.825 152.033 196.339 152.126 195.789 152.126ZM206.841 144.328V152H205.567V150.866C205.325 151.258 204.984 151.566 204.545 151.79C204.116 152.005 203.64 152.112 203.117 152.112C202.52 152.112 201.983 151.991 201.507 151.748C201.031 151.496 200.653 151.123 200.373 150.628C200.103 150.133 199.967 149.531 199.967 148.822V144.328H201.227V148.654C201.227 149.41 201.419 149.993 201.801 150.404C202.184 150.805 202.707 151.006 203.369 151.006C204.051 151.006 204.587 150.796 204.979 150.376C205.371 149.956 205.567 149.345 205.567 148.542V144.328H206.841ZM212.38 144.188C213.314 144.188 214.07 144.473 214.648 145.042C215.227 145.602 215.516 146.414 215.516 147.478V152H214.256V147.66C214.256 146.895 214.065 146.311 213.682 145.91C213.3 145.499 212.777 145.294 212.114 145.294C211.442 145.294 210.906 145.504 210.504 145.924C210.112 146.344 209.916 146.955 209.916 147.758V152H208.642V144.328H209.916V145.42C210.168 145.028 210.509 144.725 210.938 144.51C211.377 144.295 211.858 144.188 212.38 144.188ZM220.411 144.202C221.074 144.202 221.653 144.347 222.147 144.636C222.651 144.925 223.025 145.289 223.267 145.728V144.328H224.555V152.168C224.555 152.868 224.406 153.489 224.107 154.03C223.809 154.581 223.379 155.01 222.819 155.318C222.269 155.626 221.625 155.78 220.887 155.78C219.879 155.78 219.039 155.542 218.367 155.066C217.695 154.59 217.299 153.941 217.177 153.12H218.437C218.577 153.587 218.867 153.96 219.305 154.24C219.744 154.529 220.271 154.674 220.887 154.674C221.587 154.674 222.157 154.455 222.595 154.016C223.043 153.577 223.267 152.961 223.267 152.168V150.558C223.015 151.006 222.642 151.379 222.147 151.678C221.653 151.977 221.074 152.126 220.411 152.126C219.73 152.126 219.109 151.958 218.549 151.622C217.999 151.286 217.565 150.815 217.247 150.208C216.93 149.601 216.771 148.911 216.771 148.136C216.771 147.352 216.93 146.666 217.247 146.078C217.565 145.481 217.999 145.019 218.549 144.692C219.109 144.365 219.73 144.202 220.411 144.202ZM223.267 148.15C223.267 147.571 223.151 147.067 222.917 146.638C222.684 146.209 222.367 145.882 221.965 145.658C221.573 145.425 221.139 145.308 220.663 145.308C220.187 145.308 219.753 145.42 219.361 145.644C218.969 145.868 218.657 146.195 218.423 146.624C218.19 147.053 218.073 147.557 218.073 148.136C218.073 148.724 218.19 149.237 218.423 149.676C218.657 150.105 218.969 150.437 219.361 150.67C219.753 150.894 220.187 151.006 220.663 151.006C221.139 151.006 221.573 150.894 221.965 150.67C222.367 150.437 222.684 150.105 222.917 149.676C223.151 149.237 223.267 148.729 223.267 148.15ZM227.674 150.236L226.106 154.002H225.252L226.274 150.236H227.674ZM231.69 148.136C231.69 147.352 231.849 146.666 232.166 146.078C232.483 145.481 232.917 145.019 233.468 144.692C234.028 144.365 234.649 144.202 235.33 144.202C236.002 144.202 236.585 144.347 237.08 144.636C237.575 144.925 237.943 145.289 238.186 145.728V144.328H239.474V152H238.186V150.572C237.934 151.02 237.556 151.393 237.052 151.692C236.557 151.981 235.979 152.126 235.316 152.126C234.635 152.126 234.019 151.958 233.468 151.622C232.917 151.286 232.483 150.815 232.166 150.208C231.849 149.601 231.69 148.911 231.69 148.136ZM238.186 148.15C238.186 147.571 238.069 147.067 237.836 146.638C237.603 146.209 237.285 145.882 236.884 145.658C236.492 145.425 236.058 145.308 235.582 145.308C235.106 145.308 234.672 145.42 234.28 145.644C233.888 145.868 233.575 146.195 233.342 146.624C233.109 147.053 232.992 147.557 232.992 148.136C232.992 148.724 233.109 149.237 233.342 149.676C233.575 150.105 233.888 150.437 234.28 150.67C234.672 150.894 235.106 151.006 235.582 151.006C236.058 151.006 236.492 150.894 236.884 150.67C237.285 150.437 237.603 150.105 237.836 149.676C238.069 149.237 238.186 148.729 238.186 148.15ZM245.561 152L242.551 148.612V152H241.277V141.64H242.551V147.73L245.505 144.328H247.283L243.671 148.15L247.297 152H245.561ZM247.656 148.136C247.656 147.352 247.815 146.666 248.132 146.078C248.449 145.481 248.883 145.019 249.434 144.692C249.994 144.365 250.615 144.202 251.296 144.202C251.968 144.202 252.551 144.347 253.046 144.636C253.541 144.925 253.909 145.289 254.152 145.728V144.328H255.44V152H254.152V150.572C253.9 151.02 253.522 151.393 253.018 151.692C252.523 151.981 251.945 152.126 251.282 152.126C250.601 152.126 249.985 151.958 249.434 151.622C248.883 151.286 248.449 150.815 248.132 150.208C247.815 149.601 247.656 148.911 247.656 148.136ZM254.152 148.15C254.152 147.571 254.035 147.067 253.802 146.638C253.569 146.209 253.251 145.882 252.85 145.658C252.458 145.425 252.024 145.308 251.548 145.308C251.072 145.308 250.638 145.42 250.246 145.644C249.854 145.868 249.541 146.195 249.308 146.624C249.075 147.053 248.958 147.557 248.958 148.136C248.958 148.724 249.075 149.237 249.308 149.676C249.541 150.105 249.854 150.437 250.246 150.67C250.638 150.894 251.072 151.006 251.548 151.006C252.024 151.006 252.458 150.894 252.85 150.67C253.251 150.437 253.569 150.105 253.802 149.676C254.035 149.237 254.152 148.729 254.152 148.15ZM260.981 144.188C261.914 144.188 262.67 144.473 263.249 145.042C263.828 145.602 264.117 146.414 264.117 147.478V152H262.857V147.66C262.857 146.895 262.666 146.311 262.283 145.91C261.9 145.499 261.378 145.294 260.715 145.294C260.043 145.294 259.506 145.504 259.105 145.924C258.713 146.344 258.517 146.955 258.517 147.758V152H257.243V144.328H258.517V145.42C258.769 145.028 259.11 144.725 259.539 144.51C259.978 144.295 260.458 144.188 260.981 144.188ZM278.457 144.188C279.054 144.188 279.586 144.314 280.053 144.566C280.519 144.809 280.888 145.177 281.159 145.672C281.429 146.167 281.565 146.769 281.565 147.478V152H280.305V147.66C280.305 146.895 280.113 146.311 279.731 145.91C279.357 145.499 278.849 145.294 278.205 145.294C277.542 145.294 277.015 145.509 276.623 145.938C276.231 146.358 276.035 146.969 276.035 147.772V152H274.775V147.66C274.775 146.895 274.583 146.311 274.201 145.91C273.827 145.499 273.319 145.294 272.675 145.294C272.012 145.294 271.485 145.509 271.093 145.938C270.701 146.358 270.505 146.969 270.505 147.772V152H269.231V144.328H270.505V145.434C270.757 145.033 271.093 144.725 271.513 144.51C271.942 144.295 272.413 144.188 272.927 144.188C273.571 144.188 274.14 144.333 274.635 144.622C275.129 144.911 275.498 145.336 275.741 145.896C275.955 145.355 276.31 144.935 276.805 144.636C277.299 144.337 277.85 144.188 278.457 144.188ZM290.304 147.87C290.304 148.113 290.29 148.369 290.262 148.64H284.13C284.177 149.396 284.434 149.989 284.9 150.418C285.376 150.838 285.95 151.048 286.622 151.048C287.173 151.048 287.63 150.922 287.994 150.67C288.368 150.409 288.629 150.063 288.778 149.634H290.15C289.945 150.371 289.534 150.973 288.918 151.44C288.302 151.897 287.537 152.126 286.622 152.126C285.894 152.126 285.241 151.963 284.662 151.636C284.093 151.309 283.645 150.847 283.318 150.25C282.992 149.643 282.828 148.943 282.828 148.15C282.828 147.357 282.987 146.661 283.304 146.064C283.622 145.467 284.065 145.009 284.634 144.692C285.213 144.365 285.876 144.202 286.622 144.202C287.35 144.202 287.994 144.361 288.554 144.678C289.114 144.995 289.544 145.434 289.842 145.994C290.15 146.545 290.304 147.17 290.304 147.87ZM288.988 147.604C288.988 147.119 288.881 146.703 288.666 146.358C288.452 146.003 288.158 145.737 287.784 145.56C287.42 145.373 287.014 145.28 286.566 145.28C285.922 145.28 285.372 145.485 284.914 145.896C284.466 146.307 284.21 146.876 284.144 147.604H288.988ZM295.374 144.188C296.307 144.188 297.063 144.473 297.642 145.042C298.221 145.602 298.51 146.414 298.51 147.478V152H297.25V147.66C297.25 146.895 297.059 146.311 296.676 145.91C296.293 145.499 295.771 145.294 295.108 145.294C294.436 145.294 293.899 145.504 293.498 145.924C293.106 146.344 292.91 146.955 292.91 147.758V152H291.636V144.328H292.91V145.42C293.162 145.028 293.503 144.725 293.932 144.51C294.371 144.295 294.851 144.188 295.374 144.188ZM299.765 148.136C299.765 147.352 299.924 146.666 300.241 146.078C300.558 145.481 300.992 145.019 301.543 144.692C302.103 144.365 302.728 144.202 303.419 144.202C304.016 144.202 304.572 144.342 305.085 144.622C305.598 144.893 305.99 145.252 306.261 145.7V141.64H307.549V152H306.261V150.558C306.009 151.015 305.636 151.393 305.141 151.692C304.646 151.981 304.068 152.126 303.405 152.126C302.724 152.126 302.103 151.958 301.543 151.622C300.992 151.286 300.558 150.815 300.241 150.208C299.924 149.601 299.765 148.911 299.765 148.136ZM306.261 148.15C306.261 147.571 306.144 147.067 305.911 146.638C305.678 146.209 305.36 145.882 304.959 145.658C304.567 145.425 304.133 145.308 303.657 145.308C303.181 145.308 302.747 145.42 302.355 145.644C301.963 145.868 301.65 146.195 301.417 146.624C301.184 147.053 301.067 147.557 301.067 148.136C301.067 148.724 301.184 149.237 301.417 149.676C301.65 150.105 301.963 150.437 302.355 150.67C302.747 150.894 303.181 151.006 303.657 151.006C304.133 151.006 304.567 150.894 304.959 150.67C305.36 150.437 305.678 150.105 305.911 149.676C306.144 149.237 306.261 148.729 306.261 148.15ZM308.876 148.136C308.876 147.352 309.035 146.666 309.352 146.078C309.669 145.481 310.103 145.019 310.654 144.692C311.214 144.365 311.835 144.202 312.516 144.202C313.188 144.202 313.771 144.347 314.266 144.636C314.761 144.925 315.129 145.289 315.372 145.728V144.328H316.66V152H315.372V150.572C315.12 151.02 314.742 151.393 314.238 151.692C313.743 151.981 313.165 152.126 312.502 152.126C311.821 152.126 311.205 151.958 310.654 151.622C310.103 151.286 309.669 150.815 309.352 150.208C309.035 149.601 308.876 148.911 308.876 148.136ZM315.372 148.15C315.372 147.571 315.255 147.067 315.022 146.638C314.789 146.209 314.471 145.882 314.07 145.658C313.678 145.425 313.244 145.308 312.768 145.308C312.292 145.308 311.858 145.42 311.466 145.644C311.074 145.868 310.761 146.195 310.528 146.624C310.295 147.053 310.178 147.557 310.178 148.136C310.178 148.724 310.295 149.237 310.528 149.676C310.761 150.105 311.074 150.437 311.466 150.67C311.858 150.894 312.292 151.006 312.768 151.006C313.244 151.006 313.678 150.894 314.07 150.67C314.471 150.437 314.789 150.105 315.022 149.676C315.255 149.237 315.372 148.729 315.372 148.15ZM319.737 145.742C319.989 145.303 320.362 144.939 320.857 144.65C321.361 144.351 321.944 144.202 322.607 144.202C323.288 144.202 323.904 144.365 324.455 144.692C325.015 145.019 325.454 145.481 325.771 146.078C326.088 146.666 326.247 147.352 326.247 148.136C326.247 148.911 326.088 149.601 325.771 150.208C325.454 150.815 325.015 151.286 324.455 151.622C323.904 151.958 323.288 152.126 322.607 152.126C321.954 152.126 321.375 151.981 320.871 151.692C320.376 151.393 319.998 151.025 319.737 150.586V155.64H318.463V144.328H319.737V145.742ZM324.945 148.136C324.945 147.557 324.828 147.053 324.595 146.624C324.362 146.195 324.044 145.868 323.643 145.644C323.251 145.42 322.817 145.308 322.341 145.308C321.874 145.308 321.44 145.425 321.039 145.658C320.647 145.882 320.33 146.213 320.087 146.652C319.854 147.081 319.737 147.581 319.737 148.15C319.737 148.729 319.854 149.237 320.087 149.676C320.33 150.105 320.647 150.437 321.039 150.67C321.44 150.894 321.874 151.006 322.341 151.006C322.817 151.006 323.251 150.894 323.643 150.67C324.044 150.437 324.362 150.105 324.595 149.676C324.828 149.237 324.945 148.724 324.945 148.136ZM327.098 148.136C327.098 147.352 327.257 146.666 327.574 146.078C327.891 145.481 328.325 145.019 328.876 144.692C329.436 144.365 330.057 144.202 330.738 144.202C331.41 144.202 331.993 144.347 332.488 144.636C332.983 144.925 333.351 145.289 333.594 145.728V144.328H334.882V152H333.594V150.572C333.342 151.02 332.964 151.393 332.46 151.692C331.965 151.981 331.387 152.126 330.724 152.126C330.043 152.126 329.427 151.958 328.876 151.622C328.325 151.286 327.891 150.815 327.574 150.208C327.257 149.601 327.098 148.911 327.098 148.136ZM333.594 148.15C333.594 147.571 333.477 147.067 333.244 146.638C333.011 146.209 332.693 145.882 332.292 145.658C331.9 145.425 331.466 145.308 330.99 145.308C330.514 145.308 330.08 145.42 329.688 145.644C329.296 145.868 328.983 146.195 328.75 146.624C328.517 147.053 328.4 147.557 328.4 148.136C328.4 148.724 328.517 149.237 328.75 149.676C328.983 150.105 329.296 150.437 329.688 150.67C330.08 150.894 330.514 151.006 330.99 151.006C331.466 151.006 331.9 150.894 332.292 150.67C332.693 150.437 333.011 150.105 333.244 149.676C333.477 149.237 333.594 148.729 333.594 148.15ZM338.239 145.378V149.9C338.239 150.273 338.318 150.539 338.477 150.698C338.636 150.847 338.911 150.922 339.303 150.922H340.241V152H339.093C338.384 152 337.852 151.837 337.497 151.51C337.142 151.183 336.965 150.647 336.965 149.9V145.378H335.971V144.328H336.965V142.396H338.239V144.328H340.241V145.378H338.239ZM345.718 152L342.708 148.612V152H341.434V141.64H342.708V147.73L345.662 144.328H347.44L343.828 148.15L347.454 152H345.718ZM347.814 148.136C347.814 147.352 347.972 146.666 348.29 146.078C348.607 145.481 349.041 145.019 349.592 144.692C350.152 144.365 350.772 144.202 351.454 144.202C352.126 144.202 352.709 144.347 353.204 144.636C353.698 144.925 354.067 145.289 354.31 145.728V144.328H355.598V152H354.31V150.572C354.058 151.02 353.68 151.393 353.176 151.692C352.681 151.981 352.102 152.126 351.44 152.126C350.758 152.126 350.142 151.958 349.592 151.622C349.041 151.286 348.607 150.815 348.29 150.208C347.972 149.601 347.814 148.911 347.814 148.136ZM354.31 148.15C354.31 147.571 354.193 147.067 353.96 146.638C353.726 146.209 353.409 145.882 353.008 145.658C352.616 145.425 352.182 145.308 351.706 145.308C351.23 145.308 350.796 145.42 350.404 145.644C350.012 145.868 349.699 146.195 349.466 146.624C349.232 147.053 349.116 147.557 349.116 148.136C349.116 148.724 349.232 149.237 349.466 149.676C349.699 150.105 350.012 150.437 350.404 150.67C350.796 150.894 351.23 151.006 351.706 151.006C352.182 151.006 352.616 150.894 353.008 150.67C353.409 150.437 353.726 150.105 353.96 149.676C354.193 149.237 354.31 148.729 354.31 148.15ZM361.138 144.188C362.072 144.188 362.828 144.473 363.406 145.042C363.985 145.602 364.274 146.414 364.274 147.478V152H363.014V147.66C363.014 146.895 362.823 146.311 362.44 145.91C362.058 145.499 361.535 145.294 360.872 145.294C360.2 145.294 359.664 145.504 359.262 145.924C358.87 146.344 358.674 146.955 358.674 147.758V152H357.4V144.328H358.674V145.42C358.926 145.028 359.267 144.725 359.696 144.51C360.135 144.295 360.616 144.188 361.138 144.188ZM141.315 160.742C141.567 160.303 141.94 159.939 142.435 159.65C142.939 159.351 143.522 159.202 144.185 159.202C144.866 159.202 145.482 159.365 146.033 159.692C146.593 160.019 147.032 160.481 147.349 161.078C147.666 161.666 147.825 162.352 147.825 163.136C147.825 163.911 147.666 164.601 147.349 165.208C147.032 165.815 146.593 166.286 146.033 166.622C145.482 166.958 144.866 167.126 144.185 167.126C143.532 167.126 142.953 166.981 142.449 166.692C141.954 166.393 141.576 166.025 141.315 165.586V170.64H140.041V159.328H141.315V160.742ZM146.523 163.136C146.523 162.557 146.406 162.053 146.173 161.624C145.94 161.195 145.622 160.868 145.221 160.644C144.829 160.42 144.395 160.308 143.919 160.308C143.452 160.308 143.018 160.425 142.617 160.658C142.225 160.882 141.908 161.213 141.665 161.652C141.432 162.081 141.315 162.581 141.315 163.15C141.315 163.729 141.432 164.237 141.665 164.676C141.908 165.105 142.225 165.437 142.617 165.67C143.018 165.894 143.452 166.006 143.919 166.006C144.395 166.006 144.829 165.894 145.221 165.67C145.622 165.437 145.94 165.105 146.173 164.676C146.406 164.237 146.523 163.724 146.523 163.136ZM152.498 167.126C151.779 167.126 151.126 166.963 150.538 166.636C149.959 166.309 149.502 165.847 149.166 165.25C148.839 164.643 148.676 163.943 148.676 163.15C148.676 162.366 148.844 161.675 149.18 161.078C149.525 160.471 149.992 160.009 150.58 159.692C151.168 159.365 151.826 159.202 152.554 159.202C153.282 159.202 153.94 159.365 154.528 159.692C155.116 160.009 155.578 160.467 155.914 161.064C156.259 161.661 156.432 162.357 156.432 163.15C156.432 163.943 156.254 164.643 155.9 165.25C155.554 165.847 155.083 166.309 154.486 166.636C153.888 166.963 153.226 167.126 152.498 167.126ZM152.498 166.006C152.955 166.006 153.384 165.899 153.786 165.684C154.187 165.469 154.509 165.147 154.752 164.718C155.004 164.289 155.13 163.766 155.13 163.15C155.13 162.534 155.008 162.011 154.766 161.582C154.523 161.153 154.206 160.835 153.814 160.63C153.422 160.415 152.997 160.308 152.54 160.308C152.073 160.308 151.644 160.415 151.252 160.63C150.869 160.835 150.561 161.153 150.328 161.582C150.094 162.011 149.978 162.534 149.978 163.15C149.978 163.775 150.09 164.303 150.314 164.732C150.547 165.161 150.855 165.483 151.238 165.698C151.62 165.903 152.04 166.006 152.498 166.006ZM159.311 160.378V164.9C159.311 165.273 159.39 165.539 159.549 165.698C159.708 165.847 159.983 165.922 160.375 165.922H161.313V167H160.165C159.456 167 158.924 166.837 158.569 166.51C158.214 166.183 158.037 165.647 158.037 164.9V160.378H157.043V159.328H158.037V157.396H159.311V159.328H161.313V160.378H159.311ZM165.853 167.126C165.134 167.126 164.481 166.963 163.893 166.636C163.314 166.309 162.857 165.847 162.521 165.25C162.194 164.643 162.031 163.943 162.031 163.15C162.031 162.366 162.199 161.675 162.535 161.078C162.88 160.471 163.347 160.009 163.935 159.692C164.523 159.365 165.181 159.202 165.909 159.202C166.637 159.202 167.295 159.365 167.883 159.692C168.471 160.009 168.933 160.467 169.269 161.064C169.614 161.661 169.787 162.357 169.787 163.15C169.787 163.943 169.609 164.643 169.255 165.25C168.909 165.847 168.438 166.309 167.841 166.636C167.243 166.963 166.581 167.126 165.853 167.126ZM165.853 166.006C166.31 166.006 166.739 165.899 167.141 165.684C167.542 165.469 167.864 165.147 168.107 164.718C168.359 164.289 168.485 163.766 168.485 163.15C168.485 162.534 168.363 162.011 168.121 161.582C167.878 161.153 167.561 160.835 167.169 160.63C166.777 160.415 166.352 160.308 165.895 160.308C165.428 160.308 164.999 160.415 164.607 160.63C164.224 160.835 163.916 161.153 163.683 161.582C163.449 162.011 163.333 162.534 163.333 163.15C163.333 163.775 163.445 164.303 163.669 164.732C163.902 165.161 164.21 165.483 164.593 165.698C164.975 165.903 165.395 166.006 165.853 166.006ZM174.85 159.188C175.783 159.188 176.539 159.473 177.118 160.042C177.696 160.602 177.986 161.414 177.986 162.478V167H176.726V162.66C176.726 161.895 176.534 161.311 176.152 160.91C175.769 160.499 175.246 160.294 174.584 160.294C173.912 160.294 173.375 160.504 172.974 160.924C172.582 161.344 172.386 161.955 172.386 162.758V167H171.112V159.328H172.386V160.42C172.638 160.028 172.978 159.725 173.408 159.51C173.846 159.295 174.327 159.188 174.85 159.188ZM182.881 159.202C183.543 159.202 184.122 159.347 184.617 159.636C185.121 159.925 185.494 160.289 185.737 160.728V159.328H187.025V167.168C187.025 167.868 186.875 168.489 186.577 169.03C186.278 169.581 185.849 170.01 185.289 170.318C184.738 170.626 184.094 170.78 183.357 170.78C182.349 170.78 181.509 170.542 180.837 170.066C180.165 169.59 179.768 168.941 179.647 168.12H180.907C181.047 168.587 181.336 168.96 181.775 169.24C182.213 169.529 182.741 169.674 183.357 169.674C184.057 169.674 184.626 169.455 185.065 169.016C185.513 168.577 185.737 167.961 185.737 167.168V165.558C185.485 166.006 185.111 166.379 184.617 166.678C184.122 166.977 183.543 167.126 182.881 167.126C182.199 167.126 181.579 166.958 181.019 166.622C180.468 166.286 180.034 165.815 179.717 165.208C179.399 164.601 179.241 163.911 179.241 163.136C179.241 162.352 179.399 161.666 179.717 161.078C180.034 160.481 180.468 160.019 181.019 159.692C181.579 159.365 182.199 159.202 182.881 159.202ZM185.737 163.15C185.737 162.571 185.62 162.067 185.387 161.638C185.153 161.209 184.836 160.882 184.435 160.658C184.043 160.425 183.609 160.308 183.133 160.308C182.657 160.308 182.223 160.42 181.831 160.644C181.439 160.868 181.126 161.195 180.893 161.624C180.659 162.053 180.543 162.557 180.543 163.136C180.543 163.724 180.659 164.237 180.893 164.676C181.126 165.105 181.439 165.437 181.831 165.67C182.223 165.894 182.657 166.006 183.133 166.006C183.609 166.006 184.043 165.894 184.435 165.67C184.836 165.437 185.153 165.105 185.387 164.676C185.62 164.237 185.737 163.729 185.737 163.15ZM188.352 163.136C188.352 162.352 188.51 161.666 188.828 161.078C189.145 160.481 189.579 160.019 190.13 159.692C190.69 159.365 191.31 159.202 191.992 159.202C192.664 159.202 193.247 159.347 193.742 159.636C194.236 159.925 194.605 160.289 194.848 160.728V159.328H196.136V167H194.848V165.572C194.596 166.02 194.218 166.393 193.714 166.692C193.219 166.981 192.64 167.126 191.978 167.126C191.296 167.126 190.68 166.958 190.13 166.622C189.579 166.286 189.145 165.815 188.828 165.208C188.51 164.601 188.352 163.911 188.352 163.136ZM194.848 163.15C194.848 162.571 194.731 162.067 194.498 161.638C194.264 161.209 193.947 160.882 193.546 160.658C193.154 160.425 192.72 160.308 192.244 160.308C191.768 160.308 191.334 160.42 190.942 160.644C190.55 160.868 190.237 161.195 190.004 161.624C189.77 162.053 189.654 162.557 189.654 163.136C189.654 163.724 189.77 164.237 190.004 164.676C190.237 165.105 190.55 165.437 190.942 165.67C191.334 165.894 191.768 166.006 192.244 166.006C192.72 166.006 193.154 165.894 193.546 165.67C193.947 165.437 194.264 165.105 194.498 164.676C194.731 164.237 194.848 163.729 194.848 163.15ZM201.677 159.188C202.61 159.188 203.366 159.473 203.945 160.042C204.523 160.602 204.813 161.414 204.813 162.478V167H203.553V162.66C203.553 161.895 203.361 161.311 202.979 160.91C202.596 160.499 202.073 160.294 201.411 160.294C200.739 160.294 200.202 160.504 199.801 160.924C199.409 161.344 199.213 161.955 199.213 162.758V167H197.939V159.328H199.213V160.42C199.465 160.028 199.805 159.725 200.235 159.51C200.673 159.295 201.154 159.188 201.677 159.188ZM213.734 159.188C214.313 159.188 214.835 159.314 215.302 159.566C215.769 159.809 216.133 160.177 216.394 160.672C216.665 161.167 216.8 161.769 216.8 162.478V167H215.54V162.66C215.54 161.895 215.349 161.311 214.966 160.91C214.583 160.499 214.061 160.294 213.398 160.294C212.726 160.294 212.189 160.504 211.788 160.924C211.396 161.344 211.2 161.955 211.2 162.758V167H209.926V156.64H211.2V160.42C211.452 160.028 211.797 159.725 212.236 159.51C212.684 159.295 213.183 159.188 213.734 159.188ZM218.055 163.136C218.055 162.352 218.214 161.666 218.531 161.078C218.848 160.481 219.282 160.019 219.833 159.692C220.393 159.365 221.014 159.202 221.695 159.202C222.367 159.202 222.95 159.347 223.445 159.636C223.94 159.925 224.308 160.289 224.551 160.728V159.328H225.839V167H224.551V165.572C224.299 166.02 223.921 166.393 223.417 166.692C222.922 166.981 222.344 167.126 221.681 167.126C221 167.126 220.384 166.958 219.833 166.622C219.282 166.286 218.848 165.815 218.531 165.208C218.214 164.601 218.055 163.911 218.055 163.136ZM224.551 163.15C224.551 162.571 224.434 162.067 224.201 161.638C223.968 161.209 223.65 160.882 223.249 160.658C222.857 160.425 222.423 160.308 221.947 160.308C221.471 160.308 221.037 160.42 220.645 160.644C220.253 160.868 219.94 161.195 219.707 161.624C219.474 162.053 219.357 162.557 219.357 163.136C219.357 163.724 219.474 164.237 219.707 164.676C219.94 165.105 220.253 165.437 220.645 165.67C221.037 165.894 221.471 166.006 221.947 166.006C222.423 166.006 222.857 165.894 223.249 165.67C223.65 165.437 223.968 165.105 224.201 164.676C224.434 164.237 224.551 163.729 224.551 163.15ZM228.916 160.574C229.14 160.135 229.457 159.795 229.868 159.552C230.288 159.309 230.797 159.188 231.394 159.188V160.504H231.058C229.63 160.504 228.916 161.279 228.916 162.828V167H227.642V159.328H228.916V160.574ZM235.679 159.202C236.341 159.202 236.92 159.347 237.415 159.636C237.919 159.925 238.292 160.289 238.535 160.728V159.328H239.823V167.168C239.823 167.868 239.673 168.489 239.375 169.03C239.076 169.581 238.647 170.01 238.087 170.318C237.536 170.626 236.892 170.78 236.155 170.78C235.147 170.78 234.307 170.542 233.635 170.066C232.963 169.59 232.566 168.941 232.445 168.12H233.705C233.845 168.587 234.134 168.96 234.573 169.24C235.011 169.529 235.539 169.674 236.155 169.674C236.855 169.674 237.424 169.455 237.863 169.016C238.311 168.577 238.535 167.961 238.535 167.168V165.558C238.283 166.006 237.909 166.379 237.415 166.678C236.92 166.977 236.341 167.126 235.679 167.126C234.997 167.126 234.377 166.958 233.817 166.622C233.266 166.286 232.832 165.815 232.515 165.208C232.197 164.601 232.039 163.911 232.039 163.136C232.039 162.352 232.197 161.666 232.515 161.078C232.832 160.481 233.266 160.019 233.817 159.692C234.377 159.365 234.997 159.202 235.679 159.202ZM238.535 163.15C238.535 162.571 238.418 162.067 238.185 161.638C237.951 161.209 237.634 160.882 237.233 160.658C236.841 160.425 236.407 160.308 235.931 160.308C235.455 160.308 235.021 160.42 234.629 160.644C234.237 160.868 233.924 161.195 233.691 161.624C233.457 162.053 233.341 162.557 233.341 163.136C233.341 163.724 233.457 164.237 233.691 164.676C233.924 165.105 234.237 165.437 234.629 165.67C235.021 165.894 235.455 166.006 235.931 166.006C236.407 166.006 236.841 165.894 237.233 165.67C237.634 165.437 237.951 165.105 238.185 164.676C238.418 164.237 238.535 163.729 238.535 163.15ZM241.15 163.136C241.15 162.352 241.308 161.666 241.626 161.078C241.943 160.481 242.377 160.019 242.928 159.692C243.488 159.365 244.108 159.202 244.79 159.202C245.462 159.202 246.045 159.347 246.54 159.636C247.034 159.925 247.403 160.289 247.646 160.728V159.328H248.934V167H247.646V165.572C247.394 166.02 247.016 166.393 246.512 166.692C246.017 166.981 245.438 167.126 244.776 167.126C244.094 167.126 243.478 166.958 242.928 166.622C242.377 166.286 241.943 165.815 241.626 165.208C241.308 164.601 241.15 163.911 241.15 163.136ZM247.646 163.15C247.646 162.571 247.529 162.067 247.296 161.638C247.062 161.209 246.745 160.882 246.344 160.658C245.952 160.425 245.518 160.308 245.042 160.308C244.566 160.308 244.132 160.42 243.74 160.644C243.348 160.868 243.035 161.195 242.802 161.624C242.568 162.053 242.452 162.557 242.452 163.136C242.452 163.724 242.568 164.237 242.802 164.676C243.035 165.105 243.348 165.437 243.74 165.67C244.132 165.894 244.566 166.006 245.042 166.006C245.518 166.006 245.952 165.894 246.344 165.67C246.745 165.437 247.062 165.105 247.296 164.676C247.529 164.237 247.646 163.729 247.646 163.15ZM256.835 167.126C256.247 167.126 255.72 167.028 255.253 166.832C254.786 166.627 254.418 166.347 254.147 165.992C253.876 165.628 253.727 165.213 253.699 164.746H255.015C255.052 165.129 255.23 165.441 255.547 165.684C255.874 165.927 256.298 166.048 256.821 166.048C257.306 166.048 257.689 165.941 257.969 165.726C258.249 165.511 258.389 165.241 258.389 164.914C258.389 164.578 258.24 164.331 257.941 164.172C257.642 164.004 257.18 163.841 256.555 163.682C255.986 163.533 255.519 163.383 255.155 163.234C254.8 163.075 254.492 162.847 254.231 162.548C253.979 162.24 253.853 161.839 253.853 161.344C253.853 160.952 253.97 160.593 254.203 160.266C254.436 159.939 254.768 159.683 255.197 159.496C255.626 159.3 256.116 159.202 256.667 159.202C257.516 159.202 258.202 159.417 258.725 159.846C259.248 160.275 259.528 160.863 259.565 161.61H258.291C258.263 161.209 258.1 160.887 257.801 160.644C257.512 160.401 257.12 160.28 256.625 160.28C256.168 160.28 255.804 160.378 255.533 160.574C255.262 160.77 255.127 161.027 255.127 161.344C255.127 161.596 255.206 161.806 255.365 161.974C255.533 162.133 255.738 162.263 255.981 162.366C256.233 162.459 256.578 162.567 257.017 162.688C257.568 162.837 258.016 162.987 258.361 163.136C258.706 163.276 259 163.491 259.243 163.78C259.495 164.069 259.626 164.447 259.635 164.914C259.635 165.334 259.518 165.712 259.285 166.048C259.052 166.384 258.72 166.65 258.291 166.846C257.871 167.033 257.386 167.126 256.835 167.126ZM268.083 162.87C268.083 163.113 268.069 163.369 268.041 163.64H261.909C261.956 164.396 262.213 164.989 262.679 165.418C263.155 165.838 263.729 166.048 264.401 166.048C264.952 166.048 265.409 165.922 265.773 165.67C266.147 165.409 266.408 165.063 266.557 164.634H267.929C267.724 165.371 267.313 165.973 266.697 166.44C266.081 166.897 265.316 167.126 264.401 167.126C263.673 167.126 263.02 166.963 262.441 166.636C261.872 166.309 261.424 165.847 261.097 165.25C260.771 164.643 260.607 163.943 260.607 163.15C260.607 162.357 260.766 161.661 261.083 161.064C261.401 160.467 261.844 160.009 262.413 159.692C262.992 159.365 263.655 159.202 264.401 159.202C265.129 159.202 265.773 159.361 266.333 159.678C266.893 159.995 267.323 160.434 267.621 160.994C267.929 161.545 268.083 162.17 268.083 162.87ZM266.767 162.604C266.767 162.119 266.66 161.703 266.445 161.358C266.231 161.003 265.937 160.737 265.563 160.56C265.199 160.373 264.793 160.28 264.345 160.28C263.701 160.28 263.151 160.485 262.693 160.896C262.245 161.307 261.989 161.876 261.923 162.604H266.767ZM270.689 160.756C270.95 160.299 271.333 159.925 271.837 159.636C272.341 159.347 272.915 159.202 273.559 159.202C274.25 159.202 274.87 159.365 275.421 159.692C275.972 160.019 276.406 160.481 276.723 161.078C277.04 161.666 277.199 162.352 277.199 163.136C277.199 163.911 277.04 164.601 276.723 165.208C276.406 165.815 275.967 166.286 275.407 166.622C274.856 166.958 274.24 167.126 273.559 167.126C272.896 167.126 272.313 166.981 271.809 166.692C271.314 166.403 270.941 166.034 270.689 165.586V167H269.415V156.64H270.689V160.756ZM275.897 163.136C275.897 162.557 275.78 162.053 275.547 161.624C275.314 161.195 274.996 160.868 274.595 160.644C274.203 160.42 273.769 160.308 273.293 160.308C272.826 160.308 272.392 160.425 271.991 160.658C271.599 160.882 271.282 161.213 271.039 161.652C270.806 162.081 270.689 162.581 270.689 163.15C270.689 163.729 270.806 164.237 271.039 164.676C271.282 165.105 271.599 165.437 271.991 165.67C272.392 165.894 272.826 166.006 273.293 166.006C273.769 166.006 274.203 165.894 274.595 165.67C274.996 165.437 275.314 165.105 275.547 164.676C275.78 164.237 275.897 163.724 275.897 163.136ZM285.526 162.87C285.526 163.113 285.512 163.369 285.484 163.64H279.352C279.399 164.396 279.655 164.989 280.122 165.418C280.598 165.838 281.172 166.048 281.844 166.048C282.395 166.048 282.852 165.922 283.216 165.67C283.589 165.409 283.851 165.063 284 164.634H285.372C285.167 165.371 284.756 165.973 284.14 166.44C283.524 166.897 282.759 167.126 281.844 167.126C281.116 167.126 280.463 166.963 279.884 166.636C279.315 166.309 278.867 165.847 278.54 165.25C278.213 164.643 278.05 163.943 278.05 163.15C278.05 162.357 278.209 161.661 278.526 161.064C278.843 160.467 279.287 160.009 279.856 159.692C280.435 159.365 281.097 159.202 281.844 159.202C282.572 159.202 283.216 159.361 283.776 159.678C284.336 159.995 284.765 160.434 285.064 160.994C285.372 161.545 285.526 162.17 285.526 162.87ZM284.21 162.604C284.21 162.119 284.103 161.703 283.888 161.358C283.673 161.003 283.379 160.737 283.006 160.56C282.642 160.373 282.236 160.28 281.788 160.28C281.144 160.28 280.593 160.485 280.136 160.896C279.688 161.307 279.431 161.876 279.366 162.604H284.21ZM289.574 167.126C288.986 167.126 288.458 167.028 287.992 166.832C287.525 166.627 287.156 166.347 286.886 165.992C286.615 165.628 286.466 165.213 286.438 164.746H287.754C287.791 165.129 287.968 165.441 288.286 165.684C288.612 165.927 289.037 166.048 289.56 166.048C290.045 166.048 290.428 165.941 290.708 165.726C290.988 165.511 291.128 165.241 291.128 164.914C291.128 164.578 290.978 164.331 290.68 164.172C290.381 164.004 289.919 163.841 289.294 163.682C288.724 163.533 288.258 163.383 287.894 163.234C287.539 163.075 287.231 162.847 286.97 162.548C286.718 162.24 286.592 161.839 286.592 161.344C286.592 160.952 286.708 160.593 286.942 160.266C287.175 159.939 287.506 159.683 287.936 159.496C288.365 159.3 288.855 159.202 289.406 159.202C290.255 159.202 290.941 159.417 291.464 159.846C291.986 160.275 292.266 160.863 292.304 161.61H291.03C291.002 161.209 290.838 160.887 290.54 160.644C290.25 160.401 289.858 160.28 289.364 160.28C288.906 160.28 288.542 160.378 288.272 160.574C288.001 160.77 287.866 161.027 287.866 161.344C287.866 161.596 287.945 161.806 288.104 161.974C288.272 162.133 288.477 162.263 288.72 162.366C288.972 162.459 289.317 162.567 289.756 162.688C290.306 162.837 290.754 162.987 291.1 163.136C291.445 163.276 291.739 163.491 291.982 163.78C292.234 164.069 292.364 164.447 292.374 164.914C292.374 165.334 292.257 165.712 292.024 166.048C291.79 166.384 291.459 166.65 291.03 166.846C290.61 167.033 290.124 167.126 289.574 167.126ZM293.346 163.136C293.346 162.352 293.505 161.666 293.822 161.078C294.139 160.481 294.573 160.019 295.124 159.692C295.684 159.365 296.305 159.202 296.986 159.202C297.658 159.202 298.241 159.347 298.736 159.636C299.231 159.925 299.599 160.289 299.842 160.728V159.328H301.13V167H299.842V165.572C299.59 166.02 299.212 166.393 298.708 166.692C298.213 166.981 297.635 167.126 296.972 167.126C296.291 167.126 295.675 166.958 295.124 166.622C294.573 166.286 294.139 165.815 293.822 165.208C293.505 164.601 293.346 163.911 293.346 163.136ZM299.842 163.15C299.842 162.571 299.725 162.067 299.492 161.638C299.259 161.209 298.941 160.882 298.54 160.658C298.148 160.425 297.714 160.308 297.238 160.308C296.762 160.308 296.328 160.42 295.936 160.644C295.544 160.868 295.231 161.195 294.998 161.624C294.765 162.053 294.648 162.557 294.648 163.136C294.648 163.724 294.765 164.237 294.998 164.676C295.231 165.105 295.544 165.437 295.936 165.67C296.328 165.894 296.762 166.006 297.238 166.006C297.714 166.006 298.148 165.894 298.54 165.67C298.941 165.437 299.259 165.105 299.492 164.676C299.725 164.237 299.842 163.729 299.842 163.15ZM304.207 160.574C304.431 160.135 304.748 159.795 305.159 159.552C305.579 159.309 306.088 159.188 306.685 159.188V160.504H306.349C304.921 160.504 304.207 161.279 304.207 162.828V167H302.933V159.328H304.207V160.574ZM310.642 158.04V156.878H313.274V167H311.986V158.04H310.642ZM315.113 161.834C315.113 160.229 315.374 158.978 315.897 158.082C316.419 157.177 317.334 156.724 318.641 156.724C319.938 156.724 320.848 157.177 321.371 158.082C321.893 158.978 322.155 160.229 322.155 161.834C322.155 163.467 321.893 164.737 321.371 165.642C320.848 166.547 319.938 167 318.641 167C317.334 167 316.419 166.547 315.897 165.642C315.374 164.737 315.113 163.467 315.113 161.834ZM320.895 161.834C320.895 161.022 320.839 160.336 320.727 159.776C320.624 159.207 320.405 158.749 320.069 158.404C319.742 158.059 319.266 157.886 318.641 157.886C318.006 157.886 317.521 158.059 317.185 158.404C316.858 158.749 316.639 159.207 316.527 159.776C316.424 160.336 316.373 161.022 316.373 161.834C316.373 162.674 316.424 163.379 316.527 163.948C316.639 164.517 316.858 164.975 317.185 165.32C317.521 165.665 318.006 165.838 318.641 165.838C319.266 165.838 319.742 165.665 320.069 165.32C320.405 164.975 320.624 164.517 320.727 163.948C320.839 163.379 320.895 162.674 320.895 161.834ZM323.274 159.16C323.274 158.525 323.465 158.021 323.848 157.648C324.23 157.265 324.72 157.074 325.318 157.074C325.915 157.074 326.405 157.265 326.788 157.648C327.17 158.021 327.362 158.525 327.362 159.16C327.362 159.804 327.17 160.317 326.788 160.7C326.405 161.073 325.915 161.26 325.318 161.26C324.72 161.26 324.23 161.073 323.848 160.7C323.465 160.317 323.274 159.804 323.274 159.16ZM331.45 157.228L325.78 167H324.52L330.19 157.228H331.45ZM325.318 157.858C325 157.858 324.748 157.97 324.562 158.194C324.384 158.409 324.296 158.731 324.296 159.16C324.296 159.589 324.384 159.916 324.562 160.14C324.748 160.364 325 160.476 325.318 160.476C325.635 160.476 325.887 160.364 326.074 160.14C326.26 159.907 326.354 159.58 326.354 159.16C326.354 158.731 326.26 158.409 326.074 158.194C325.887 157.97 325.635 157.858 325.318 157.858ZM328.636 165.068C328.636 164.424 328.827 163.915 329.21 163.542C329.592 163.159 330.082 162.968 330.68 162.968C331.277 162.968 331.762 163.159 332.136 163.542C332.518 163.915 332.71 164.424 332.71 165.068C332.71 165.703 332.518 166.211 332.136 166.594C331.762 166.977 331.277 167.168 330.68 167.168C330.082 167.168 329.592 166.981 329.21 166.608C328.827 166.225 328.636 165.712 328.636 165.068ZM330.666 163.766C330.348 163.766 330.096 163.878 329.91 164.102C329.723 164.317 329.63 164.639 329.63 165.068C329.63 165.488 329.723 165.81 329.91 166.034C330.096 166.249 330.348 166.356 330.666 166.356C330.983 166.356 331.235 166.249 331.422 166.034C331.608 165.81 331.702 165.488 331.702 165.068C331.702 164.639 331.608 164.317 331.422 164.102C331.235 163.878 330.983 163.766 330.666 163.766ZM334.443 167.084C334.2 167.084 333.995 167 333.827 166.832C333.659 166.664 333.575 166.459 333.575 166.216C333.575 165.973 333.659 165.768 333.827 165.6C333.995 165.432 334.2 165.348 334.443 165.348C334.676 165.348 334.872 165.432 335.031 165.6C335.199 165.768 335.283 165.973 335.283 166.216C335.283 166.459 335.199 166.664 335.031 166.832C334.872 167 334.676 167.084 334.443 167.084ZM344.894 161.974C345.249 162.03 345.571 162.175 345.86 162.408C346.159 162.641 346.392 162.931 346.56 163.276C346.738 163.621 346.826 163.99 346.826 164.382C346.826 164.877 346.7 165.325 346.448 165.726C346.196 166.118 345.828 166.431 345.342 166.664C344.866 166.888 344.302 167 343.648 167H340.008V157.242H343.508C344.171 157.242 344.736 157.354 345.202 157.578C345.669 157.793 346.019 158.087 346.252 158.46C346.486 158.833 346.602 159.253 346.602 159.72C346.602 160.299 346.444 160.779 346.126 161.162C345.818 161.535 345.408 161.806 344.894 161.974ZM341.282 161.456H343.424C344.022 161.456 344.484 161.316 344.81 161.036C345.137 160.756 345.3 160.369 345.3 159.874C345.3 159.379 345.137 158.992 344.81 158.712C344.484 158.432 344.012 158.292 343.396 158.292H341.282V161.456ZM343.536 165.95C344.171 165.95 344.666 165.801 345.02 165.502C345.375 165.203 345.552 164.788 345.552 164.256C345.552 163.715 345.366 163.29 344.992 162.982C344.619 162.665 344.12 162.506 343.494 162.506H341.282V165.95H343.536ZM355.244 162.87C355.244 163.113 355.23 163.369 355.202 163.64H349.07C349.117 164.396 349.374 164.989 349.84 165.418C350.316 165.838 350.89 166.048 351.562 166.048C352.113 166.048 352.57 165.922 352.934 165.67C353.308 165.409 353.569 165.063 353.718 164.634H355.09C354.885 165.371 354.474 165.973 353.858 166.44C353.242 166.897 352.477 167.126 351.562 167.126C350.834 167.126 350.181 166.963 349.602 166.636C349.033 166.309 348.585 165.847 348.258 165.25C347.932 164.643 347.768 163.943 347.768 163.15C347.768 162.357 347.927 161.661 348.244 161.064C348.562 160.467 349.005 160.009 349.574 159.692C350.153 159.365 350.816 159.202 351.562 159.202C352.29 159.202 352.934 159.361 353.494 159.678C354.054 159.995 354.484 160.434 354.782 160.994C355.09 161.545 355.244 162.17 355.244 162.87ZM353.928 162.604C353.928 162.119 353.821 161.703 353.606 161.358C353.392 161.003 353.098 160.737 352.724 160.56C352.36 160.373 351.954 160.28 351.506 160.28C350.862 160.28 350.312 160.485 349.854 160.896C349.406 161.307 349.15 161.876 349.084 162.604H353.928ZM357.85 160.574C358.074 160.135 358.391 159.795 358.802 159.552C359.222 159.309 359.731 159.188 360.328 159.188V160.504H359.992C358.564 160.504 357.85 161.279 357.85 162.828V167H356.576V159.328H357.85V160.574ZM362.723 156.64V167H361.449V156.64H362.723ZM364.068 163.136C364.068 162.352 364.227 161.666 364.544 161.078C364.861 160.481 365.295 160.019 365.846 159.692C366.406 159.365 367.027 159.202 367.708 159.202C368.38 159.202 368.963 159.347 369.458 159.636C369.953 159.925 370.321 160.289 370.564 160.728V159.328H371.852V167H370.564V165.572C370.312 166.02 369.934 166.393 369.43 166.692C368.935 166.981 368.357 167.126 367.694 167.126C367.013 167.126 366.397 166.958 365.846 166.622C365.295 166.286 364.861 165.815 364.544 165.208C364.227 164.601 364.068 163.911 364.068 163.136ZM370.564 163.15C370.564 162.571 370.447 162.067 370.214 161.638C369.981 161.209 369.663 160.882 369.262 160.658C368.87 160.425 368.436 160.308 367.96 160.308C367.484 160.308 367.05 160.42 366.658 160.644C366.266 160.868 365.953 161.195 365.72 161.624C365.487 162.053 365.37 162.557 365.37 163.136C365.37 163.724 365.487 164.237 365.72 164.676C365.953 165.105 366.266 165.437 366.658 165.67C367.05 165.894 367.484 166.006 367.96 166.006C368.436 166.006 368.87 165.894 369.262 165.67C369.663 165.437 369.981 165.105 370.214 164.676C370.447 164.237 370.564 163.729 370.564 163.15ZM377.939 167L374.929 163.612V167H373.655V156.64H374.929V162.73L377.883 159.328H379.661L376.049 163.15L379.675 167H377.939ZM387.314 159.328V167H386.04V165.866C385.797 166.258 385.457 166.566 385.018 166.79C384.589 167.005 384.113 167.112 383.59 167.112C382.993 167.112 382.456 166.991 381.98 166.748C381.504 166.496 381.126 166.123 380.846 165.628C380.575 165.133 380.44 164.531 380.44 163.822V159.328H381.7V163.654C381.7 164.41 381.891 164.993 382.274 165.404C382.657 165.805 383.179 166.006 383.842 166.006C384.523 166.006 385.06 165.796 385.452 165.376C385.844 164.956 386.04 164.345 386.04 163.542V159.328H387.314ZM190.179 182.126C189.591 182.126 189.064 182.028 188.597 181.832C188.13 181.627 187.762 181.347 187.491 180.992C187.22 180.628 187.071 180.213 187.043 179.746H188.359C188.396 180.129 188.574 180.441 188.891 180.684C189.218 180.927 189.642 181.048 190.165 181.048C190.65 181.048 191.033 180.941 191.313 180.726C191.593 180.511 191.733 180.241 191.733 179.914C191.733 179.578 191.584 179.331 191.285 179.172C190.986 179.004 190.524 178.841 189.899 178.682C189.33 178.533 188.863 178.383 188.499 178.234C188.144 178.075 187.836 177.847 187.575 177.548C187.323 177.24 187.197 176.839 187.197 176.344C187.197 175.952 187.314 175.593 187.547 175.266C187.78 174.939 188.112 174.683 188.541 174.496C188.97 174.3 189.46 174.202 190.011 174.202C190.86 174.202 191.546 174.417 192.069 174.846C192.592 175.275 192.872 175.863 192.909 176.61H191.635C191.607 176.209 191.444 175.887 191.145 175.644C190.856 175.401 190.464 175.28 189.969 175.28C189.512 175.28 189.148 175.378 188.877 175.574C188.606 175.77 188.471 176.027 188.471 176.344C188.471 176.596 188.55 176.806 188.709 176.974C188.877 177.133 189.082 177.263 189.325 177.366C189.577 177.459 189.922 177.567 190.361 177.688C190.912 177.837 191.36 177.987 191.705 178.136C192.05 178.276 192.344 178.491 192.587 178.78C192.839 179.069 192.97 179.447 192.979 179.914C192.979 180.334 192.862 180.712 192.629 181.048C192.396 181.384 192.064 181.65 191.635 181.846C191.215 182.033 190.73 182.126 190.179 182.126ZM194.834 182.084C194.591 182.084 194.386 182 194.218 181.832C194.05 181.664 193.966 181.459 193.966 181.216C193.966 180.973 194.05 180.768 194.218 180.6C194.386 180.432 194.591 180.348 194.834 180.348C195.067 180.348 195.263 180.432 195.422 180.6C195.59 180.768 195.674 180.973 195.674 181.216C195.674 181.459 195.59 181.664 195.422 181.832C195.263 182 195.067 182.084 194.834 182.084ZM196.541 178.136C196.541 177.352 196.7 176.666 197.017 176.078C197.334 175.481 197.768 175.019 198.319 174.692C198.879 174.365 199.504 174.202 200.195 174.202C200.792 174.202 201.348 174.342 201.861 174.622C202.374 174.893 202.766 175.252 203.037 175.7V171.64H204.325V182H203.037V180.558C202.785 181.015 202.412 181.393 201.917 181.692C201.422 181.981 200.844 182.126 200.181 182.126C199.5 182.126 198.879 181.958 198.319 181.622C197.768 181.286 197.334 180.815 197.017 180.208C196.7 179.601 196.541 178.911 196.541 178.136ZM203.037 178.15C203.037 177.571 202.92 177.067 202.687 176.638C202.454 176.209 202.136 175.882 201.735 175.658C201.343 175.425 200.909 175.308 200.433 175.308C199.957 175.308 199.523 175.42 199.131 175.644C198.739 175.868 198.426 176.195 198.193 176.624C197.96 177.053 197.843 177.557 197.843 178.136C197.843 178.724 197.96 179.237 198.193 179.676C198.426 180.105 198.739 180.437 199.131 180.67C199.523 180.894 199.957 181.006 200.433 181.006C200.909 181.006 201.343 180.894 201.735 180.67C202.136 180.437 202.454 180.105 202.687 179.676C202.92 179.237 203.037 178.729 203.037 178.15ZM209.272 174.426C209.338 173.567 209.669 172.895 210.266 172.41C210.864 171.925 211.638 171.682 212.59 171.682C213.225 171.682 213.771 171.799 214.228 172.032C214.695 172.256 215.045 172.564 215.278 172.956C215.521 173.348 215.642 173.791 215.642 174.286C215.642 174.865 215.474 175.364 215.138 175.784C214.812 176.204 214.382 176.475 213.85 176.596V176.666C214.457 176.815 214.938 177.109 215.292 177.548C215.647 177.987 215.824 178.561 215.824 179.27C215.824 179.802 215.703 180.283 215.46 180.712C215.218 181.132 214.854 181.463 214.368 181.706C213.883 181.949 213.3 182.07 212.618 182.07C211.629 182.07 210.817 181.813 210.182 181.3C209.548 180.777 209.193 180.04 209.118 179.088H210.35C210.416 179.648 210.644 180.105 211.036 180.46C211.428 180.815 211.951 180.992 212.604 180.992C213.258 180.992 213.752 180.824 214.088 180.488C214.434 180.143 214.606 179.699 214.606 179.158C214.606 178.458 214.373 177.954 213.906 177.646C213.44 177.338 212.735 177.184 211.792 177.184H211.47V176.12H211.806C212.665 176.111 213.314 175.971 213.752 175.7C214.191 175.42 214.41 174.991 214.41 174.412C214.41 173.917 214.247 173.521 213.92 173.222C213.603 172.923 213.146 172.774 212.548 172.774C211.97 172.774 211.503 172.923 211.148 173.222C210.794 173.521 210.584 173.922 210.518 174.426H209.272ZM217.195 176.834C217.195 175.229 217.456 173.978 217.979 173.082C218.501 172.177 219.416 171.724 220.723 171.724C222.02 171.724 222.93 172.177 223.453 173.082C223.975 173.978 224.237 175.229 224.237 176.834C224.237 178.467 223.975 179.737 223.453 180.642C222.93 181.547 222.02 182 220.723 182C219.416 182 218.501 181.547 217.979 180.642C217.456 179.737 217.195 178.467 217.195 176.834ZM222.977 176.834C222.977 176.022 222.921 175.336 222.809 174.776C222.706 174.207 222.487 173.749 222.151 173.404C221.824 173.059 221.348 172.886 220.723 172.886C220.088 172.886 219.603 173.059 219.267 173.404C218.94 173.749 218.721 174.207 218.609 174.776C218.506 175.336 218.455 176.022 218.455 176.834C218.455 177.674 218.506 178.379 218.609 178.948C218.721 179.517 218.94 179.975 219.267 180.32C219.603 180.665 220.088 180.838 220.723 180.838C221.348 180.838 221.824 180.665 222.151 180.32C222.487 179.975 222.706 179.517 222.809 178.948C222.921 178.379 222.977 177.674 222.977 176.834ZM232.322 182.098C231.678 182.098 231.099 181.986 230.586 181.762C230.082 181.529 229.685 181.211 229.396 180.81C229.107 180.399 228.957 179.928 228.948 179.396H230.306C230.353 179.853 230.539 180.241 230.866 180.558C231.202 180.866 231.687 181.02 232.322 181.02C232.929 181.02 233.405 180.871 233.75 180.572C234.105 180.264 234.282 179.872 234.282 179.396C234.282 179.023 234.179 178.719 233.974 178.486C233.769 178.253 233.512 178.075 233.204 177.954C232.896 177.833 232.481 177.702 231.958 177.562C231.314 177.394 230.796 177.226 230.404 177.058C230.021 176.89 229.69 176.629 229.41 176.274C229.139 175.91 229.004 175.425 229.004 174.818C229.004 174.286 229.139 173.815 229.41 173.404C229.681 172.993 230.059 172.676 230.544 172.452C231.039 172.228 231.603 172.116 232.238 172.116C233.153 172.116 233.899 172.345 234.478 172.802C235.066 173.259 235.397 173.866 235.472 174.622H234.072C234.025 174.249 233.829 173.922 233.484 173.642C233.139 173.353 232.681 173.208 232.112 173.208C231.58 173.208 231.146 173.348 230.81 173.628C230.474 173.899 230.306 174.281 230.306 174.776C230.306 175.131 230.404 175.42 230.6 175.644C230.805 175.868 231.053 176.041 231.342 176.162C231.641 176.274 232.056 176.405 232.588 176.554C233.232 176.731 233.75 176.909 234.142 177.086C234.534 177.254 234.87 177.52 235.15 177.884C235.43 178.239 235.57 178.724 235.57 179.34C235.57 179.816 235.444 180.264 235.192 180.684C234.94 181.104 234.567 181.445 234.072 181.706C233.577 181.967 232.994 182.098 232.322 182.098ZM244.095 177.87C244.095 178.113 244.081 178.369 244.053 178.64H237.921C237.967 179.396 238.224 179.989 238.691 180.418C239.167 180.838 239.741 181.048 240.413 181.048C240.963 181.048 241.421 180.922 241.785 180.67C242.158 180.409 242.419 180.063 242.569 179.634H243.941C243.735 180.371 243.325 180.973 242.709 181.44C242.093 181.897 241.327 182.126 240.413 182.126C239.685 182.126 239.031 181.963 238.453 181.636C237.883 181.309 237.435 180.847 237.109 180.25C236.782 179.643 236.619 178.943 236.619 178.15C236.619 177.357 236.777 176.661 237.095 176.064C237.412 175.467 237.855 175.009 238.425 174.692C239.003 174.365 239.666 174.202 240.413 174.202C241.141 174.202 241.785 174.361 242.345 174.678C242.905 174.995 243.334 175.434 243.633 175.994C243.941 176.545 244.095 177.17 244.095 177.87ZM242.779 177.604C242.779 177.119 242.671 176.703 242.457 176.358C242.242 176.003 241.948 175.737 241.575 175.56C241.211 175.373 240.805 175.28 240.357 175.28C239.713 175.28 239.162 175.485 238.705 175.896C238.257 176.307 238 176.876 237.935 177.604H242.779ZM246.7 175.742C246.952 175.303 247.326 174.939 247.82 174.65C248.324 174.351 248.908 174.202 249.57 174.202C250.252 174.202 250.868 174.365 251.418 174.692C251.978 175.019 252.417 175.481 252.734 176.078C253.052 176.666 253.21 177.352 253.21 178.136C253.21 178.911 253.052 179.601 252.734 180.208C252.417 180.815 251.978 181.286 251.418 181.622C250.868 181.958 250.252 182.126 249.57 182.126C248.917 182.126 248.338 181.981 247.834 181.692C247.34 181.393 246.962 181.025 246.7 180.586V185.64H245.426V174.328H246.7V175.742ZM251.908 178.136C251.908 177.557 251.792 177.053 251.558 176.624C251.325 176.195 251.008 175.868 250.606 175.644C250.214 175.42 249.78 175.308 249.304 175.308C248.838 175.308 248.404 175.425 248.002 175.658C247.61 175.882 247.293 176.213 247.05 176.652C246.817 177.081 246.7 177.581 246.7 178.15C246.7 178.729 246.817 179.237 247.05 179.676C247.293 180.105 247.61 180.437 248.002 180.67C248.404 180.894 248.838 181.006 249.304 181.006C249.78 181.006 250.214 180.894 250.606 180.67C251.008 180.437 251.325 180.105 251.558 179.676C251.792 179.237 251.908 178.724 251.908 178.136ZM256.091 175.378V179.9C256.091 180.273 256.171 180.539 256.329 180.698C256.488 180.847 256.763 180.922 257.155 180.922H258.093V182H256.945C256.236 182 255.704 181.837 255.349 181.51C254.995 181.183 254.817 180.647 254.817 179.9V175.378H253.823V174.328H254.817V172.396H256.091V174.328H258.093V175.378H256.091ZM266.287 177.87C266.287 178.113 266.273 178.369 266.245 178.64H260.113C260.16 179.396 260.416 179.989 260.883 180.418C261.359 180.838 261.933 181.048 262.605 181.048C263.156 181.048 263.613 180.922 263.977 180.67C264.35 180.409 264.612 180.063 264.761 179.634H266.133C265.928 180.371 265.517 180.973 264.901 181.44C264.285 181.897 263.52 182.126 262.605 182.126C261.877 182.126 261.224 181.963 260.645 181.636C260.076 181.309 259.628 180.847 259.301 180.25C258.974 179.643 258.811 178.943 258.811 178.15C258.811 177.357 258.97 176.661 259.287 176.064C259.604 175.467 260.048 175.009 260.617 174.692C261.196 174.365 261.858 174.202 262.605 174.202C263.333 174.202 263.977 174.361 264.537 174.678C265.097 174.995 265.526 175.434 265.825 175.994C266.133 176.545 266.287 177.17 266.287 177.87ZM264.971 177.604C264.971 177.119 264.864 176.703 264.649 176.358C264.434 176.003 264.14 175.737 263.767 175.56C263.403 175.373 262.997 175.28 262.549 175.28C261.905 175.28 261.354 175.485 260.897 175.896C260.449 176.307 260.192 176.876 260.127 177.604H264.971ZM276.845 174.188C277.442 174.188 277.974 174.314 278.441 174.566C278.907 174.809 279.276 175.177 279.547 175.672C279.817 176.167 279.953 176.769 279.953 177.478V182H278.693V177.66C278.693 176.895 278.501 176.311 278.119 175.91C277.745 175.499 277.237 175.294 276.593 175.294C275.93 175.294 275.403 175.509 275.011 175.938C274.619 176.358 274.423 176.969 274.423 177.772V182H273.163V177.66C273.163 176.895 272.971 176.311 272.589 175.91C272.215 175.499 271.707 175.294 271.063 175.294C270.4 175.294 269.873 175.509 269.481 175.938C269.089 176.358 268.893 176.969 268.893 177.772V182H267.619V174.328H268.893V175.434C269.145 175.033 269.481 174.725 269.901 174.51C270.33 174.295 270.801 174.188 271.315 174.188C271.959 174.188 272.528 174.333 273.023 174.622C273.517 174.911 273.886 175.336 274.129 175.896C274.343 175.355 274.698 174.935 275.193 174.636C275.687 174.337 276.238 174.188 276.845 174.188ZM282.966 175.756C283.228 175.299 283.61 174.925 284.114 174.636C284.618 174.347 285.192 174.202 285.836 174.202C286.527 174.202 287.148 174.365 287.698 174.692C288.249 175.019 288.683 175.481 289 176.078C289.318 176.666 289.476 177.352 289.476 178.136C289.476 178.911 289.318 179.601 289 180.208C288.683 180.815 288.244 181.286 287.684 181.622C287.134 181.958 286.518 182.126 285.836 182.126C285.174 182.126 284.59 181.981 284.086 181.692C283.592 181.403 283.218 181.034 282.966 180.586V182H281.692V171.64H282.966V175.756ZM288.174 178.136C288.174 177.557 288.058 177.053 287.824 176.624C287.591 176.195 287.274 175.868 286.872 175.644C286.48 175.42 286.046 175.308 285.57 175.308C285.104 175.308 284.67 175.425 284.268 175.658C283.876 175.882 283.559 176.213 283.316 176.652C283.083 177.081 282.966 177.581 282.966 178.15C282.966 178.729 283.083 179.237 283.316 179.676C283.559 180.105 283.876 180.437 284.268 180.67C284.67 180.894 285.104 181.006 285.57 181.006C286.046 181.006 286.48 180.894 286.872 180.67C287.274 180.437 287.591 180.105 287.824 179.676C288.058 179.237 288.174 178.724 288.174 178.136ZM297.803 177.87C297.803 178.113 297.789 178.369 297.761 178.64H291.629C291.676 179.396 291.933 179.989 292.399 180.418C292.875 180.838 293.449 181.048 294.121 181.048C294.672 181.048 295.129 180.922 295.493 180.67C295.867 180.409 296.128 180.063 296.277 179.634H297.649C297.444 180.371 297.033 180.973 296.417 181.44C295.801 181.897 295.036 182.126 294.121 182.126C293.393 182.126 292.74 181.963 292.161 181.636C291.592 181.309 291.144 180.847 290.817 180.25C290.491 179.643 290.327 178.943 290.327 178.15C290.327 177.357 290.486 176.661 290.803 176.064C291.121 175.467 291.564 175.009 292.133 174.692C292.712 174.365 293.375 174.202 294.121 174.202C294.849 174.202 295.493 174.361 296.053 174.678C296.613 174.995 297.043 175.434 297.341 175.994C297.649 176.545 297.803 177.17 297.803 177.87ZM296.487 177.604C296.487 177.119 296.38 176.703 296.165 176.358C295.951 176.003 295.657 175.737 295.283 175.56C294.919 175.373 294.513 175.28 294.065 175.28C293.421 175.28 292.871 175.485 292.413 175.896C291.965 176.307 291.709 176.876 291.643 177.604H296.487ZM300.409 175.574C300.633 175.135 300.95 174.795 301.361 174.552C301.781 174.309 302.29 174.188 302.887 174.188V175.504H302.551C301.123 175.504 300.409 176.279 300.409 177.828V182H299.135V174.328H300.409V175.574ZM307.026 180.978C308.211 180.026 309.14 179.247 309.812 178.64C310.484 178.024 311.049 177.385 311.506 176.722C311.973 176.05 312.206 175.392 312.206 174.748C312.206 174.141 312.057 173.665 311.758 173.32C311.469 172.965 310.997 172.788 310.344 172.788C309.709 172.788 309.215 172.989 308.86 173.39C308.515 173.782 308.328 174.309 308.3 174.972H307.068C307.105 173.927 307.423 173.119 308.02 172.55C308.617 171.981 309.387 171.696 310.33 171.696C311.291 171.696 312.052 171.962 312.612 172.494C313.181 173.026 313.466 173.759 313.466 174.692C313.466 175.467 313.233 176.223 312.766 176.96C312.309 177.688 311.786 178.332 311.198 178.892C310.61 179.443 309.859 180.087 308.944 180.824H313.76V181.888H307.026V180.978ZM314.883 176.834C314.883 175.229 315.144 173.978 315.667 173.082C316.189 172.177 317.104 171.724 318.411 171.724C319.708 171.724 320.618 172.177 321.141 173.082C321.663 173.978 321.925 175.229 321.925 176.834C321.925 178.467 321.663 179.737 321.141 180.642C320.618 181.547 319.708 182 318.411 182C317.104 182 316.189 181.547 315.667 180.642C315.144 179.737 314.883 178.467 314.883 176.834ZM320.665 176.834C320.665 176.022 320.609 175.336 320.497 174.776C320.394 174.207 320.175 173.749 319.839 173.404C319.512 173.059 319.036 172.886 318.411 172.886C317.776 172.886 317.291 173.059 316.955 173.404C316.628 173.749 316.409 174.207 316.297 174.776C316.194 175.336 316.143 176.022 316.143 176.834C316.143 177.674 316.194 178.379 316.297 178.948C316.409 179.517 316.628 179.975 316.955 180.32C317.291 180.665 317.776 180.838 318.411 180.838C319.036 180.838 319.512 180.665 319.839 180.32C320.175 179.975 320.394 179.517 320.497 178.948C320.609 178.379 320.665 177.674 320.665 176.834ZM323.17 180.978C324.355 180.026 325.284 179.247 325.956 178.64C326.628 178.024 327.193 177.385 327.65 176.722C328.117 176.05 328.35 175.392 328.35 174.748C328.35 174.141 328.201 173.665 327.902 173.32C327.613 172.965 327.141 172.788 326.488 172.788C325.853 172.788 325.359 172.989 325.004 173.39C324.659 173.782 324.472 174.309 324.444 174.972H323.212C323.249 173.927 323.567 173.119 324.164 172.55C324.761 171.981 325.531 171.696 326.474 171.696C327.435 171.696 328.196 171.962 328.756 172.494C329.325 173.026 329.61 173.759 329.61 174.692C329.61 175.467 329.377 176.223 328.91 176.96C328.453 177.688 327.93 178.332 327.342 178.892C326.754 179.443 326.003 180.087 325.088 180.824H329.904V181.888H323.17V180.978ZM330.691 173.04V171.878H333.323V182H332.035V173.04H330.691ZM335.777 182.084C335.534 182.084 335.329 182 335.161 181.832C334.993 181.664 334.909 181.459 334.909 181.216C334.909 180.973 334.993 180.768 335.161 180.6C335.329 180.432 335.534 180.348 335.777 180.348C336.01 180.348 336.206 180.432 336.365 180.6C336.533 180.768 336.617 180.973 336.617 181.216C336.617 181.459 336.533 181.664 336.365 181.832C336.206 182 336.01 182.084 335.777 182.084Z" fill="#333333"/>
</g>
</svg>
