<svg width="400" height="223" viewBox="0 0 400 223" fill="none" xmlns="http://www.w3.org/2000/svg">
<mask id="mask0_516_14177" style="mask-type:alpha" maskUnits="userSpaceOnUse" x="0" y="0" width="400" height="223">
<rect width="400" height="223" fill="#C4C4C4"/>
</mask>
<g mask="url(#mask0_516_14177)">
<rect width="400" height="223" transform="matrix(-1 0 0 1 400 0)" fill="#F5BB34"/>
<path fill-rule="evenodd" clip-rule="evenodd" d="M408.119 36.4037C407.644 27.4044 426.415 8.14386 413.841 -4.1389e-07C401.046 -8.28638 356.948 0.835071 341.186 -6.94544C321.463 -16.681 338.66 -32.2185 310.813 -39.789C285.797 -46.5899 245.748 -42.3738 212.816 -41.8445C182.471 -41.3568 154.2 -37.8668 124.035 -36.7872C89.4782 -35.5505 47.7249 -41.714 20.6708 -34.9679C-6.7892 -28.1206 3.53024 -13.8728 -9.02116 -3.60885C-19.4723 4.93766 -41.3199 11.8309 -47.5078 20.7855C-53.7379 29.8013 -43.1831 39.0568 -44.8776 48.2801C-47.0057 59.8633 -74.3084 71.872 -58.8437 82.4873C-44.0574 92.637 -3.83549 97.7945 30.9182 100.308C64.9074 102.766 101.526 92.0239 133.536 96.4012C171.861 101.642 168.943 110.483 210.358 112.076C246.843 113.479 264.278 108.461 295.67 102.635C324.132 97.3534 367.027 100.844 389.734 93.3331C412.382 85.8418 410.517 73.8402 413.841 63.5485C416.774 54.466 408.602 45.543 408.119 36.4037Z" fill="#EC323F"/>
<path d="M146.099 70.78C151.859 65.98 156.449 61.99 159.869 58.81C163.289 55.57 166.139 52.21 168.419 48.73C170.699 45.25 171.839 41.83 171.839 38.47C171.839 35.41 171.119 33.01 169.679 31.27C168.239 29.53 166.019 28.66 163.019 28.66C160.019 28.66 157.709 29.68 156.089 31.72C154.469 33.7 153.629 36.43 153.569 39.91H141.329C141.569 32.71 143.699 27.25 147.719 23.53C151.799 19.81 156.959 17.95 163.199 17.95C170.039 17.95 175.289 19.78 178.949 23.44C182.609 27.04 184.439 31.81 184.439 37.75C184.439 42.43 183.179 46.9 180.659 51.16C178.139 55.42 175.259 59.14 172.019 62.32C168.779 65.44 164.549 69.22 159.329 73.66H185.879V84.1H141.419V74.74L146.099 70.78ZM191.569 51.34C191.569 40.96 193.429 32.83 197.149 26.95C200.929 21.07 207.169 18.13 215.869 18.13C224.569 18.13 230.779 21.07 234.499 26.95C238.279 32.83 240.169 40.96 240.169 51.34C240.169 61.78 238.279 69.97 234.499 75.91C230.779 81.85 224.569 84.82 215.869 84.82C207.169 84.82 200.929 81.85 197.149 75.91C193.429 69.97 191.569 61.78 191.569 51.34ZM227.749 51.34C227.749 46.9 227.449 43.18 226.849 40.18C226.309 37.12 225.169 34.63 223.429 32.71C221.749 30.79 219.229 29.83 215.869 29.83C212.509 29.83 209.959 30.79 208.219 32.71C206.539 34.63 205.399 37.12 204.799 40.18C204.259 43.18 203.989 46.9 203.989 51.34C203.989 55.9 204.259 59.74 204.799 62.86C205.339 65.92 206.479 68.41 208.219 70.33C209.959 72.19 212.509 73.12 215.869 73.12C219.229 73.12 221.779 72.19 223.519 70.33C225.259 68.41 226.399 65.92 226.939 62.86C227.479 59.74 227.749 55.9 227.749 51.34ZM243.62 71.8C243.62 70.584 243.972 69.632 244.676 68.944C245.396 68.256 246.316 67.912 247.436 67.912C248.556 67.912 249.468 68.256 250.172 68.944C250.892 69.632 251.252 70.584 251.252 71.8C251.252 73.032 250.892 73.992 250.172 74.68C249.468 75.368 248.556 75.712 247.436 75.712C246.316 75.712 245.396 75.368 244.676 74.68C243.972 73.992 243.62 73.032 243.62 71.8ZM259.028 68.2L249.596 85H246.332L255.74 68.2H259.028ZM247.412 69.928C246.532 69.928 246.092 70.552 246.092 71.8C246.092 73.064 246.532 73.696 247.412 73.696C247.844 73.696 248.18 73.544 248.42 73.24C248.66 72.92 248.78 72.44 248.78 71.8C248.78 70.552 248.324 69.928 247.412 69.928ZM254.156 81.376C254.156 80.144 254.508 79.192 255.212 78.52C255.932 77.832 256.852 77.488 257.972 77.488C259.092 77.488 259.996 77.832 260.684 78.52C261.388 79.192 261.74 80.144 261.74 81.376C261.74 82.608 261.388 83.568 260.684 84.256C259.996 84.944 259.092 85.288 257.972 85.288C256.836 85.288 255.916 84.944 255.212 84.256C254.508 83.568 254.156 82.608 254.156 81.376ZM257.948 79.504C257.036 79.504 256.58 80.128 256.58 81.376C256.58 82.64 257.036 83.272 257.948 83.272C258.844 83.272 259.292 82.64 259.292 81.376C259.292 80.128 258.844 79.504 257.948 79.504Z" fill="white"/>
<path d="M83.1375 129.248V139.616C83.1375 140.752 83.4335 141.624 84.0255 142.232C84.6175 142.824 85.4495 143.12 86.5215 143.12C87.6095 143.12 88.4495 142.824 89.0415 142.232C89.6335 141.624 89.9295 140.752 89.9295 139.616V129.248H93.3135V139.592C93.3135 141.016 93.0015 142.224 92.3775 143.216C91.7695 144.192 90.9455 144.928 89.9055 145.424C88.8815 145.92 87.7375 146.168 86.4735 146.168C85.2255 146.168 84.0895 145.92 83.0655 145.424C82.0575 144.928 81.2575 144.192 80.6655 143.216C80.0735 142.224 79.7775 141.016 79.7775 139.592V129.248H83.1375ZM103.328 132.512C104.912 132.512 106.192 133.016 107.168 134.024C108.144 135.016 108.632 136.408 108.632 138.2V146H105.272V138.656C105.272 137.6 105.008 136.792 104.48 136.232C103.952 135.656 103.232 135.368 102.32 135.368C101.392 135.368 100.656 135.656 100.112 136.232C99.5839 136.792 99.3199 137.6 99.3199 138.656V146H95.9599V132.704H99.3199V134.36C99.7679 133.784 100.336 133.336 101.024 133.016C101.728 132.68 102.496 132.512 103.328 132.512ZM115.139 135.464V141.896C115.139 142.344 115.243 142.672 115.451 142.88C115.675 143.072 116.043 143.168 116.555 143.168H118.115V146H116.003C113.171 146 111.755 144.624 111.755 141.872V135.464H110.171V132.704H111.755V129.416H115.139V132.704H118.115V135.464H115.139ZM132.484 132.704V146H129.1V144.32C128.668 144.896 128.1 145.352 127.396 145.688C126.708 146.008 125.956 146.168 125.14 146.168C124.1 146.168 123.18 145.952 122.38 145.52C121.58 145.072 120.948 144.424 120.484 143.576C120.036 142.712 119.812 141.688 119.812 140.504V132.704H123.172V140.024C123.172 141.08 123.436 141.896 123.964 142.472C124.492 143.032 125.212 143.312 126.124 143.312C127.052 143.312 127.78 143.032 128.308 142.472C128.836 141.896 129.1 141.08 129.1 140.024V132.704H132.484ZM143.071 146L138.559 140.336V146H135.199V128.24H138.559V138.344L143.023 132.704H147.391L141.535 139.376L147.439 146H143.071ZM159.517 146.168C158.349 146.168 157.293 145.968 156.349 145.568C155.421 145.168 154.685 144.592 154.141 143.84C153.597 143.088 153.317 142.2 153.301 141.176H156.901C156.949 141.864 157.189 142.408 157.621 142.808C158.069 143.208 158.677 143.408 159.445 143.408C160.229 143.408 160.845 143.224 161.293 142.856C161.741 142.472 161.965 141.976 161.965 141.368C161.965 140.872 161.813 140.464 161.509 140.144C161.205 139.824 160.821 139.576 160.357 139.4C159.909 139.208 159.285 139 158.485 138.776C157.397 138.456 156.509 138.144 155.821 137.84C155.149 137.52 154.565 137.048 154.069 136.424C153.589 135.784 153.349 134.936 153.349 133.88C153.349 132.888 153.597 132.024 154.093 131.288C154.589 130.552 155.285 129.992 156.181 129.608C157.077 129.208 158.101 129.008 159.253 129.008C160.981 129.008 162.381 129.432 163.453 130.28C164.541 131.112 165.141 132.28 165.253 133.784H161.557C161.525 133.208 161.277 132.736 160.813 132.368C160.365 131.984 159.765 131.792 159.013 131.792C158.357 131.792 157.829 131.96 157.429 132.296C157.045 132.632 156.853 133.12 156.853 133.76C156.853 134.208 156.997 134.584 157.285 134.888C157.589 135.176 157.957 135.416 158.389 135.608C158.837 135.784 159.461 135.992 160.261 136.232C161.349 136.552 162.237 136.872 162.925 137.192C163.613 137.512 164.205 137.992 164.701 138.632C165.197 139.272 165.445 140.112 165.445 141.152C165.445 142.048 165.213 142.88 164.749 143.648C164.285 144.416 163.605 145.032 162.709 145.496C161.813 145.944 160.749 146.168 159.517 146.168ZM169.462 131.12C168.87 131.12 168.374 130.936 167.974 130.568C167.59 130.184 167.398 129.712 167.398 129.152C167.398 128.592 167.59 128.128 167.974 127.76C168.374 127.376 168.87 127.184 169.462 127.184C170.054 127.184 170.542 127.376 170.926 127.76C171.326 128.128 171.526 128.592 171.526 129.152C171.526 129.712 171.326 130.184 170.926 130.568C170.542 130.936 170.054 131.12 169.462 131.12ZM171.118 132.704V146H167.758V132.704H171.118ZM178.926 146.216C177.838 146.216 176.862 146.024 175.998 145.64C175.134 145.24 174.446 144.704 173.934 144.032C173.438 143.36 173.166 142.616 173.118 141.8H176.502C176.566 142.312 176.814 142.736 177.246 143.072C177.694 143.408 178.246 143.576 178.902 143.576C179.542 143.576 180.038 143.448 180.39 143.192C180.758 142.936 180.942 142.608 180.942 142.208C180.942 141.776 180.718 141.456 180.27 141.248C179.838 141.024 179.142 140.784 178.182 140.528C177.19 140.288 176.374 140.04 175.734 139.784C175.11 139.528 174.566 139.136 174.102 138.608C173.654 138.08 173.43 137.368 173.43 136.472C173.43 135.736 173.638 135.064 174.054 134.456C174.486 133.848 175.094 133.368 175.878 133.016C176.678 132.664 177.614 132.488 178.686 132.488C180.27 132.488 181.534 132.888 182.478 133.688C183.422 134.472 183.942 135.536 184.038 136.88H180.822C180.774 136.352 180.55 135.936 180.15 135.632C179.766 135.312 179.246 135.152 178.59 135.152C177.982 135.152 177.51 135.264 177.174 135.488C176.854 135.712 176.694 136.024 176.694 136.424C176.694 136.872 176.918 137.216 177.366 137.456C177.814 137.68 178.51 137.912 179.454 138.152C180.414 138.392 181.206 138.64 181.83 138.896C182.454 139.152 182.99 139.552 183.438 140.096C183.902 140.624 184.142 141.328 184.158 142.208C184.158 142.976 183.942 143.664 183.51 144.272C183.094 144.88 182.486 145.36 181.686 145.712C180.902 146.048 179.982 146.216 178.926 146.216ZM204.748 132.704L200.86 146H197.236L194.812 136.712L192.388 146H188.74L184.828 132.704H188.236L190.588 142.832L193.132 132.704H196.684L199.18 142.808L201.532 132.704H204.748ZM205.102 139.304C205.102 137.96 205.366 136.768 205.894 135.728C206.438 134.688 207.166 133.888 208.078 133.328C209.006 132.768 210.038 132.488 211.174 132.488C212.166 132.488 213.03 132.688 213.766 133.088C214.518 133.488 215.118 133.992 215.566 134.6V132.704H218.95V146H215.566V144.056C215.134 144.68 214.534 145.2 213.766 145.616C213.014 146.016 212.142 146.216 211.15 146.216C210.03 146.216 209.006 145.928 208.078 145.352C207.166 144.776 206.438 143.968 205.894 142.928C205.366 141.872 205.102 140.664 205.102 139.304ZM215.566 139.352C215.566 138.536 215.406 137.84 215.086 137.264C214.766 136.672 214.334 136.224 213.79 135.92C213.246 135.6 212.662 135.44 212.038 135.44C211.414 135.44 210.838 135.592 210.31 135.896C209.782 136.2 209.35 136.648 209.014 137.24C208.694 137.816 208.534 138.504 208.534 139.304C208.534 140.104 208.694 140.808 209.014 141.416C209.35 142.008 209.782 142.464 210.31 142.784C210.854 143.104 211.43 143.264 212.038 143.264C212.662 143.264 213.246 143.112 213.79 142.808C214.334 142.488 214.766 142.04 215.086 141.464C215.406 140.872 215.566 140.168 215.566 139.352ZM235.391 146L231.695 139.472H230.111V146H226.751V129.248H233.039C234.335 129.248 235.439 129.48 236.351 129.944C237.263 130.392 237.943 131.008 238.391 131.792C238.855 132.56 239.087 133.424 239.087 134.384C239.087 135.488 238.767 136.488 238.127 137.384C237.487 138.264 236.535 138.872 235.271 139.208L239.279 146H235.391ZM230.111 136.952H232.919C233.831 136.952 234.511 136.736 234.959 136.304C235.407 135.856 235.631 135.24 235.631 134.456C235.631 133.688 235.407 133.096 234.959 132.68C234.511 132.248 233.831 132.032 232.919 132.032H230.111V136.952ZM240.662 139.304C240.662 137.96 240.926 136.768 241.454 135.728C241.998 134.688 242.726 133.888 243.638 133.328C244.566 132.768 245.598 132.488 246.734 132.488C247.726 132.488 248.59 132.688 249.326 133.088C250.078 133.488 250.678 133.992 251.126 134.6V132.704H254.51V146H251.126V144.056C250.694 144.68 250.094 145.2 249.326 145.616C248.574 146.016 247.702 146.216 246.71 146.216C245.59 146.216 244.566 145.928 243.638 145.352C242.726 144.776 241.998 143.968 241.454 142.928C240.926 141.872 240.662 140.664 240.662 139.304ZM251.126 139.352C251.126 138.536 250.966 137.84 250.646 137.264C250.326 136.672 249.894 136.224 249.35 135.92C248.806 135.6 248.222 135.44 247.598 135.44C246.974 135.44 246.398 135.592 245.87 135.896C245.342 136.2 244.91 136.648 244.574 137.24C244.254 137.816 244.094 138.504 244.094 139.304C244.094 140.104 244.254 140.808 244.574 141.416C244.91 142.008 245.342 142.464 245.87 142.784C246.414 143.104 246.99 143.264 247.598 143.264C248.222 143.264 248.806 143.112 249.35 142.808C249.894 142.488 250.326 142.04 250.646 141.464C250.966 140.872 251.126 140.168 251.126 139.352ZM264.559 132.512C266.143 132.512 267.423 133.016 268.399 134.024C269.375 135.016 269.863 136.408 269.863 138.2V146H266.503V138.656C266.503 137.6 266.239 136.792 265.711 136.232C265.183 135.656 264.463 135.368 263.551 135.368C262.623 135.368 261.887 135.656 261.343 136.232C260.815 136.792 260.551 137.6 260.551 138.656V146H257.191V132.704H260.551V134.36C260.999 133.784 261.567 133.336 262.255 133.016C262.959 132.68 263.727 132.512 264.559 132.512ZM280.33 146L275.818 140.336V146H272.458V128.24H275.818V138.344L280.282 132.704H284.65L278.794 139.376L284.698 146H280.33ZM287.578 131.12C286.986 131.12 286.49 130.936 286.09 130.568C285.706 130.184 285.514 129.712 285.514 129.152C285.514 128.592 285.706 128.128 286.09 127.76C286.49 127.376 286.986 127.184 287.578 127.184C288.17 127.184 288.658 127.376 289.042 127.76C289.442 128.128 289.642 128.592 289.642 129.152C289.642 129.712 289.442 130.184 289.042 130.568C288.658 130.936 288.17 131.12 287.578 131.12ZM289.234 132.704V146H285.874V132.704H289.234ZM299.322 132.512C300.906 132.512 302.186 133.016 303.162 134.024C304.138 135.016 304.626 136.408 304.626 138.2V146H301.266V138.656C301.266 137.6 301.002 136.792 300.474 136.232C299.946 135.656 299.226 135.368 298.314 135.368C297.386 135.368 296.65 135.656 296.106 136.232C295.578 136.792 295.314 137.6 295.314 138.656V146H291.954V132.704H295.314V134.36C295.762 133.784 296.33 133.336 297.018 133.016C297.722 132.68 298.49 132.512 299.322 132.512ZM312.429 132.488C313.421 132.488 314.293 132.688 315.045 133.088C315.797 133.472 316.389 133.976 316.821 134.6V132.704H320.205V146.096C320.205 147.328 319.957 148.424 319.461 149.384C318.965 150.36 318.221 151.128 317.229 151.688C316.237 152.264 315.037 152.552 313.629 152.552C311.741 152.552 310.189 152.112 308.973 151.232C307.773 150.352 307.093 149.152 306.933 147.632H310.269C310.445 148.24 310.821 148.72 311.397 149.072C311.989 149.44 312.701 149.624 313.533 149.624C314.509 149.624 315.301 149.328 315.909 148.736C316.517 148.16 316.821 147.28 316.821 146.096V144.032C316.389 144.656 315.789 145.176 315.021 145.592C314.269 146.008 313.405 146.216 312.429 146.216C311.309 146.216 310.285 145.928 309.357 145.352C308.429 144.776 307.693 143.968 307.149 142.928C306.621 141.872 306.357 140.664 306.357 139.304C306.357 137.96 306.621 136.768 307.149 135.728C307.693 134.688 308.421 133.888 309.333 133.328C310.261 132.768 311.293 132.488 312.429 132.488ZM316.821 139.352C316.821 138.536 316.661 137.84 316.341 137.264C316.021 136.672 315.589 136.224 315.045 135.92C314.501 135.6 313.917 135.44 313.293 135.44C312.669 135.44 312.093 135.592 311.565 135.896C311.037 136.2 310.605 136.648 310.269 137.24C309.949 137.816 309.789 138.504 309.789 139.304C309.789 140.104 309.949 140.808 310.269 141.416C310.605 142.008 311.037 142.464 311.565 142.784C312.109 143.104 312.685 143.264 313.293 143.264C313.917 143.264 314.501 143.112 315.045 142.808C315.589 142.488 316.021 142.04 316.341 141.464C316.661 140.872 316.821 140.168 316.821 139.352Z" fill="#333333"/>
<path d="M91.6861 156.242V162.416C91.6861 163.284 91.8961 163.928 92.3161 164.348C92.7454 164.768 93.3381 164.978 94.0941 164.978C94.8408 164.978 95.4241 164.768 95.8441 164.348C96.2734 163.928 96.4881 163.284 96.4881 162.416V156.242H97.7621V162.402C97.7621 163.214 97.5988 163.9 97.2721 164.46C96.9454 165.011 96.5021 165.421 95.9421 165.692C95.3914 165.963 94.7708 166.098 94.0801 166.098C93.3894 166.098 92.7641 165.963 92.2041 165.692C91.6534 165.421 91.2148 165.011 90.8881 164.46C90.5708 163.9 90.4121 163.214 90.4121 162.402V156.242H91.6861ZM103.275 158.188C104.209 158.188 104.965 158.473 105.543 159.042C106.122 159.602 106.411 160.414 106.411 161.478V166H105.151V161.66C105.151 160.895 104.96 160.311 104.577 159.91C104.195 159.499 103.672 159.294 103.009 159.294C102.337 159.294 101.801 159.504 101.399 159.924C101.007 160.344 100.811 160.955 100.811 161.758V166H99.5374V158.328H100.811V159.42C101.063 159.028 101.404 158.725 101.833 158.51C102.272 158.295 102.753 158.188 103.275 158.188ZM109.696 159.378V163.9C109.696 164.273 109.776 164.539 109.934 164.698C110.093 164.847 110.368 164.922 110.76 164.922H111.698V166H110.55C109.841 166 109.309 165.837 108.954 165.51C108.6 165.183 108.422 164.647 108.422 163.9V159.378H107.428V158.328H108.422V156.396H109.696V158.328H111.698V159.378H109.696ZM119.696 158.328V166H118.422V164.866C118.179 165.258 117.839 165.566 117.4 165.79C116.971 166.005 116.495 166.112 115.972 166.112C115.375 166.112 114.838 165.991 114.362 165.748C113.886 165.496 113.508 165.123 113.228 164.628C112.957 164.133 112.822 163.531 112.822 162.822V158.328H114.082V162.654C114.082 163.41 114.273 163.993 114.656 164.404C115.039 164.805 115.561 165.006 116.224 165.006C116.905 165.006 117.442 164.796 117.834 164.376C118.226 163.956 118.422 163.345 118.422 162.542V158.328H119.696ZM125.781 166L122.771 162.612V166H121.497V155.64H122.771V161.73L125.725 158.328H127.503L123.891 162.15L127.517 166H125.781ZM136.019 166L133.009 162.612V166H131.735V155.64H133.009V161.73L135.963 158.328H137.741L134.129 162.15L137.755 166H136.019ZM138.114 162.136C138.114 161.352 138.272 160.666 138.59 160.078C138.907 159.481 139.341 159.019 139.892 158.692C140.452 158.365 141.072 158.202 141.754 158.202C142.426 158.202 143.009 158.347 143.504 158.636C143.998 158.925 144.367 159.289 144.61 159.728V158.328H145.898V166H144.61V164.572C144.358 165.02 143.98 165.393 143.476 165.692C142.981 165.981 142.402 166.126 141.74 166.126C141.058 166.126 140.442 165.958 139.892 165.622C139.341 165.286 138.907 164.815 138.59 164.208C138.272 163.601 138.114 162.911 138.114 162.136ZM144.61 162.15C144.61 161.571 144.493 161.067 144.26 160.638C144.026 160.209 143.709 159.882 143.308 159.658C142.916 159.425 142.482 159.308 142.006 159.308C141.53 159.308 141.096 159.42 140.704 159.644C140.312 159.868 139.999 160.195 139.766 160.624C139.532 161.053 139.416 161.557 139.416 162.136C139.416 162.724 139.532 163.237 139.766 163.676C139.999 164.105 140.312 164.437 140.704 164.67C141.096 164.894 141.53 165.006 142.006 165.006C142.482 165.006 142.916 164.894 143.308 164.67C143.709 164.437 144.026 164.105 144.26 163.676C144.493 163.237 144.61 162.729 144.61 162.15ZM156.927 158.188C157.524 158.188 158.056 158.314 158.523 158.566C158.989 158.809 159.358 159.177 159.629 159.672C159.899 160.167 160.035 160.769 160.035 161.478V166H158.775V161.66C158.775 160.895 158.583 160.311 158.201 159.91C157.827 159.499 157.319 159.294 156.675 159.294C156.012 159.294 155.485 159.509 155.093 159.938C154.701 160.358 154.505 160.969 154.505 161.772V166H153.245V161.66C153.245 160.895 153.053 160.311 152.671 159.91C152.297 159.499 151.789 159.294 151.145 159.294C150.482 159.294 149.955 159.509 149.563 159.938C149.171 160.358 148.975 160.969 148.975 161.772V166H147.701V158.328H148.975V159.434C149.227 159.033 149.563 158.725 149.983 158.51C150.412 158.295 150.883 158.188 151.397 158.188C152.041 158.188 152.61 158.333 153.105 158.622C153.599 158.911 153.968 159.336 154.211 159.896C154.425 159.355 154.78 158.935 155.275 158.636C155.769 158.337 156.32 158.188 156.927 158.188ZM168.578 158.328V166H167.304V164.866C167.062 165.258 166.721 165.566 166.282 165.79C165.853 166.005 165.377 166.112 164.854 166.112C164.257 166.112 163.72 165.991 163.244 165.748C162.768 165.496 162.39 165.123 162.11 164.628C161.84 164.133 161.704 163.531 161.704 162.822V158.328H162.964V162.654C162.964 163.41 163.156 163.993 163.538 164.404C163.921 164.805 164.444 165.006 165.106 165.006C165.788 165.006 166.324 164.796 166.716 164.376C167.108 163.956 167.304 163.345 167.304 162.542V158.328H168.578ZM180.37 158.328L175.75 169.612H174.434L175.946 165.916L172.852 158.328H174.266L176.674 164.544L179.054 158.328H180.37ZM180.825 162.136C180.825 161.352 180.983 160.666 181.301 160.078C181.618 159.481 182.052 159.019 182.603 158.692C183.163 158.365 183.783 158.202 184.465 158.202C185.137 158.202 185.72 158.347 186.215 158.636C186.709 158.925 187.078 159.289 187.321 159.728V158.328H188.609V166H187.321V164.572C187.069 165.02 186.691 165.393 186.187 165.692C185.692 165.981 185.113 166.126 184.451 166.126C183.769 166.126 183.153 165.958 182.603 165.622C182.052 165.286 181.618 164.815 181.301 164.208C180.983 163.601 180.825 162.911 180.825 162.136ZM187.321 162.15C187.321 161.571 187.204 161.067 186.971 160.638C186.737 160.209 186.42 159.882 186.019 159.658C185.627 159.425 185.193 159.308 184.717 159.308C184.241 159.308 183.807 159.42 183.415 159.644C183.023 159.868 182.71 160.195 182.477 160.624C182.243 161.053 182.127 161.557 182.127 162.136C182.127 162.724 182.243 163.237 182.477 163.676C182.71 164.105 183.023 164.437 183.415 164.67C183.807 164.894 184.241 165.006 184.717 165.006C185.193 165.006 185.627 164.894 186.019 164.67C186.42 164.437 186.737 164.105 186.971 163.676C187.204 163.237 187.321 162.729 187.321 162.15ZM194.15 158.188C195.083 158.188 195.839 158.473 196.418 159.042C196.996 159.602 197.286 160.414 197.286 161.478V166H196.026V161.66C196.026 160.895 195.834 160.311 195.452 159.91C195.069 159.499 194.546 159.294 193.884 159.294C193.212 159.294 192.675 159.504 192.274 159.924C191.882 160.344 191.686 160.955 191.686 161.758V166H190.412V158.328H191.686V159.42C191.938 159.028 192.278 158.725 192.708 158.51C193.146 158.295 193.627 158.188 194.15 158.188ZM202.181 158.202C202.843 158.202 203.422 158.347 203.917 158.636C204.421 158.925 204.794 159.289 205.037 159.728V158.328H206.325V166.168C206.325 166.868 206.175 167.489 205.877 168.03C205.578 168.581 205.149 169.01 204.589 169.318C204.038 169.626 203.394 169.78 202.657 169.78C201.649 169.78 200.809 169.542 200.137 169.066C199.465 168.59 199.068 167.941 198.947 167.12H200.207C200.347 167.587 200.636 167.96 201.075 168.24C201.513 168.529 202.041 168.674 202.657 168.674C203.357 168.674 203.926 168.455 204.365 168.016C204.813 167.577 205.037 166.961 205.037 166.168V164.558C204.785 165.006 204.411 165.379 203.917 165.678C203.422 165.977 202.843 166.126 202.181 166.126C201.499 166.126 200.879 165.958 200.319 165.622C199.768 165.286 199.334 164.815 199.017 164.208C198.699 163.601 198.541 162.911 198.541 162.136C198.541 161.352 198.699 160.666 199.017 160.078C199.334 159.481 199.768 159.019 200.319 158.692C200.879 158.365 201.499 158.202 202.181 158.202ZM205.037 162.15C205.037 161.571 204.92 161.067 204.687 160.638C204.453 160.209 204.136 159.882 203.735 159.658C203.343 159.425 202.909 159.308 202.433 159.308C201.957 159.308 201.523 159.42 201.131 159.644C200.739 159.868 200.426 160.195 200.193 160.624C199.959 161.053 199.843 161.557 199.843 162.136C199.843 162.724 199.959 163.237 200.193 163.676C200.426 164.105 200.739 164.437 201.131 164.67C201.523 164.894 201.957 165.006 202.433 165.006C202.909 165.006 203.343 164.894 203.735 164.67C204.136 164.437 204.453 164.105 204.687 163.676C204.92 163.237 205.037 162.729 205.037 162.15ZM220.736 158.188C221.333 158.188 221.865 158.314 222.332 158.566C222.799 158.809 223.167 159.177 223.438 159.672C223.709 160.167 223.844 160.769 223.844 161.478V166H222.584V161.66C222.584 160.895 222.393 160.311 222.01 159.91C221.637 159.499 221.128 159.294 220.484 159.294C219.821 159.294 219.294 159.509 218.902 159.938C218.51 160.358 218.314 160.969 218.314 161.772V166H217.054V161.66C217.054 160.895 216.863 160.311 216.48 159.91C216.107 159.499 215.598 159.294 214.954 159.294C214.291 159.294 213.764 159.509 213.372 159.938C212.98 160.358 212.784 160.969 212.784 161.772V166H211.51V158.328H212.784V159.434C213.036 159.033 213.372 158.725 213.792 158.51C214.221 158.295 214.693 158.188 215.206 158.188C215.85 158.188 216.419 158.333 216.914 158.622C217.409 158.911 217.777 159.336 218.02 159.896C218.235 159.355 218.589 158.935 219.084 158.636C219.579 158.337 220.129 158.188 220.736 158.188ZM225.108 162.136C225.108 161.352 225.267 160.666 225.584 160.078C225.901 159.481 226.335 159.019 226.886 158.692C227.446 158.365 228.067 158.202 228.748 158.202C229.42 158.202 230.003 158.347 230.498 158.636C230.993 158.925 231.361 159.289 231.604 159.728V158.328H232.892V166H231.604V164.572C231.352 165.02 230.974 165.393 230.47 165.692C229.975 165.981 229.397 166.126 228.734 166.126C228.053 166.126 227.437 165.958 226.886 165.622C226.335 165.286 225.901 164.815 225.584 164.208C225.267 163.601 225.108 162.911 225.108 162.136ZM231.604 162.15C231.604 161.571 231.487 161.067 231.254 160.638C231.021 160.209 230.703 159.882 230.302 159.658C229.91 159.425 229.476 159.308 229 159.308C228.524 159.308 228.09 159.42 227.698 159.644C227.306 159.868 226.993 160.195 226.76 160.624C226.527 161.053 226.41 161.557 226.41 162.136C226.41 162.724 226.527 163.237 226.76 163.676C226.993 164.105 227.306 164.437 227.698 164.67C228.09 164.894 228.524 165.006 229 165.006C229.476 165.006 229.91 164.894 230.302 164.67C230.703 164.437 231.021 164.105 231.254 163.676C231.487 163.237 231.604 162.729 231.604 162.15ZM237.411 166.126C236.823 166.126 236.295 166.028 235.829 165.832C235.362 165.627 234.993 165.347 234.723 164.992C234.452 164.628 234.303 164.213 234.275 163.746H235.591C235.628 164.129 235.805 164.441 236.123 164.684C236.449 164.927 236.874 165.048 237.397 165.048C237.882 165.048 238.265 164.941 238.545 164.726C238.825 164.511 238.965 164.241 238.965 163.914C238.965 163.578 238.815 163.331 238.517 163.172C238.218 163.004 237.756 162.841 237.131 162.682C236.561 162.533 236.095 162.383 235.731 162.234C235.376 162.075 235.068 161.847 234.807 161.548C234.555 161.24 234.429 160.839 234.429 160.344C234.429 159.952 234.545 159.593 234.779 159.266C235.012 158.939 235.343 158.683 235.773 158.496C236.202 158.3 236.692 158.202 237.243 158.202C238.092 158.202 238.778 158.417 239.301 158.846C239.823 159.275 240.103 159.863 240.141 160.61H238.867C238.839 160.209 238.675 159.887 238.377 159.644C238.087 159.401 237.695 159.28 237.201 159.28C236.743 159.28 236.379 159.378 236.109 159.574C235.838 159.77 235.703 160.027 235.703 160.344C235.703 160.596 235.782 160.806 235.941 160.974C236.109 161.133 236.314 161.263 236.557 161.366C236.809 161.459 237.154 161.567 237.593 161.688C238.143 161.837 238.591 161.987 238.937 162.136C239.282 162.276 239.576 162.491 239.819 162.78C240.071 163.069 240.201 163.447 240.211 163.914C240.211 164.334 240.094 164.712 239.861 165.048C239.627 165.384 239.296 165.65 238.867 165.846C238.447 166.033 237.961 166.126 237.411 166.126ZM248.463 158.328V166H247.189V164.866C246.947 165.258 246.606 165.566 246.167 165.79C245.738 166.005 245.262 166.112 244.739 166.112C244.142 166.112 243.605 165.991 243.129 165.748C242.653 165.496 242.275 165.123 241.995 164.628C241.725 164.133 241.589 163.531 241.589 162.822V158.328H242.849V162.654C242.849 163.41 243.041 163.993 243.423 164.404C243.806 164.805 244.329 165.006 244.991 165.006C245.673 165.006 246.209 164.796 246.601 164.376C246.993 163.956 247.189 163.345 247.189 162.542V158.328H248.463ZM254.548 166L251.538 162.612V166H250.264V155.64H251.538V161.73L254.492 158.328H256.27L252.658 162.15L256.284 166H254.548ZM266.746 156.984H261.832V160.176C262.046 159.877 262.364 159.635 262.784 159.448C263.204 159.252 263.656 159.154 264.142 159.154C264.916 159.154 265.546 159.317 266.032 159.644C266.517 159.961 266.862 160.377 267.068 160.89C267.282 161.394 267.39 161.931 267.39 162.5C267.39 163.172 267.264 163.774 267.012 164.306C266.76 164.838 266.372 165.258 265.85 165.566C265.336 165.874 264.697 166.028 263.932 166.028C262.952 166.028 262.158 165.776 261.552 165.272C260.945 164.768 260.576 164.096 260.446 163.256H261.692C261.813 163.788 262.07 164.203 262.462 164.502C262.854 164.801 263.348 164.95 263.946 164.95C264.683 164.95 265.238 164.731 265.612 164.292C265.985 163.844 266.172 163.256 266.172 162.528C266.172 161.8 265.985 161.24 265.612 160.848C265.238 160.447 264.688 160.246 263.96 160.246C263.465 160.246 263.031 160.367 262.658 160.61C262.294 160.843 262.028 161.165 261.86 161.576H260.656V155.864H266.746V156.984ZM273.599 159.756C273.861 159.299 274.243 158.925 274.747 158.636C275.251 158.347 275.825 158.202 276.469 158.202C277.16 158.202 277.781 158.365 278.331 158.692C278.882 159.019 279.316 159.481 279.633 160.078C279.951 160.666 280.109 161.352 280.109 162.136C280.109 162.911 279.951 163.601 279.633 164.208C279.316 164.815 278.877 165.286 278.317 165.622C277.767 165.958 277.151 166.126 276.469 166.126C275.807 166.126 275.223 165.981 274.719 165.692C274.225 165.403 273.851 165.034 273.599 164.586V166H272.325V155.64H273.599V159.756ZM278.807 162.136C278.807 161.557 278.691 161.053 278.457 160.624C278.224 160.195 277.907 159.868 277.505 159.644C277.113 159.42 276.679 159.308 276.203 159.308C275.737 159.308 275.303 159.425 274.901 159.658C274.509 159.882 274.192 160.213 273.949 160.652C273.716 161.081 273.599 161.581 273.599 162.15C273.599 162.729 273.716 163.237 273.949 163.676C274.192 164.105 274.509 164.437 274.901 164.67C275.303 164.894 275.737 165.006 276.203 165.006C276.679 165.006 277.113 164.894 277.505 164.67C277.907 164.437 278.224 164.105 278.457 163.676C278.691 163.237 278.807 162.724 278.807 162.136ZM288.436 161.87C288.436 162.113 288.422 162.369 288.394 162.64H282.262C282.309 163.396 282.566 163.989 283.032 164.418C283.508 164.838 284.082 165.048 284.754 165.048C285.305 165.048 285.762 164.922 286.126 164.67C286.5 164.409 286.761 164.063 286.91 163.634H288.282C288.077 164.371 287.666 164.973 287.05 165.44C286.434 165.897 285.669 166.126 284.754 166.126C284.026 166.126 283.373 165.963 282.794 165.636C282.225 165.309 281.777 164.847 281.45 164.25C281.124 163.643 280.96 162.943 280.96 162.15C280.96 161.357 281.119 160.661 281.436 160.064C281.754 159.467 282.197 159.009 282.766 158.692C283.345 158.365 284.008 158.202 284.754 158.202C285.482 158.202 286.126 158.361 286.686 158.678C287.246 158.995 287.676 159.434 287.974 159.994C288.282 160.545 288.436 161.17 288.436 161.87ZM287.12 161.604C287.12 161.119 287.013 160.703 286.798 160.358C286.584 160.003 286.29 159.737 285.916 159.56C285.552 159.373 285.146 159.28 284.698 159.28C284.054 159.28 283.504 159.485 283.046 159.896C282.598 160.307 282.342 160.876 282.276 161.604H287.12ZM292.484 166.126C291.896 166.126 291.369 166.028 290.902 165.832C290.435 165.627 290.067 165.347 289.796 164.992C289.525 164.628 289.376 164.213 289.348 163.746H290.664C290.701 164.129 290.879 164.441 291.196 164.684C291.523 164.927 291.947 165.048 292.47 165.048C292.955 165.048 293.338 164.941 293.618 164.726C293.898 164.511 294.038 164.241 294.038 163.914C294.038 163.578 293.889 163.331 293.59 163.172C293.291 163.004 292.829 162.841 292.204 162.682C291.635 162.533 291.168 162.383 290.804 162.234C290.449 162.075 290.141 161.847 289.88 161.548C289.628 161.24 289.502 160.839 289.502 160.344C289.502 159.952 289.619 159.593 289.852 159.266C290.085 158.939 290.417 158.683 290.846 158.496C291.275 158.3 291.765 158.202 292.316 158.202C293.165 158.202 293.851 158.417 294.374 158.846C294.897 159.275 295.177 159.863 295.214 160.61H293.94C293.912 160.209 293.749 159.887 293.45 159.644C293.161 159.401 292.769 159.28 292.274 159.28C291.817 159.28 291.453 159.378 291.182 159.574C290.911 159.77 290.776 160.027 290.776 160.344C290.776 160.596 290.855 160.806 291.014 160.974C291.182 161.133 291.387 161.263 291.63 161.366C291.882 161.459 292.227 161.567 292.666 161.688C293.217 161.837 293.665 161.987 294.01 162.136C294.355 162.276 294.649 162.491 294.892 162.78C295.144 163.069 295.275 163.447 295.284 163.914C295.284 164.334 295.167 164.712 294.934 165.048C294.701 165.384 294.369 165.65 293.94 165.846C293.52 166.033 293.035 166.126 292.484 166.126ZM296.256 162.136C296.256 161.352 296.415 160.666 296.732 160.078C297.05 159.481 297.484 159.019 298.034 158.692C298.594 158.365 299.215 158.202 299.896 158.202C300.568 158.202 301.152 158.347 301.646 158.636C302.141 158.925 302.51 159.289 302.752 159.728V158.328H304.04V166H302.752V164.572C302.5 165.02 302.122 165.393 301.618 165.692C301.124 165.981 300.545 166.126 299.882 166.126C299.201 166.126 298.585 165.958 298.034 165.622C297.484 165.286 297.05 164.815 296.732 164.208C296.415 163.601 296.256 162.911 296.256 162.136ZM302.752 162.15C302.752 161.571 302.636 161.067 302.402 160.638C302.169 160.209 301.852 159.882 301.45 159.658C301.058 159.425 300.624 159.308 300.148 159.308C299.672 159.308 299.238 159.42 298.846 159.644C298.454 159.868 298.142 160.195 297.908 160.624C297.675 161.053 297.558 161.557 297.558 162.136C297.558 162.724 297.675 163.237 297.908 163.676C298.142 164.105 298.454 164.437 298.846 164.67C299.238 164.894 299.672 165.006 300.148 165.006C300.624 165.006 301.058 164.894 301.45 164.67C301.852 164.437 302.169 164.105 302.402 163.676C302.636 163.237 302.752 162.729 302.752 162.15ZM307.117 159.574C307.341 159.135 307.659 158.795 308.069 158.552C308.489 158.309 308.998 158.188 309.595 158.188V159.504H309.259C307.831 159.504 307.117 160.279 307.117 161.828V166H305.843V158.328H307.117V159.574ZM100.984 177.136C100.984 176.352 101.142 175.666 101.46 175.078C101.777 174.481 102.211 174.019 102.762 173.692C103.322 173.365 103.947 173.202 104.638 173.202C105.235 173.202 105.79 173.342 106.304 173.622C106.817 173.893 107.209 174.252 107.48 174.7V170.64H108.768V181H107.48V179.558C107.228 180.015 106.854 180.393 106.36 180.692C105.865 180.981 105.286 181.126 104.624 181.126C103.942 181.126 103.322 180.958 102.762 180.622C102.211 180.286 101.777 179.815 101.46 179.208C101.142 178.601 100.984 177.911 100.984 177.136ZM107.48 177.15C107.48 176.571 107.363 176.067 107.13 175.638C106.896 175.209 106.579 174.882 106.178 174.658C105.786 174.425 105.352 174.308 104.876 174.308C104.4 174.308 103.966 174.42 103.574 174.644C103.182 174.868 102.869 175.195 102.636 175.624C102.402 176.053 102.286 176.557 102.286 177.136C102.286 177.724 102.402 178.237 102.636 178.676C102.869 179.105 103.182 179.437 103.574 179.67C103.966 179.894 104.4 180.006 104.876 180.006C105.352 180.006 105.786 179.894 106.178 179.67C106.579 179.437 106.896 179.105 107.13 178.676C107.363 178.237 107.48 177.729 107.48 177.15ZM111.229 172.082C110.986 172.082 110.781 171.998 110.613 171.83C110.445 171.662 110.361 171.457 110.361 171.214C110.361 170.971 110.445 170.766 110.613 170.598C110.781 170.43 110.986 170.346 111.229 170.346C111.462 170.346 111.658 170.43 111.817 170.598C111.985 170.766 112.069 170.971 112.069 171.214C112.069 171.457 111.985 171.662 111.817 171.83C111.658 171.998 111.462 172.082 111.229 172.082ZM111.845 173.328V181H110.571V173.328H111.845ZM119.764 181.126C119.176 181.126 118.649 181.028 118.182 180.832C117.716 180.627 117.347 180.347 117.076 179.992C116.806 179.628 116.656 179.213 116.628 178.746H117.944C117.982 179.129 118.159 179.441 118.476 179.684C118.803 179.927 119.228 180.048 119.75 180.048C120.236 180.048 120.618 179.941 120.898 179.726C121.178 179.511 121.318 179.241 121.318 178.914C121.318 178.578 121.169 178.331 120.87 178.172C120.572 178.004 120.11 177.841 119.484 177.682C118.915 177.533 118.448 177.383 118.084 177.234C117.73 177.075 117.422 176.847 117.16 176.548C116.908 176.24 116.782 175.839 116.782 175.344C116.782 174.952 116.899 174.593 117.132 174.266C117.366 173.939 117.697 173.683 118.126 173.496C118.556 173.3 119.046 173.202 119.596 173.202C120.446 173.202 121.132 173.417 121.654 173.846C122.177 174.275 122.457 174.863 122.494 175.61H121.22C121.192 175.209 121.029 174.887 120.73 174.644C120.441 174.401 120.049 174.28 119.554 174.28C119.097 174.28 118.733 174.378 118.462 174.574C118.192 174.77 118.056 175.027 118.056 175.344C118.056 175.596 118.136 175.806 118.294 175.974C118.462 176.133 118.668 176.263 118.91 176.366C119.162 176.459 119.508 176.567 119.946 176.688C120.497 176.837 120.945 176.987 121.29 177.136C121.636 177.276 121.93 177.491 122.172 177.78C122.424 178.069 122.555 178.447 122.564 178.914C122.564 179.334 122.448 179.712 122.214 180.048C121.981 180.384 121.65 180.65 121.22 180.846C120.8 181.033 120.315 181.126 119.764 181.126ZM131.013 176.87C131.013 177.113 130.999 177.369 130.971 177.64H124.839C124.885 178.396 125.142 178.989 125.609 179.418C126.085 179.838 126.659 180.048 127.331 180.048C127.881 180.048 128.339 179.922 128.703 179.67C129.076 179.409 129.337 179.063 129.487 178.634H130.859C130.653 179.371 130.243 179.973 129.627 180.44C129.011 180.897 128.245 181.126 127.331 181.126C126.603 181.126 125.949 180.963 125.371 180.636C124.801 180.309 124.353 179.847 124.027 179.25C123.7 178.643 123.537 177.943 123.537 177.15C123.537 176.357 123.695 175.661 124.013 175.064C124.33 174.467 124.773 174.009 125.343 173.692C125.921 173.365 126.584 173.202 127.331 173.202C128.059 173.202 128.703 173.361 129.263 173.678C129.823 173.995 130.252 174.434 130.551 174.994C130.859 175.545 131.013 176.17 131.013 176.87ZM129.697 176.604C129.697 176.119 129.589 175.703 129.375 175.358C129.16 175.003 128.866 174.737 128.493 174.56C128.129 174.373 127.723 174.28 127.275 174.28C126.631 174.28 126.08 174.485 125.623 174.896C125.175 175.307 124.918 175.876 124.853 176.604H129.697ZM136.628 181L133.618 177.612V181H132.344V170.64H133.618V176.73L136.572 173.328H138.35L134.738 177.15L138.364 181H136.628ZM142.545 181.126C141.827 181.126 141.173 180.963 140.585 180.636C140.007 180.309 139.549 179.847 139.213 179.25C138.887 178.643 138.723 177.943 138.723 177.15C138.723 176.366 138.891 175.675 139.227 175.078C139.573 174.471 140.039 174.009 140.627 173.692C141.215 173.365 141.873 173.202 142.601 173.202C143.329 173.202 143.987 173.365 144.575 173.692C145.163 174.009 145.625 174.467 145.961 175.064C146.307 175.661 146.479 176.357 146.479 177.15C146.479 177.943 146.302 178.643 145.947 179.25C145.602 179.847 145.131 180.309 144.533 180.636C143.936 180.963 143.273 181.126 142.545 181.126ZM142.545 180.006C143.003 180.006 143.432 179.899 143.833 179.684C144.235 179.469 144.557 179.147 144.799 178.718C145.051 178.289 145.177 177.766 145.177 177.15C145.177 176.534 145.056 176.011 144.813 175.582C144.571 175.153 144.253 174.835 143.861 174.63C143.469 174.415 143.045 174.308 142.587 174.308C142.121 174.308 141.691 174.415 141.299 174.63C140.917 174.835 140.609 175.153 140.375 175.582C140.142 176.011 140.025 176.534 140.025 177.15C140.025 177.775 140.137 178.303 140.361 178.732C140.595 179.161 140.903 179.483 141.285 179.698C141.668 179.903 142.088 180.006 142.545 180.006ZM149.079 170.64V181H147.805V170.64H149.079ZM150.424 177.136C150.424 176.352 150.583 175.666 150.9 175.078C151.217 174.481 151.651 174.019 152.202 173.692C152.762 173.365 153.383 173.202 154.064 173.202C154.736 173.202 155.319 173.347 155.814 173.636C156.309 173.925 156.677 174.289 156.92 174.728V173.328H158.208V181H156.92V179.572C156.668 180.02 156.29 180.393 155.786 180.692C155.291 180.981 154.713 181.126 154.05 181.126C153.369 181.126 152.753 180.958 152.202 180.622C151.651 180.286 151.217 179.815 150.9 179.208C150.583 178.601 150.424 177.911 150.424 177.136ZM156.92 177.15C156.92 176.571 156.803 176.067 156.57 175.638C156.337 175.209 156.019 174.882 155.618 174.658C155.226 174.425 154.792 174.308 154.316 174.308C153.84 174.308 153.406 174.42 153.014 174.644C152.622 174.868 152.309 175.195 152.076 175.624C151.843 176.053 151.726 176.557 151.726 177.136C151.726 177.724 151.843 178.237 152.076 178.676C152.309 179.105 152.622 179.437 153.014 179.67C153.406 179.894 153.84 180.006 154.316 180.006C154.792 180.006 155.226 179.894 155.618 179.67C156.019 179.437 156.337 179.105 156.57 178.676C156.803 178.237 156.92 177.729 156.92 177.15ZM163.819 173.188C164.397 173.188 164.92 173.314 165.387 173.566C165.853 173.809 166.217 174.177 166.479 174.672C166.749 175.167 166.885 175.769 166.885 176.478V181H165.625V176.66C165.625 175.895 165.433 175.311 165.051 174.91C164.668 174.499 164.145 174.294 163.483 174.294C162.811 174.294 162.274 174.504 161.873 174.924C161.481 175.344 161.285 175.955 161.285 176.758V181H160.011V170.64H161.285V174.42C161.537 174.028 161.882 173.725 162.321 173.51C162.769 173.295 163.268 173.188 163.819 173.188ZM173.272 174.756C173.534 174.299 173.916 173.925 174.42 173.636C174.924 173.347 175.498 173.202 176.142 173.202C176.833 173.202 177.454 173.365 178.004 173.692C178.555 174.019 178.989 174.481 179.306 175.078C179.624 175.666 179.782 176.352 179.782 177.136C179.782 177.911 179.624 178.601 179.306 179.208C178.989 179.815 178.55 180.286 177.99 180.622C177.44 180.958 176.824 181.126 176.142 181.126C175.48 181.126 174.896 180.981 174.392 180.692C173.898 180.403 173.524 180.034 173.272 179.586V181H171.998V170.64H173.272V174.756ZM178.48 177.136C178.48 176.557 178.364 176.053 178.13 175.624C177.897 175.195 177.58 174.868 177.178 174.644C176.786 174.42 176.352 174.308 175.876 174.308C175.41 174.308 174.976 174.425 174.574 174.658C174.182 174.882 173.865 175.213 173.622 175.652C173.389 176.081 173.272 176.581 173.272 177.15C173.272 177.729 173.389 178.237 173.622 178.676C173.865 179.105 174.182 179.437 174.574 179.67C174.976 179.894 175.41 180.006 175.876 180.006C176.352 180.006 176.786 179.894 177.178 179.67C177.58 179.437 177.897 179.105 178.13 178.676C178.364 178.237 178.48 177.724 178.48 177.136ZM180.633 177.136C180.633 176.352 180.792 175.666 181.109 175.078C181.427 174.481 181.861 174.019 182.411 173.692C182.971 173.365 183.592 173.202 184.273 173.202C184.945 173.202 185.529 173.347 186.023 173.636C186.518 173.925 186.887 174.289 187.129 174.728V173.328H188.417V181H187.129V179.572C186.877 180.02 186.499 180.393 185.995 180.692C185.501 180.981 184.922 181.126 184.259 181.126C183.578 181.126 182.962 180.958 182.411 180.622C181.861 180.286 181.427 179.815 181.109 179.208C180.792 178.601 180.633 177.911 180.633 177.136ZM187.129 177.15C187.129 176.571 187.013 176.067 186.779 175.638C186.546 175.209 186.229 174.882 185.827 174.658C185.435 174.425 185.001 174.308 184.525 174.308C184.049 174.308 183.615 174.42 183.223 174.644C182.831 174.868 182.519 175.195 182.285 175.624C182.052 176.053 181.935 176.557 181.935 177.136C181.935 177.724 182.052 178.237 182.285 178.676C182.519 179.105 182.831 179.437 183.223 179.67C183.615 179.894 184.049 180.006 184.525 180.006C185.001 180.006 185.435 179.894 185.827 179.67C186.229 179.437 186.546 179.105 186.779 178.676C187.013 178.237 187.129 177.729 187.129 177.15ZM194.504 181L191.494 177.612V181H190.22V170.64H191.494V176.73L194.448 173.328H196.226L192.614 177.15L196.24 181H194.504ZM196.599 177.136C196.599 176.352 196.758 175.666 197.075 175.078C197.393 174.481 197.827 174.019 198.377 173.692C198.937 173.365 199.558 173.202 200.239 173.202C200.911 173.202 201.495 173.347 201.989 173.636C202.484 173.925 202.853 174.289 203.095 174.728V173.328H204.383V181H203.095V179.572C202.843 180.02 202.465 180.393 201.961 180.692C201.467 180.981 200.888 181.126 200.225 181.126C199.544 181.126 198.928 180.958 198.377 180.622C197.827 180.286 197.393 179.815 197.075 179.208C196.758 178.601 196.599 177.911 196.599 177.136ZM203.095 177.15C203.095 176.571 202.979 176.067 202.745 175.638C202.512 175.209 202.195 174.882 201.793 174.658C201.401 174.425 200.967 174.308 200.491 174.308C200.015 174.308 199.581 174.42 199.189 174.644C198.797 174.868 198.485 175.195 198.251 175.624C198.018 176.053 197.901 176.557 197.901 177.136C197.901 177.724 198.018 178.237 198.251 178.676C198.485 179.105 198.797 179.437 199.189 179.67C199.581 179.894 200.015 180.006 200.491 180.006C200.967 180.006 201.401 179.894 201.793 179.67C202.195 179.437 202.512 179.105 202.745 178.676C202.979 178.237 203.095 177.729 203.095 177.15ZM207.46 170.64V181H206.186V170.64H207.46ZM212.188 177.136C212.188 176.352 212.347 175.666 212.664 175.078C212.981 174.481 213.415 174.019 213.966 173.692C214.526 173.365 215.151 173.202 215.842 173.202C216.439 173.202 216.995 173.342 217.508 173.622C218.021 173.893 218.413 174.252 218.684 174.7V170.64H219.972V181H218.684V179.558C218.432 180.015 218.059 180.393 217.564 180.692C217.069 180.981 216.491 181.126 215.828 181.126C215.147 181.126 214.526 180.958 213.966 180.622C213.415 180.286 212.981 179.815 212.664 179.208C212.347 178.601 212.188 177.911 212.188 177.136ZM218.684 177.15C218.684 176.571 218.567 176.067 218.334 175.638C218.101 175.209 217.783 174.882 217.382 174.658C216.99 174.425 216.556 174.308 216.08 174.308C215.604 174.308 215.17 174.42 214.778 174.644C214.386 174.868 214.073 175.195 213.84 175.624C213.607 176.053 213.49 176.557 213.49 177.136C213.49 177.724 213.607 178.237 213.84 178.676C214.073 179.105 214.386 179.437 214.778 179.67C215.17 179.894 215.604 180.006 216.08 180.006C216.556 180.006 216.99 179.894 217.382 179.67C217.783 179.437 218.101 179.105 218.334 178.676C218.567 178.237 218.684 177.729 218.684 177.15ZM221.299 177.136C221.299 176.352 221.458 175.666 221.775 175.078C222.092 174.481 222.526 174.019 223.077 173.692C223.637 173.365 224.258 173.202 224.939 173.202C225.611 173.202 226.194 173.347 226.689 173.636C227.184 173.925 227.552 174.289 227.795 174.728V173.328H229.083V181H227.795V179.572C227.543 180.02 227.165 180.393 226.661 180.692C226.166 180.981 225.588 181.126 224.925 181.126C224.244 181.126 223.628 180.958 223.077 180.622C222.526 180.286 222.092 179.815 221.775 179.208C221.458 178.601 221.299 177.911 221.299 177.136ZM227.795 177.15C227.795 176.571 227.678 176.067 227.445 175.638C227.212 175.209 226.894 174.882 226.493 174.658C226.101 174.425 225.667 174.308 225.191 174.308C224.715 174.308 224.281 174.42 223.889 174.644C223.497 174.868 223.184 175.195 222.951 175.624C222.718 176.053 222.601 176.557 222.601 177.136C222.601 177.724 222.718 178.237 222.951 178.676C223.184 179.105 223.497 179.437 223.889 179.67C224.281 179.894 224.715 180.006 225.191 180.006C225.667 180.006 226.101 179.894 226.493 179.67C226.894 179.437 227.212 179.105 227.445 178.676C227.678 178.237 227.795 177.729 227.795 177.15ZM232.16 174.742C232.412 174.303 232.785 173.939 233.28 173.65C233.784 173.351 234.367 173.202 235.03 173.202C235.711 173.202 236.327 173.365 236.878 173.692C237.438 174.019 237.876 174.481 238.194 175.078C238.511 175.666 238.67 176.352 238.67 177.136C238.67 177.911 238.511 178.601 238.194 179.208C237.876 179.815 237.438 180.286 236.878 180.622C236.327 180.958 235.711 181.126 235.03 181.126C234.376 181.126 233.798 180.981 233.294 180.692C232.799 180.393 232.421 180.025 232.16 179.586V184.64H230.886V173.328H232.16V174.742ZM237.368 177.136C237.368 176.557 237.251 176.053 237.018 175.624C236.784 175.195 236.467 174.868 236.066 174.644C235.674 174.42 235.24 174.308 234.764 174.308C234.297 174.308 233.863 174.425 233.462 174.658C233.07 174.882 232.752 175.213 232.51 175.652C232.276 176.081 232.16 176.581 232.16 177.15C232.16 177.729 232.276 178.237 232.51 178.676C232.752 179.105 233.07 179.437 233.462 179.67C233.863 179.894 234.297 180.006 234.764 180.006C235.24 180.006 235.674 179.894 236.066 179.67C236.467 179.437 236.784 179.105 237.018 178.676C237.251 178.237 237.368 177.724 237.368 177.136ZM246.997 176.87C246.997 177.113 246.983 177.369 246.955 177.64H240.823C240.869 178.396 241.126 178.989 241.593 179.418C242.069 179.838 242.643 180.048 243.315 180.048C243.865 180.048 244.323 179.922 244.687 179.67C245.06 179.409 245.321 179.063 245.471 178.634H246.843C246.637 179.371 246.227 179.973 245.611 180.44C244.995 180.897 244.229 181.126 243.315 181.126C242.587 181.126 241.933 180.963 241.355 180.636C240.785 180.309 240.337 179.847 240.011 179.25C239.684 178.643 239.521 177.943 239.521 177.15C239.521 176.357 239.679 175.661 239.997 175.064C240.314 174.467 240.757 174.009 241.327 173.692C241.905 173.365 242.568 173.202 243.315 173.202C244.043 173.202 244.687 173.361 245.247 173.678C245.807 173.995 246.236 174.434 246.535 174.994C246.843 175.545 246.997 176.17 246.997 176.87ZM245.681 176.604C245.681 176.119 245.573 175.703 245.359 175.358C245.144 175.003 244.85 174.737 244.477 174.56C244.113 174.373 243.707 174.28 243.259 174.28C242.615 174.28 242.064 174.485 241.607 174.896C241.159 175.307 240.902 175.876 240.837 176.604H245.681ZM249.882 174.378V178.9C249.882 179.273 249.962 179.539 250.12 179.698C250.279 179.847 250.554 179.922 250.946 179.922H251.884V181H250.736C250.027 181 249.495 180.837 249.14 180.51C248.786 180.183 248.608 179.647 248.608 178.9V174.378H247.614V173.328H248.608V171.396H249.882V173.328H251.884V174.378H249.882ZM255.984 177.136C255.984 176.352 256.143 175.666 256.46 175.078C256.778 174.481 257.212 174.019 257.762 173.692C258.322 173.365 258.948 173.202 259.638 173.202C260.236 173.202 260.791 173.342 261.304 173.622C261.818 173.893 262.21 174.252 262.48 174.7V170.64H263.768V181H262.48V179.558C262.228 180.015 261.855 180.393 261.36 180.692C260.866 180.981 260.287 181.126 259.624 181.126C258.943 181.126 258.322 180.958 257.762 180.622C257.212 180.286 256.778 179.815 256.46 179.208C256.143 178.601 255.984 177.911 255.984 177.136ZM262.48 177.15C262.48 176.571 262.364 176.067 262.13 175.638C261.897 175.209 261.58 174.882 261.178 174.658C260.786 174.425 260.352 174.308 259.876 174.308C259.4 174.308 258.966 174.42 258.574 174.644C258.182 174.868 257.87 175.195 257.636 175.624C257.403 176.053 257.286 176.557 257.286 177.136C257.286 177.724 257.403 178.237 257.636 178.676C257.87 179.105 258.182 179.437 258.574 179.67C258.966 179.894 259.4 180.006 259.876 180.006C260.352 180.006 260.786 179.894 261.178 179.67C261.58 179.437 261.897 179.105 262.13 178.676C262.364 178.237 262.48 177.729 262.48 177.15ZM266.229 172.082C265.987 172.082 265.781 171.998 265.613 171.83C265.445 171.662 265.361 171.457 265.361 171.214C265.361 170.971 265.445 170.766 265.613 170.598C265.781 170.43 265.987 170.346 266.229 170.346C266.463 170.346 266.659 170.43 266.817 170.598C266.985 170.766 267.069 170.971 267.069 171.214C267.069 171.457 266.985 171.662 266.817 171.83C266.659 171.998 266.463 172.082 266.229 172.082ZM266.845 173.328V181H265.571V173.328H266.845ZM271.383 181.126C270.795 181.126 270.267 181.028 269.801 180.832C269.334 180.627 268.965 180.347 268.695 179.992C268.424 179.628 268.275 179.213 268.247 178.746H269.563C269.6 179.129 269.777 179.441 270.095 179.684C270.421 179.927 270.846 180.048 271.369 180.048C271.854 180.048 272.237 179.941 272.517 179.726C272.797 179.511 272.937 179.241 272.937 178.914C272.937 178.578 272.787 178.331 272.489 178.172C272.19 178.004 271.728 177.841 271.103 177.682C270.533 177.533 270.067 177.383 269.703 177.234C269.348 177.075 269.04 176.847 268.779 176.548C268.527 176.24 268.401 175.839 268.401 175.344C268.401 174.952 268.517 174.593 268.751 174.266C268.984 173.939 269.315 173.683 269.745 173.496C270.174 173.3 270.664 173.202 271.215 173.202C272.064 173.202 272.75 173.417 273.273 173.846C273.795 174.275 274.075 174.863 274.113 175.61H272.839C272.811 175.209 272.647 174.887 272.349 174.644C272.059 174.401 271.667 174.28 271.173 174.28C270.715 174.28 270.351 174.378 270.081 174.574C269.81 174.77 269.675 175.027 269.675 175.344C269.675 175.596 269.754 175.806 269.913 175.974C270.081 176.133 270.286 176.263 270.529 176.366C270.781 176.459 271.126 176.567 271.565 176.688C272.115 176.837 272.563 176.987 272.909 177.136C273.254 177.276 273.548 177.491 273.791 177.78C274.043 178.069 274.173 178.447 274.183 178.914C274.183 179.334 274.066 179.712 273.833 180.048C273.599 180.384 273.268 180.65 272.839 180.846C272.419 181.033 271.933 181.126 271.383 181.126ZM279.915 181L276.905 177.612V181H275.631V170.64H276.905V176.73L279.859 173.328H281.637L278.025 177.15L281.651 181H279.915ZM285.832 181.126C285.114 181.126 284.46 180.963 283.872 180.636C283.294 180.309 282.836 179.847 282.5 179.25C282.174 178.643 282.01 177.943 282.01 177.15C282.01 176.366 282.178 175.675 282.514 175.078C282.86 174.471 283.326 174.009 283.914 173.692C284.502 173.365 285.16 173.202 285.888 173.202C286.616 173.202 287.274 173.365 287.862 173.692C288.45 174.009 288.912 174.467 289.248 175.064C289.594 175.661 289.766 176.357 289.766 177.15C289.766 177.943 289.589 178.643 289.234 179.25C288.889 179.847 288.418 180.309 287.82 180.636C287.223 180.963 286.56 181.126 285.832 181.126ZM285.832 180.006C286.29 180.006 286.719 179.899 287.12 179.684C287.522 179.469 287.844 179.147 288.086 178.718C288.338 178.289 288.464 177.766 288.464 177.15C288.464 176.534 288.343 176.011 288.1 175.582C287.858 175.153 287.54 174.835 287.148 174.63C286.756 174.415 286.332 174.308 285.874 174.308C285.408 174.308 284.978 174.415 284.586 174.63C284.204 174.835 283.896 175.153 283.662 175.582C283.429 176.011 283.312 176.534 283.312 177.15C283.312 177.775 283.424 178.303 283.648 178.732C283.882 179.161 284.19 179.483 284.572 179.698C284.955 179.903 285.375 180.006 285.832 180.006ZM294.829 173.188C295.763 173.188 296.519 173.473 297.097 174.042C297.676 174.602 297.965 175.414 297.965 176.478V181H296.705V176.66C296.705 175.895 296.514 175.311 296.131 174.91C295.749 174.499 295.226 174.294 294.563 174.294C293.891 174.294 293.355 174.504 292.953 174.924C292.561 175.344 292.365 175.955 292.365 176.758V181H291.091V173.328H292.365V174.42C292.617 174.028 292.958 173.725 293.387 173.51C293.826 173.295 294.307 173.188 294.829 173.188ZM112.362 189.378V193.9C112.362 194.273 112.442 194.539 112.6 194.698C112.759 194.847 113.034 194.922 113.426 194.922H114.364V196H113.216C112.507 196 111.975 195.837 111.62 195.51C111.266 195.183 111.088 194.647 111.088 193.9V189.378H110.094V188.328H111.088V186.396H112.362V188.328H114.364V189.378H112.362ZM115.082 192.136C115.082 191.352 115.241 190.666 115.558 190.078C115.875 189.481 116.309 189.019 116.86 188.692C117.42 188.365 118.041 188.202 118.722 188.202C119.394 188.202 119.977 188.347 120.472 188.636C120.967 188.925 121.335 189.289 121.578 189.728V188.328H122.866V196H121.578V194.572C121.326 195.02 120.948 195.393 120.444 195.692C119.949 195.981 119.371 196.126 118.708 196.126C118.027 196.126 117.411 195.958 116.86 195.622C116.309 195.286 115.875 194.815 115.558 194.208C115.241 193.601 115.082 192.911 115.082 192.136ZM121.578 192.15C121.578 191.571 121.461 191.067 121.228 190.638C120.995 190.209 120.677 189.882 120.276 189.658C119.884 189.425 119.45 189.308 118.974 189.308C118.498 189.308 118.064 189.42 117.672 189.644C117.28 189.868 116.967 190.195 116.734 190.624C116.501 191.053 116.384 191.557 116.384 192.136C116.384 192.724 116.501 193.237 116.734 193.676C116.967 194.105 117.28 194.437 117.672 194.67C118.064 194.894 118.498 195.006 118.974 195.006C119.45 195.006 119.884 194.894 120.276 194.67C120.677 194.437 120.995 194.105 121.228 193.676C121.461 193.237 121.578 192.729 121.578 192.15ZM133.895 188.188C134.492 188.188 135.024 188.314 135.491 188.566C135.958 188.809 136.326 189.177 136.597 189.672C136.868 190.167 137.003 190.769 137.003 191.478V196H135.743V191.66C135.743 190.895 135.552 190.311 135.169 189.91C134.796 189.499 134.287 189.294 133.643 189.294C132.98 189.294 132.453 189.509 132.061 189.938C131.669 190.358 131.473 190.969 131.473 191.772V196H130.213V191.66C130.213 190.895 130.022 190.311 129.639 189.91C129.266 189.499 128.757 189.294 128.113 189.294C127.45 189.294 126.923 189.509 126.531 189.938C126.139 190.358 125.943 190.969 125.943 191.772V196H124.669V188.328H125.943V189.434C126.195 189.033 126.531 188.725 126.951 188.51C127.38 188.295 127.852 188.188 128.365 188.188C129.009 188.188 129.578 188.333 130.073 188.622C130.568 188.911 130.936 189.336 131.179 189.896C131.394 189.355 131.748 188.935 132.243 188.636C132.738 188.337 133.288 188.188 133.895 188.188ZM140.017 189.756C140.278 189.299 140.661 188.925 141.165 188.636C141.669 188.347 142.243 188.202 142.887 188.202C143.578 188.202 144.198 188.365 144.749 188.692C145.3 189.019 145.734 189.481 146.051 190.078C146.368 190.666 146.527 191.352 146.527 192.136C146.527 192.911 146.368 193.601 146.051 194.208C145.734 194.815 145.295 195.286 144.735 195.622C144.184 195.958 143.568 196.126 142.887 196.126C142.224 196.126 141.641 195.981 141.137 195.692C140.642 195.403 140.269 195.034 140.017 194.586V196H138.743V185.64H140.017V189.756ZM145.225 192.136C145.225 191.557 145.108 191.053 144.875 190.624C144.642 190.195 144.324 189.868 143.923 189.644C143.531 189.42 143.097 189.308 142.621 189.308C142.154 189.308 141.72 189.425 141.319 189.658C140.927 189.882 140.61 190.213 140.367 190.652C140.134 191.081 140.017 191.581 140.017 192.15C140.017 192.729 140.134 193.237 140.367 193.676C140.61 194.105 140.927 194.437 141.319 194.67C141.72 194.894 142.154 195.006 142.621 195.006C143.097 195.006 143.531 194.894 143.923 194.67C144.324 194.437 144.642 194.105 144.875 193.676C145.108 193.237 145.225 192.724 145.225 192.136ZM147.378 192.136C147.378 191.352 147.536 190.666 147.854 190.078C148.171 189.481 148.605 189.019 149.156 188.692C149.716 188.365 150.336 188.202 151.018 188.202C151.69 188.202 152.273 188.347 152.768 188.636C153.262 188.925 153.631 189.289 153.874 189.728V188.328H155.162V196H153.874V194.572C153.622 195.02 153.244 195.393 152.74 195.692C152.245 195.981 151.666 196.126 151.004 196.126C150.322 196.126 149.706 195.958 149.156 195.622C148.605 195.286 148.171 194.815 147.854 194.208C147.536 193.601 147.378 192.911 147.378 192.136ZM153.874 192.15C153.874 191.571 153.757 191.067 153.524 190.638C153.29 190.209 152.973 189.882 152.572 189.658C152.18 189.425 151.746 189.308 151.27 189.308C150.794 189.308 150.36 189.42 149.968 189.644C149.576 189.868 149.263 190.195 149.03 190.624C148.796 191.053 148.68 191.557 148.68 192.136C148.68 192.724 148.796 193.237 149.03 193.676C149.263 194.105 149.576 194.437 149.968 194.67C150.36 194.894 150.794 195.006 151.27 195.006C151.746 195.006 152.18 194.894 152.572 194.67C152.973 194.437 153.29 194.105 153.524 193.676C153.757 193.237 153.874 192.729 153.874 192.15ZM160.773 188.188C161.351 188.188 161.874 188.314 162.341 188.566C162.807 188.809 163.171 189.177 163.433 189.672C163.703 190.167 163.839 190.769 163.839 191.478V196H162.579V191.66C162.579 190.895 162.387 190.311 162.005 189.91C161.622 189.499 161.099 189.294 160.437 189.294C159.765 189.294 159.228 189.504 158.827 189.924C158.435 190.344 158.239 190.955 158.239 191.758V196H156.965V185.64H158.239V189.42C158.491 189.028 158.836 188.725 159.275 188.51C159.723 188.295 160.222 188.188 160.773 188.188ZM165.094 192.136C165.094 191.352 165.252 190.666 165.57 190.078C165.887 189.481 166.321 189.019 166.872 188.692C167.432 188.365 168.052 188.202 168.734 188.202C169.406 188.202 169.989 188.347 170.484 188.636C170.978 188.925 171.347 189.289 171.59 189.728V188.328H172.878V196H171.59V194.572C171.338 195.02 170.96 195.393 170.456 195.692C169.961 195.981 169.382 196.126 168.72 196.126C168.038 196.126 167.422 195.958 166.872 195.622C166.321 195.286 165.887 194.815 165.57 194.208C165.252 193.601 165.094 192.911 165.094 192.136ZM171.59 192.15C171.59 191.571 171.473 191.067 171.24 190.638C171.006 190.209 170.689 189.882 170.288 189.658C169.896 189.425 169.462 189.308 168.986 189.308C168.51 189.308 168.076 189.42 167.684 189.644C167.292 189.868 166.979 190.195 166.746 190.624C166.512 191.053 166.396 191.557 166.396 192.136C166.396 192.724 166.512 193.237 166.746 193.676C166.979 194.105 167.292 194.437 167.684 194.67C168.076 194.894 168.51 195.006 168.986 195.006C169.462 195.006 169.896 194.894 170.288 194.67C170.689 194.437 171.006 194.105 171.24 193.676C171.473 193.237 171.59 192.729 171.59 192.15ZM178.419 188.188C179.352 188.188 180.108 188.473 180.687 189.042C181.265 189.602 181.555 190.414 181.555 191.478V196H180.295V191.66C180.295 190.895 180.103 190.311 179.721 189.91C179.338 189.499 178.815 189.294 178.153 189.294C177.481 189.294 176.944 189.504 176.543 189.924C176.151 190.344 175.955 190.955 175.955 191.758V196H174.681V188.328H175.955V189.42C176.207 189.028 176.547 188.725 176.977 188.51C177.415 188.295 177.896 188.188 178.419 188.188ZM187.942 185.64V196H186.668V185.64H187.942ZM189.288 192.136C189.288 191.352 189.446 190.666 189.764 190.078C190.081 189.481 190.515 189.019 191.066 188.692C191.626 188.365 192.246 188.202 192.928 188.202C193.6 188.202 194.183 188.347 194.678 188.636C195.172 188.925 195.541 189.289 195.784 189.728V188.328H197.072V196H195.784V194.572C195.532 195.02 195.154 195.393 194.65 195.692C194.155 195.981 193.576 196.126 192.914 196.126C192.232 196.126 191.616 195.958 191.066 195.622C190.515 195.286 190.081 194.815 189.764 194.208C189.446 193.601 189.288 192.911 189.288 192.136ZM195.784 192.15C195.784 191.571 195.667 191.067 195.434 190.638C195.2 190.209 194.883 189.882 194.482 189.658C194.09 189.425 193.656 189.308 193.18 189.308C192.704 189.308 192.27 189.42 191.878 189.644C191.486 189.868 191.173 190.195 190.94 190.624C190.706 191.053 190.59 191.557 190.59 192.136C190.59 192.724 190.706 193.237 190.94 193.676C191.173 194.105 191.486 194.437 191.878 194.67C192.27 194.894 192.704 195.006 193.18 195.006C193.656 195.006 194.09 194.894 194.482 194.67C194.883 194.437 195.2 194.105 195.434 193.676C195.667 193.237 195.784 192.729 195.784 192.15ZM202.038 188.202C202.701 188.202 203.28 188.347 203.774 188.636C204.278 188.925 204.652 189.289 204.894 189.728V188.328H206.182V196.168C206.182 196.868 206.033 197.489 205.734 198.03C205.436 198.581 205.006 199.01 204.446 199.318C203.896 199.626 203.252 199.78 202.514 199.78C201.506 199.78 200.666 199.542 199.994 199.066C199.322 198.59 198.926 197.941 198.804 197.12H200.064C200.204 197.587 200.494 197.96 200.932 198.24C201.371 198.529 201.898 198.674 202.514 198.674C203.214 198.674 203.784 198.455 204.222 198.016C204.67 197.577 204.894 196.961 204.894 196.168V194.558C204.642 195.006 204.269 195.379 203.774 195.678C203.28 195.977 202.701 196.126 202.038 196.126C201.357 196.126 200.736 195.958 200.176 195.622C199.626 195.286 199.192 194.815 198.874 194.208C198.557 193.601 198.398 192.911 198.398 192.136C198.398 191.352 198.557 190.666 198.874 190.078C199.192 189.481 199.626 189.019 200.176 188.692C200.736 188.365 201.357 188.202 202.038 188.202ZM204.894 192.15C204.894 191.571 204.778 191.067 204.544 190.638C204.311 190.209 203.994 189.882 203.592 189.658C203.2 189.425 202.766 189.308 202.29 189.308C201.814 189.308 201.38 189.42 200.988 189.644C200.596 189.868 200.284 190.195 200.05 190.624C199.817 191.053 199.7 191.557 199.7 192.136C199.7 192.724 199.817 193.237 200.05 193.676C200.284 194.105 200.596 194.437 200.988 194.67C201.38 194.894 201.814 195.006 202.29 195.006C202.766 195.006 203.2 194.894 203.592 194.67C203.994 194.437 204.311 194.105 204.544 193.676C204.778 193.237 204.894 192.729 204.894 192.15ZM208.643 187.082C208.401 187.082 208.195 186.998 208.027 186.83C207.859 186.662 207.775 186.457 207.775 186.214C207.775 185.971 207.859 185.766 208.027 185.598C208.195 185.43 208.401 185.346 208.643 185.346C208.877 185.346 209.073 185.43 209.231 185.598C209.399 185.766 209.483 185.971 209.483 186.214C209.483 186.457 209.399 186.662 209.231 186.83C209.073 186.998 208.877 187.082 208.643 187.082ZM209.259 188.328V196H207.985V188.328H209.259ZM215.737 185.64V196H214.463V185.64H215.737ZM221.366 188.188C221.945 188.188 222.468 188.314 222.934 188.566C223.401 188.809 223.765 189.177 224.026 189.672C224.297 190.167 224.432 190.769 224.432 191.478V196H223.172V191.66C223.172 190.895 222.981 190.311 222.598 189.91C222.216 189.499 221.693 189.294 221.03 189.294C220.358 189.294 219.822 189.504 219.42 189.924C219.028 190.344 218.832 190.955 218.832 191.758V196H217.558V185.64H218.832V189.42C219.084 189.028 219.43 188.725 219.868 188.51C220.316 188.295 220.816 188.188 221.366 188.188ZM229.51 196.126C228.791 196.126 228.138 195.963 227.55 195.636C226.971 195.309 226.514 194.847 226.178 194.25C225.851 193.643 225.688 192.943 225.688 192.15C225.688 191.366 225.856 190.675 226.192 190.078C226.537 189.471 227.004 189.009 227.592 188.692C228.18 188.365 228.838 188.202 229.566 188.202C230.294 188.202 230.952 188.365 231.54 188.692C232.128 189.009 232.59 189.467 232.926 190.064C233.271 190.661 233.444 191.357 233.444 192.15C233.444 192.943 233.266 193.643 232.912 194.25C232.566 194.847 232.095 195.309 231.498 195.636C230.9 195.963 230.238 196.126 229.51 196.126ZM229.51 195.006C229.967 195.006 230.396 194.899 230.798 194.684C231.199 194.469 231.521 194.147 231.764 193.718C232.016 193.289 232.142 192.766 232.142 192.15C232.142 191.534 232.02 191.011 231.778 190.582C231.535 190.153 231.218 189.835 230.826 189.63C230.434 189.415 230.009 189.308 229.552 189.308C229.085 189.308 228.656 189.415 228.264 189.63C227.881 189.835 227.573 190.153 227.34 190.582C227.106 191.011 226.99 191.534 226.99 192.15C226.99 192.775 227.102 193.303 227.326 193.732C227.559 194.161 227.867 194.483 228.25 194.698C228.632 194.903 229.052 195.006 229.51 195.006ZM240.867 196.126C240.279 196.126 239.752 196.028 239.285 195.832C238.818 195.627 238.45 195.347 238.179 194.992C237.908 194.628 237.759 194.213 237.731 193.746H239.047C239.084 194.129 239.262 194.441 239.579 194.684C239.906 194.927 240.33 195.048 240.853 195.048C241.338 195.048 241.721 194.941 242.001 194.726C242.281 194.511 242.421 194.241 242.421 193.914C242.421 193.578 242.272 193.331 241.973 193.172C241.674 193.004 241.212 192.841 240.587 192.682C240.018 192.533 239.551 192.383 239.187 192.234C238.832 192.075 238.524 191.847 238.263 191.548C238.011 191.24 237.885 190.839 237.885 190.344C237.885 189.952 238.002 189.593 238.235 189.266C238.468 188.939 238.8 188.683 239.229 188.496C239.658 188.3 240.148 188.202 240.699 188.202C241.548 188.202 242.234 188.417 242.757 188.846C243.28 189.275 243.56 189.863 243.597 190.61H242.323C242.295 190.209 242.132 189.887 241.833 189.644C241.544 189.401 241.152 189.28 240.657 189.28C240.2 189.28 239.836 189.378 239.565 189.574C239.294 189.77 239.159 190.027 239.159 190.344C239.159 190.596 239.238 190.806 239.397 190.974C239.565 191.133 239.77 191.263 240.013 191.366C240.265 191.459 240.61 191.567 241.049 191.688C241.6 191.837 242.048 191.987 242.393 192.136C242.738 192.276 243.032 192.491 243.275 192.78C243.527 193.069 243.658 193.447 243.667 193.914C243.667 194.334 243.55 194.712 243.317 195.048C243.084 195.384 242.752 195.65 242.323 195.846C241.903 196.033 241.418 196.126 240.867 196.126ZM245.522 196.084C245.279 196.084 245.074 196 244.906 195.832C244.738 195.664 244.654 195.459 244.654 195.216C244.654 194.973 244.738 194.768 244.906 194.6C245.074 194.432 245.279 194.348 245.522 194.348C245.755 194.348 245.951 194.432 246.11 194.6C246.278 194.768 246.362 194.973 246.362 195.216C246.362 195.459 246.278 195.664 246.11 195.832C245.951 196 245.755 196.084 245.522 196.084ZM247.229 192.136C247.229 191.352 247.388 190.666 247.705 190.078C248.022 189.481 248.456 189.019 249.007 188.692C249.567 188.365 250.192 188.202 250.883 188.202C251.48 188.202 252.036 188.342 252.549 188.622C253.062 188.893 253.454 189.252 253.725 189.7V185.64H255.013V196H253.725V194.558C253.473 195.015 253.1 195.393 252.605 195.692C252.11 195.981 251.532 196.126 250.869 196.126C250.188 196.126 249.567 195.958 249.007 195.622C248.456 195.286 248.022 194.815 247.705 194.208C247.388 193.601 247.229 192.911 247.229 192.136ZM253.725 192.15C253.725 191.571 253.608 191.067 253.375 190.638C253.142 190.209 252.824 189.882 252.423 189.658C252.031 189.425 251.597 189.308 251.121 189.308C250.645 189.308 250.211 189.42 249.819 189.644C249.427 189.868 249.114 190.195 248.881 190.624C248.648 191.053 248.531 191.557 248.531 192.136C248.531 192.724 248.648 193.237 248.881 193.676C249.114 194.105 249.427 194.437 249.819 194.67C250.211 194.894 250.645 195.006 251.121 195.006C251.597 195.006 252.031 194.894 252.423 194.67C252.824 194.437 253.142 194.105 253.375 193.676C253.608 193.237 253.725 192.729 253.725 192.15ZM259.834 194.978C261.02 194.026 261.948 193.247 262.62 192.64C263.292 192.024 263.857 191.385 264.314 190.722C264.781 190.05 265.014 189.392 265.014 188.748C265.014 188.141 264.865 187.665 264.566 187.32C264.277 186.965 263.806 186.788 263.152 186.788C262.518 186.788 262.023 186.989 261.668 187.39C261.323 187.782 261.136 188.309 261.108 188.972H259.876C259.914 187.927 260.231 187.119 260.828 186.55C261.426 185.981 262.196 185.696 263.138 185.696C264.1 185.696 264.86 185.962 265.42 186.494C265.99 187.026 266.274 187.759 266.274 188.692C266.274 189.467 266.041 190.223 265.574 190.96C265.117 191.688 264.594 192.332 264.006 192.892C263.418 193.443 262.667 194.087 261.752 194.824H266.568V195.888H259.834V194.978ZM267.691 190.834C267.691 189.229 267.952 187.978 268.475 187.082C268.998 186.177 269.912 185.724 271.219 185.724C272.516 185.724 273.426 186.177 273.949 187.082C274.472 187.978 274.733 189.229 274.733 190.834C274.733 192.467 274.472 193.737 273.949 194.642C273.426 195.547 272.516 196 271.219 196C269.912 196 268.998 195.547 268.475 194.642C267.952 193.737 267.691 192.467 267.691 190.834ZM273.473 190.834C273.473 190.022 273.417 189.336 273.305 188.776C273.202 188.207 272.983 187.749 272.647 187.404C272.32 187.059 271.844 186.886 271.219 186.886C270.584 186.886 270.099 187.059 269.763 187.404C269.436 187.749 269.217 188.207 269.105 188.776C269.002 189.336 268.951 190.022 268.951 190.834C268.951 191.674 269.002 192.379 269.105 192.948C269.217 193.517 269.436 193.975 269.763 194.32C270.099 194.665 270.584 194.838 271.219 194.838C271.844 194.838 272.32 194.665 272.647 194.32C272.983 193.975 273.202 193.517 273.305 192.948C273.417 192.379 273.473 191.674 273.473 190.834ZM275.852 188.16C275.852 187.525 276.043 187.021 276.426 186.648C276.809 186.265 277.299 186.074 277.896 186.074C278.493 186.074 278.983 186.265 279.366 186.648C279.749 187.021 279.94 187.525 279.94 188.16C279.94 188.804 279.749 189.317 279.366 189.7C278.983 190.073 278.493 190.26 277.896 190.26C277.299 190.26 276.809 190.073 276.426 189.7C276.043 189.317 275.852 188.804 275.852 188.16ZM284.028 186.228L278.358 196H277.098L282.768 186.228H284.028ZM277.896 186.858C277.579 186.858 277.327 186.97 277.14 187.194C276.963 187.409 276.874 187.731 276.874 188.16C276.874 188.589 276.963 188.916 277.14 189.14C277.327 189.364 277.579 189.476 277.896 189.476C278.213 189.476 278.465 189.364 278.652 189.14C278.839 188.907 278.932 188.58 278.932 188.16C278.932 187.731 278.839 187.409 278.652 187.194C278.465 186.97 278.213 186.858 277.896 186.858ZM281.214 194.068C281.214 193.424 281.405 192.915 281.788 192.542C282.171 192.159 282.661 191.968 283.258 191.968C283.855 191.968 284.341 192.159 284.714 192.542C285.097 192.915 285.288 193.424 285.288 194.068C285.288 194.703 285.097 195.211 284.714 195.594C284.341 195.977 283.855 196.168 283.258 196.168C282.661 196.168 282.171 195.981 281.788 195.608C281.405 195.225 281.214 194.712 281.214 194.068ZM283.244 192.766C282.927 192.766 282.675 192.878 282.488 193.102C282.301 193.317 282.208 193.639 282.208 194.068C282.208 194.488 282.301 194.81 282.488 195.034C282.675 195.249 282.927 195.356 283.244 195.356C283.561 195.356 283.813 195.249 284 195.034C284.187 194.81 284.28 194.488 284.28 194.068C284.28 193.639 284.187 193.317 284 193.102C283.813 192.878 283.561 192.766 283.244 192.766Z" fill="#333333"/>
</g>
</svg>
